<?xml version="1.0" standalone="no"?>
<!DOCTYPE svg PUBLIC "-//W3C//DTD SVG 1.1//EN" "http://www.w3.org/Graphics/SVG/1.1/DTD/svg11.dtd" >
<svg xmlns="http://www.w3.org/2000/svg">
<metadata>
This is a custom SVG webfont generated by Font Squirrel.
Copyright   : Copyright 19992007 Ron Carpenter and Dalton Maag Ltd All rights reserved DaMa is a trademark of Dalton Maag Ltd The use of this font without a valid license is illegal and will be prosecuted
Designer    : Ron Carpenter
Foundry     : Ron Carpenter and Dalton Maag Ltd
</metadata>
<defs>
<font id="LexiaItalic" horiz-adv-x="1110" >
<font-face units-per-em="2048" ascent="1638" descent="-410" />
<missing-glyph horiz-adv-x="524" />
<glyph unicode=" "  horiz-adv-x="524" />
<glyph unicode="&#x09;" horiz-adv-x="524" />
<glyph unicode="&#xa0;" horiz-adv-x="524" />
<glyph unicode="!" horiz-adv-x="550" d="M168 94q0 63 41 105.5t92 42.5q53 0 87 -35t34 -94q0 -53 -38 -97.5t-97 -44.5q-41 0 -80 32t-39 91zM289 377l211 1116h217l-285 -1116h-143z" />
<glyph unicode="&#x22;" horiz-adv-x="907" d="M403 975l91 518h200l-178 -518h-113zM760 975l90 518h201l-179 -518h-112z" />
<glyph unicode="#" horiz-adv-x="1177" d="M160 457l30 116h232l94 345h-231l30 116h232l125 459h147l-125 -459h221l127 459h148l-125 -459h231l-30 -116h-232l-96 -345h233l-30 -116h-230l-123 -457h-147l121 457h-223l-121 -457h-148l121 457h-231zM571 573h220l94 345h-221z" />
<glyph unicode="$" d="M37 0l88 442q16 6 32.5 8.5t32.5 2.5q41 0 70 -13q-6 -49 -6 -71q0 -39 13.5 -80t43 -78t77.5 -65t118 -40l108 535l-79 27q-76 25 -128.5 55.5t-86 69t-49 89t-15.5 115.5q0 63 25.5 134t82 129.5t148.5 96.5t227 38h27l29 145h102l-33 -158q51 -12 89 -30.5t63.5 -40 t41 -42t23.5 -36.5l27 131q38 10 66 10q20 0 37.5 -3t31.5 -7l-84 -412q-37 -10 -65 -10q-20 0 -38 4l-34 8q4 20 5 36t1 54q0 27 -9 58t-30.5 60.5t-57.5 54t-91 36.5l-99 -491l74 -25q164 -55 230.5 -139t66.5 -209q0 -88 -32.5 -165t-94 -134t-152 -90t-202.5 -33h-26 q-13 0 -25 2l-39 -198h-103l41 209q-129 20 -192.5 69t-85.5 98l-31 -147q-16 -6 -32.5 -8t-33.5 -2q-36 0 -67 10zM416 1008q0 -35 7 -62.5t26.5 -50.5t54.5 -43.5t88 -38.5l53 -18l94 473h-18q-147 0 -226 -74.5t-79 -185.5zM606 98q160 0 246 73t86 189q0 86 -41 141.5 t-147 92.5l-41 14z" />
<glyph unicode="%" horiz-adv-x="1765" d="M295 1032q0 70 26.5 131.5t72.5 107.5t107.5 71.5t133.5 25.5q70 0 130 -26.5t106.5 -71.5t73 -106.5t26.5 -131t-26.5 -132t-72 -109t-106.5 -73t-131 -26.5q-72 0 -133.5 26.5t-107.5 73t-72.5 107.5t-26.5 133zM406 -33l1079 1432h153l-1079 -1432h-153zM426 1032 q0 -96 61.5 -152.5t145.5 -56.5q45 0 83 16.5t65.5 45t43 66.5t15.5 81t-16.5 80t-44 64.5t-64.5 44t-80 16.5q-45 0 -83 -16.5t-65.5 -44t-44 -65.5t-16.5 -79zM1077 340q0 70 26.5 131t73 107.5t108 72t132.5 25.5q70 0 130.5 -26.5t106.5 -72t72.5 -106.5t26.5 -131 t-26.5 -132.5t-71.5 -108.5t-106.5 -72.5t-131.5 -26.5q-72 0 -133 26.5t-107.5 72.5t-73 107.5t-26.5 133.5zM1208 340q0 -96 61.5 -152.5t145.5 -56.5q45 0 83 16.5t65.5 45t43 66.5t15.5 81t-16.5 80t-44 64.5t-64.5 44t-80 16.5q-45 0 -83 -16.5t-65.5 -44t-44 -65.5 t-16.5 -79z" />
<glyph unicode="&#x26;" horiz-adv-x="1325" d="M76 303q0 156 104.5 287t329.5 211l-16 28q-23 39 -48.5 99.5t-25.5 132.5q0 92 31.5 159.5t85 113.5t125 68.5t151.5 22.5q100 0 181 -31.5t134 -66.5l-28 -135q-51 31 -130 63.5t-165 32.5q-98 0 -158.5 -53t-60.5 -148q0 -31 5 -58.5t18.5 -59t35 -71.5t53.5 -93 l238 -389q37 59 71.5 136t61.5 161h270q2 -10 2 -31q0 -23 -2 -33q-6 -37 -22 -63h-143q-35 -78 -73 -152t-87 -147l96 -160h213q2 -10 2 -31q0 -23 -2 -33q-6 -37 -23 -63h-301l-96 158q-57 -57 -114.5 -94t-115 -58.5t-113.5 -30t-109 -8.5q-104 0 -176 34t-116 85 t-63.5 109.5t-19.5 107.5zM248 338q0 -43 15.5 -84t45 -71.5t72.5 -49t100 -18.5q74 0 166 31.5t184 129.5l-253 418q-156 -53 -243 -142t-87 -214z" />
<glyph unicode="'" horiz-adv-x="550" d="M403 975l91 518h200l-178 -518h-113z" />
<glyph unicode="(" horiz-adv-x="661" d="M223 295q0 150 33 307q27 135 72 257t109.5 240t148.5 234.5t188 237.5h154l-161 -232q-71 -104 -128 -213.5t-100 -233.5t-76 -288q-23 -111 -33 -203t-10 -171.5t9 -151.5t24.5 -142.5t38.5 -145.5l47 -159h-154q-78 172 -120 332t-42 332z" />
<glyph unicode=")" horiz-adv-x="661" d="M-25 -367l160 231q72 105 129.5 214.5t100.5 233.5t75 288q23 111 33 203t10 172t-9 151.5t-24.5 142t-37.5 145.5l-47 159h153q78 -172 120 -332t42 -332q0 -150 -33 -307q-27 -135 -72 -257t-109.5 -239.5t-148.5 -234.5t-188 -238h-154z" />
<glyph unicode="*" horiz-adv-x="772" d="M319 1280l43 123l209 -76l-8 225h131l-8 -225l209 78l43 -123l-215 -61l139 -181l-110 -71l-123 188l-121 -188l-111 71l138 181z" />
<glyph unicode="+" d="M176 612v146h430v430h146v-430h428v-146h-428v-428h-146v428h-430z" />
<glyph unicode="," horiz-adv-x="550" d="M92 -348l23 110q145 66 172 209q-66 4 -94.5 42t-28.5 81q0 72 37 108t88 36q61 0 98 -46.5t37 -123.5q0 -84 -29.5 -156t-78 -125t-108 -88t-116.5 -47z" />
<glyph unicode="-" horiz-adv-x="661" d="M195 508q0 12 1 24.5t3 22.5q6 43 28 80h457q2 -10 3 -21.5t1 -21.5q0 -12 -1 -24.5t-3 -22.5q-6 -43 -29 -80h-456q-2 10 -3 21.5t-1 21.5z" />
<glyph unicode="." horiz-adv-x="550" d="M170 94q0 63 41 105.5t92 42.5q53 0 87 -35t34 -94q0 -53 -38 -97.5t-97 -44.5q-41 0 -80 32t-39 91z" />
<glyph unicode="/" horiz-adv-x="665" d="M-8 -37l831 1589h152l-832 -1589h-151z" />
<glyph unicode="0" d="M178 406q0 109 18.5 224t54.5 225t90 209t126 173t160 118t192.5 44t174 -34t112.5 -93.5t61.5 -140t18.5 -175.5q0 -102 -16.5 -214.5t-51.5 -222t-86 -210t-121.5 -176.5t-158.5 -121t-195 -45q-119 0 -192.5 45t-115.5 111.5t-56.5 143t-14.5 139.5zM371 428 q0 -57 7 -113.5t28.5 -102.5t59.5 -74.5t99 -28.5q76 0 138.5 43t111.5 113.5t86 160.5t60.5 182t36 178t12.5 150q0 141 -45 231t-154 90q-100 0 -181 -78.5t-138.5 -200.5t-89 -267.5t-31.5 -278.5v-4z" />
<glyph unicode="1" d="M229 18v19v16q0 8 2 17q6 37 23 63h266l221 1100h-264q-2 10 -2 18v19v16q0 8 2 17q6 37 23 63h440l-248 -1233h246q2 -10 2 -18v-19v-16q0 -8 -2 -17q-6 -37 -23 -63h-684q-2 10 -2 18z" />
<glyph unicode="2" d="M68 0q18 96 59 177t106.5 156t156.5 146.5t214 149.5l57 37l127 84q61 41 108.5 87t75 99t27.5 121q0 90 -54 142t-169 52q-68 0 -127 -18.5t-113.5 -48t-101.5 -66.5t-90 -76l33 197q37 27 82 54.5t96 51t111.5 39t128.5 15.5q182 0 282.5 -86t100.5 -234 q0 -100 -38 -177t-104.5 -142.5t-155.5 -123.5l-192 -122l-59 -37q-90 -55 -149.5 -103t-98.5 -90t-60.5 -78t-33.5 -65h581l47 242q16 6 37 8t39 2q20 0 38 -4t38 -10l-76 -379h-923z" />
<glyph unicode="3" d="M125 104l35 183q25 -27 60.5 -56.5t82.5 -55.5t104.5 -42t127 -16t134 22.5t115 64.5t80 102.5t29.5 135.5q0 68 -26.5 108t-68.5 61.5t-90.5 27.5t-91.5 6h-65q-4 10 -4 23v22v19q0 8 2 16q4 16 9 32.5t15 33.5h97q47 0 100 17t98 53t75 89.5t30 126.5q0 35 -11.5 67 t-37 56.5t-66.5 38.5t-100 14q-72 0 -135.5 -21.5t-115.5 -52t-94 -62.5l-69 -52l33 182q78 59 187.5 105.5t219.5 46.5q84 0 150.5 -22.5t114 -60.5t73 -91.5t25.5 -114.5q0 -82 -23.5 -145.5t-60.5 -110.5t-82 -80t-88 -53q176 -68 176 -266q0 -78 -31.5 -164t-97.5 -158 t-165 -119t-234 -47q-76 0 -142.5 14.5t-120 35t-93.5 44t-60 43.5z" />
<glyph unicode="4" d="M125 340l35 170l798 885h142l-187 -926h203q4 -8 4 -19v-22q0 -23 -2 -33q-4 -16 -9 -27.5t-15 -27.5h-207l-45 -221h147q2 -10 2 -30.5t-2 -31.5q-6 -33 -24 -57h-471q-2 10 -2 30.5t2 30.5q6 33 24 58h166l45 221h-604zM291 469h465l65 313l27 120l24 105l25 98l27 99 l-50 -62l-65 -81l-71 -86l-66 -78z" />
<glyph unicode="5" d="M154 86l36 182q61 -68 146.5 -111.5t202.5 -43.5q72 0 137 27.5t114.5 81.5t79 133t29.5 182q0 43 -12.5 82.5t-38 69.5t-67.5 48.5t-99 18.5q-92 0 -155.5 -39t-116.5 -103h-140l224 752h682q4 -10 4 -23v-24v-19q0 -8 -2 -16q-4 -16 -9.5 -32.5t-15.5 -32.5h-563 l-123 -414q41 35 104.5 62.5t167.5 27.5q68 0 129.5 -20.5t107.5 -62.5t73.5 -106.5t27.5 -150.5q0 -109 -35.5 -214t-105.5 -189t-169 -136.5t-228 -52.5q-74 0 -136.5 13.5t-111.5 33t-84 40t-53 36.5z" />
<glyph unicode="6" d="M215 434q0 190 46 364.5t132 307.5t211 212t283 79q59 0 104 -6.5t82 -16.5t66.5 -24.5t58.5 -30.5l-29 -152q-51 31 -121.5 57.5t-162.5 26.5q-117 0 -200 -59t-137 -142t-83 -172.5t-41 -148.5q20 27 52 55.5t74 52t95 39t117 15.5q68 0 132 -19.5t114.5 -63.5 t81 -113.5t30.5 -168.5q0 -131 -39 -234.5t-105.5 -176t-156.5 -110.5t-192 -38q-213 0 -312.5 123t-99.5 344zM391 373q0 -55 15.5 -104.5t47 -86.5t79 -57.5t108.5 -20.5t116.5 29t98.5 80t67.5 124t24.5 161q0 111 -58.5 182.5t-182.5 71.5q-74 0 -132.5 -30t-99.5 -81 t-62.5 -120.5t-21.5 -147.5z" />
<glyph unicode="7" d="M295 0l788 1202h-571l-47 -235q-16 -6 -35.5 -8.5t-38.5 -2.5q-20 0 -37.5 4.5t-38.5 10.5l78 395h885l-31 -154l-760 -1212h-192z" />
<glyph unicode="8" d="M164 334q0 61 16.5 122.5t53 118t95 103.5t144.5 78q-68 43 -99.5 102.5t-31.5 151.5q0 70 29.5 139.5t88 124.5t143.5 90t195.5 35t183.5 -30t117 -75t62.5 -99t18.5 -105q0 -78 -23.5 -136.5t-61.5 -102.5t-86 -76t-96 -54q90 -31 136.5 -112t46.5 -179q0 -82 -34 -165 t-98.5 -148.5t-158.5 -107.5t-215 -42q-115 0 -195 30t-132 80t-75.5 116.5t-23.5 140.5zM336 350q0 -70 21.5 -117t57.5 -76.5t83 -42t96 -12.5q72 0 132 25t104 68t69 101t25 128q0 111 -70 175.5t-192 64.5q-63 0 -123 -19.5t-105 -58.5t-71.5 -98.5t-26.5 -137.5z M508 997q0 -39 12 -75.5t37 -64.5t63.5 -44t92.5 -16q80 0 136 24.5t92 63.5t52.5 86t16.5 92q0 41 -11.5 79t-38 65.5t-69.5 44t-107 16.5q-72 0 -124 -24.5t-85.5 -63.5t-50 -87.5t-16.5 -95.5z" />
<glyph unicode="9" d="M121 63l41 160q59 -45 132 -77.5t193 -32.5q100 0 176 50t131.5 126t90.5 164t53 165q-18 -20 -48 -44.5t-70 -45t-92 -35t-120 -14.5q-72 0 -135 21.5t-112.5 66.5t-78 115t-28.5 164q0 131 42 234.5t111.5 173t160.5 106.5t190 37q106 0 183 -35t126 -95.5t72.5 -141.5 t23.5 -171q0 -96 -16.5 -205.5t-52 -219t-90 -211t-130 -179.5t-172 -125t-217.5 -47q-78 0 -134 9.5t-97 22.5t-73 31zM428 866q0 -53 13.5 -99t43 -80t76.5 -53.5t117 -19.5t128 31t100 83t65.5 119.5t23.5 141.5q0 127 -59 200t-193 73q-63 0 -120.5 -30t-100.5 -83 t-68.5 -126t-25.5 -157z" />
<glyph unicode=":" horiz-adv-x="550" d="M219 94q0 63 41 105.5t92 42.5q53 0 87 -35t34 -94q0 -53 -38 -97.5t-97 -44.5q-41 0 -80 32t-39 91zM379 891q0 63 41 105t92 42q53 0 87 -34.5t34 -94.5q0 -53 -38 -97t-97 -44q-41 0 -80 32t-39 91z" />
<glyph unicode=";" horiz-adv-x="550" d="M104 -348l23 110q145 66 172 209q-66 4 -94.5 42t-28.5 81q0 72 37 108t88 36q61 0 98 -46.5t37 -123.5q0 -84 -29.5 -156t-77.5 -125t-108 -88t-117 -47zM379 891q0 63 41 105t92 42q53 0 87 -34.5t34 -94.5q0 -53 -38 -97t-97 -44q-41 0 -80 32t-39 91z" />
<glyph unicode="&#x3c;" d="M195 616v140l968 411v-159l-774 -322l774 -321v-158z" />
<glyph unicode="=" d="M186 412v145h1004v-145h-1004zM186 813v145h1004v-145h-1004z" />
<glyph unicode="&#x3e;" d="M197 207v158l774 321l-774 322v159l968 -411v-140z" />
<glyph unicode="?" horiz-adv-x="1103" d="M377 1178l35 182q37 29 82 58.5t100 54t120.5 41t141.5 16.5q92 0 160.5 -30t114 -76t68 -101t22.5 -106q0 -76 -22.5 -136.5t-61.5 -113t-93 -101.5l-114 -102q-57 -49 -99.5 -90t-72 -85t-50 -98.5t-34.5 -128.5h-174q16 86 38.5 149.5t55.5 117t78 101.5t108 101 l107 94q47 42 80.5 82t51 83t17.5 98q0 31 -10 65.5t-34.5 64.5t-67.5 49t-111 19q-59 0 -116.5 -16t-114 -45t-108.5 -66.5t-97 -80.5zM414 94q0 63 41 105.5t92 42.5q53 0 87 -35t34 -94q0 -53 -38 -97.5t-98 -44.5q-41 0 -79.5 32t-38.5 91z" />
<glyph unicode="@" horiz-adv-x="1671" d="M193 510q0 174 62 320.5t168.5 251t250 163t303.5 58.5q143 0 272 -48.5t227.5 -133.5t156 -203.5t57.5 -260t-43 -247t-118 -176t-175.5 -105.5t-216.5 -35h-74l35 174q-20 -31 -49 -64.5t-67 -63t-86 -49t-105 -19.5q-63 0 -109.5 25.5t-75 68.5t-43 97t-14.5 112 q0 154 50 268.5t128 200.5q59 61 128 89t140 28q25 0 54.5 -6.5t57.5 -20.5t52.5 -38t38.5 -60l64 100h86l-144 -719q92 2 158.5 40t108.5 98.5t62.5 136t20.5 149.5q0 123 -46 222.5t-125.5 169t-184 106.5t-221.5 37q-139 0 -255 -49.5t-200 -138.5t-131 -213t-47 -273 q0 -145 45 -263t130 -202t205 -129t267 -45q63 0 134 10t142.5 30.5t140.5 51.5t128 72l66 -113q-117 -76 -275 -127t-340 -51q-172 0 -317.5 54t-251 155.5t-165.5 244t-60 320.5zM702 403q0 -104 36 -155t100 -51q57 0 112.5 47t99.5 117.5t70.5 155.5t26.5 159 q0 86 -42 131t-99 45q-63 0 -119 -38t-96.5 -100.5t-64.5 -143.5t-24 -167z" />
<glyph unicode="A" horiz-adv-x="1458" d="M25 18v19v16q0 8 2 17q6 37 22 63h133l748 1378h190l174 -1378h131q2 -10 2 -18v-19v-16q0 -8 -2 -17q-6 -37 -22 -63h-483q-2 10 -2 18v19v16q0 8 2 17q6 37 22 63h176l-41 346h-553l-184 -346h158q2 -10 2 -18v-19v-16q0 -8 -2 -17q-6 -37 -23 -63h-448q-2 10 -2 18z M600 618h459l-55 472q-2 14 -5.5 46.5l-7.5 70.5t-7 77t-3 68q-25 -57 -62 -131l-69 -131z" />
<glyph unicode="B" horiz-adv-x="1343" d="M66 18v19v16q0 8 2 17q6 37 22 63h152l247 1227h-147q-2 10 -2 18v19v16q0 8 2 17q6 37 23 63h630q125 0 202 -35t118 -85t55 -106.5t14 -99.5q0 -127 -67.5 -225t-188.5 -154q39 -16 74 -39.5t62.5 -59.5t44 -84t16.5 -113q0 -117 -43 -208t-114.5 -153.5t-165 -96.5 t-195.5 -34h-739q-2 10 -2 18zM420 145h375q76 0 138 21.5t108 62.5t72 100.5t26 137.5q0 63 -19.5 108.5t-54.5 74t-81 43t-101 14.5h-353zM561 850h283q72 0 136 15.5t112.5 52t77 95t28.5 144.5q0 29 -8 62.5t-32.5 62.5t-73 48.5t-128.5 19.5h-299z" />
<glyph unicode="C" horiz-adv-x="1392" d="M233 557q0 190 57.5 366.5t161 310.5t248 215t320.5 81q117 0 212 -40t148 -132l31 137q37 12 70 12q23 0 41 -4t34 -8l-116 -575q-37 -12 -74 -13q-45 0 -80 15q10 66 18.5 107.5t8.5 82.5q0 55 -16.5 104.5t-52.5 86t-92 57t-136 20.5q-133 0 -241.5 -67.5t-185.5 -178 t-119 -254t-42 -294.5q0 -104 25.5 -189.5t76 -146t122 -94t163.5 -33.5q80 0 152.5 20.5t136 53t119 74.5t100.5 83l-45 -237q-76 -57 -201 -105.5t-282 -48.5q-164 0 -272.5 58.5t-173 146.5t-90.5 192.5t-26 196.5z" />
<glyph unicode="D" horiz-adv-x="1431" d="M66 18v19v16q0 8 2 17q6 37 22 63h152l247 1227h-147q-2 10 -2 18v19v16q0 8 2 17q6 37 23 63h573q174 0 284.5 -51t172 -132t84 -179.5t22.5 -190.5q0 -256 -76.5 -442.5t-218.5 -315.5q-96 -86 -220 -134t-265 -48h-653q-2 10 -2 18zM422 147h315q123 0 226.5 55.5 t179.5 157t119 242.5t43 311q0 88 -18.5 166t-62.5 137.5t-116 94.5t-178 35h-266z" />
<glyph unicode="E" horiz-adv-x="1251" d="M66 18v19v16q0 8 2 17q6 37 22 63h152l247 1227h-147q-2 10 -2 18v19v16q0 9 2 17q6 37 23 63h1069l-88 -438q-18 -6 -38 -8.5t-38 -2.5q-20 0 -39 4.5t-39 10.5l61 287h-587l-103 -504h584q4 -10 4 -23v-24v-19q0 -8 -2 -16q-4 -16 -9 -32.5t-16 -33.5h-592l-108 -547 h596l61 297q18 6 38 8.5t38 2.5q20 0 38.5 -4.5t39.5 -10.5l-88 -440h-1079q-2 10 -2 18z" />
<glyph unicode="F" horiz-adv-x="1155" d="M66 18v19v16q0 8 2 17q6 37 22 63h152l247 1227h-147q-2 10 -2 18v19v16q0 8 2 17q6 37 23 63h1050l-90 -446q-18 -6 -37.5 -8.5t-38.5 -2.5q-20 0 -38.5 4t-39.5 11l58 295h-563l-103 -504h541q4 -10 4 -23v-24v-19q0 -8 -2 -16q-4 -16 -9 -32.5t-16 -33.5h-549 l-110 -561h168q2 -10 2 -18v-19v-16q0 -8 -2 -17q-6 -37 -23 -63h-499q-2 10 -2 18z" />
<glyph unicode="G" horiz-adv-x="1472" d="M236 557q0 190 57 366.5t160.5 310.5t248 215t320.5 81q242 0 356 -162l29 127q37 12 70 12q23 0 41 -4t34 -8l-110 -528q-37 -12 -74 -13q-45 0 -80 15q2 8 5 25.5t6.5 40t6.5 48t3 50.5q0 51 -15.5 96t-50.5 78.5t-90 53t-135 19.5q-133 0 -241.5 -67.5t-185.5 -178 t-119 -254t-42 -294.5q0 -135 37 -225.5t93 -145.5t124 -77.5t129 -22.5q55 0 99 4t82 12t73 20.5t72 28.5l82 408h-199q-2 10 -2 18v19v16q0 8 2 16q6 37 22 64h502q2 -10 2 -19v-18v-16q0 -8 -2 -17q-6 -37 -22 -63h-127l-99 -484q-29 -20 -74.5 -44.5t-108 -46 t-142.5 -36t-176 -14.5q-164 0 -272.5 58.5t-173 146.5t-90 192.5t-25.5 196.5z" />
<glyph unicode="H" horiz-adv-x="1488" d="M66 18v19v16q0 8 2 17q6 37 22 63h152l247 1227h-147q-2 10 -2 18v19v16q0 8 2 17q6 37 23 63h479q2 -10 2 -18v-19v-16q0 -8 -2 -17q-6 -37 -23 -63h-153l-101 -500h697l100 500h-147q-2 10 -3 18v19v16q0 8 3 17q6 37 22 63h477q2 -10 2 -18v-19v-16q0 -8 -2 -17 q-6 -37 -22 -63h-152l-246 -1227h148q2 -10 2 -18v-19v-16q0 -8 -2 -17q-6 -37 -23 -63h-477q-2 10 -2 18v19v16q0 8 2 17q6 37 23 63h151l117 580h-698l-117 -580h147q2 -10 2 -18v-19v-16q0 -8 -2 -17q-6 -37 -22 -63h-477q-2 10 -2 18z" />
<glyph unicode="I" horiz-adv-x="645" d="M82 18v19v16q0 8 2 17q6 37 22 63h152l248 1227h-148q-2 10 -2 18v19v16q0 8 2 17q6 37 23 63h479q2 -10 2 -18v-19v-16q0 -8 -2 -17q-6 -37 -22 -63h-154l-246 -1227h148q2 -10 2 -18v-19v-16q0 -8 -2 -17q-6 -37 -23 -63h-479q-2 10 -2 18z" />
<glyph unicode="J" horiz-adv-x="1003" d="M84 92l35 176q14 -14 41.5 -38.5t66.5 -48t85 -41t96 -17.5q131 0 196.5 74.5t93.5 220.5l191 942h-174q-2 10 -2 18v19v16q0 8 2 17q6 37 22 63h506q2 -10 2 -18v-19v-16q0 -8 -2 -17q-6 -37 -22 -63h-154l-188 -938q-25 -121 -68 -206t-103.5 -138t-135 -78t-160.5 -25 q-61 0 -114.5 12.5t-94.5 31t-72 39t-47 34.5z" />
<glyph unicode="K" horiz-adv-x="1366" d="M66 18v19v16q0 8 2 17q6 37 22 63h152l247 1227h-147q-2 10 -2 18v19v16q0 8 2 17q6 37 23 63h481q2 -10 2 -18v-19v-16q0 -8 -2 -17q-6 -37 -23 -63h-155l-119 -594l678 594h-174q-2 10 -2 18v19v16q0 8 2 17q6 37 22 63h506q2 -10 2 -18v-19v-16q0 -8 -2 -17 q-6 -37 -22 -63h-134l-518 -451l330 -776h133q2 -10 2 -18v-19v-16q0 -8 -2 -17q-6 -37 -22 -63h-512q-2 10 -2 18v19v16q0 8 2 17q6 37 22 63h182l-270 658l-264 -230l-86 -428h149q2 -10 2 -18v-19v-16q0 -8 -2 -17q-6 -37 -22 -63h-479q-2 10 -2 18z" />
<glyph unicode="L" horiz-adv-x="1146" d="M66 18v19v16q0 8 2 17q6 37 22 63h152l247 1227h-147q-2 10 -2 18v19v16q0 8 2 17q6 37 23 63h499q2 -10 2 -18v-19v-16q0 -8 -2 -17q-6 -37 -22 -63h-174l-246 -1213h536l70 355q18 6 37.5 8t38.5 2q20 0 38.5 -4t39.5 -10l-101 -498h-1013q-2 10 -2 18z" />
<glyph unicode="M" horiz-adv-x="1765" d="M66 18v19v16q0 8 2 17q6 37 22 63h150l247 1227h-145q-2 10 -2 18v19v16q0 8 2 17q6 37 23 63h413l119 -1055q4 -39 9 -103.5t5 -127.5v-25q16 37 36 76l37 74l32 62l20 40l545 1059h414q2 -10 2 -18v-19v-16q0 -8 -2 -17q-6 -37 -23 -63h-149l-246 -1227h145 q2 -10 2 -18v-19v-16q0 -8 -2 -17q-6 -37 -22 -63h-465q-2 10 -2 18v19v16q0 8 2 17q6 37 22 63h154l199 985q4 23 11 55.5t14 69.5t16 73l14 64l-696 -1341h-178l-152 1341l-22 -115l-19 -104l-207 -1028h176q2 -10 2 -18v-19v-16q0 -8 -2 -17q-6 -37 -22 -63h-477 q-2 10 -2 18z" />
<glyph unicode="N" horiz-adv-x="1472" d="M66 18v19v16q0 8 2 17q6 37 22 63h152l247 1227h-147q-2 10 -2 18v19v16q0 8 2 17q6 37 23 63h358l364 -1051q6 -18 15 -50l17 -68l18 -74l14 -66l13 80q7 43 15 80l12 65q5 28 7 33l178 918h-143q-2 10 -2 18v19v16q0 8 2 17q6 37 22 63h453q2 -10 2 -18v-19v-16 q0 -8 -2 -17q-6 -37 -22 -63h-154l-270 -1378h-183l-385 1110q-16 49 -35.5 123.5t-29.5 144.5q-18 -150 -49 -305l-183 -922h148q2 -10 2 -18v-19v-16q0 -8 -2 -17q-6 -37 -23 -63h-454q-2 10 -2 18z" />
<glyph unicode="O" horiz-adv-x="1523" d="M238 592q0 106 22.5 218t67.5 216t111.5 196.5t153.5 160t194.5 107.5t234.5 40q143 0 248.5 -45t176.5 -126t105.5 -192.5t34.5 -242.5q0 -172 -49 -344t-148.5 -309.5t-247 -222.5t-343.5 -85q-158 0 -265.5 57.5t-173 147.5t-94 201.5t-28.5 222.5zM434 575 q0 -135 35 -225t89 -143t122 -74.5t133 -21.5q113 0 217.5 60t184 170t128 261.5t48.5 333.5q0 80 -20.5 160t-65.5 143.5t-119 103t-180 39.5q-125 0 -229.5 -63.5t-180.5 -173t-119 -256t-43 -314.5z" />
<glyph unicode="P" horiz-adv-x="1239" d="M66 18v19v16q0 8 2 17q6 37 22 63h152l247 1227h-147q-2 10 -2 18v19v16q0 8 2 17q6 37 23 63h639q125 0 202.5 -31.5t122.5 -83t61.5 -116t16.5 -132.5q0 -102 -36 -190t-103.5 -153.5t-164.5 -103.5t-222 -38h-363l-102 -512h168q2 -10 2 -18v-19v-16q0 -8 -2 -17 q-6 -37 -23 -63h-493q-2 10 -2 18zM549 793h319q154 0 252.5 86t98.5 249q0 104 -50.5 161t-167.5 57h-339z" />
<glyph unicode="Q" horiz-adv-x="1523" d="M238 592q0 106 22.5 218t67.5 216t111.5 196.5t153.5 160t194.5 107.5t234.5 40q143 0 248.5 -45t176.5 -126t105.5 -192.5t34.5 -242.5q0 -160 -43 -321t-129 -294t-216 -225t-302 -115q29 -41 78 -64.5t115 -23.5q31 0 62.5 1t69.5 9.5t85 22.5t106 43l-33 -156 q-55 -23 -133 -43t-188 -20q-125 0 -235.5 62.5t-166.5 176.5q-117 25 -196.5 87.5t-129.5 147.5t-71.5 184.5t-21.5 195.5zM434 575q0 -135 35 -225t89 -143t122 -74.5t133 -21.5q113 0 217.5 60t184 170t128 261.5t48.5 333.5q0 80 -20.5 160t-65.5 143.5t-119 103 t-180 39.5q-125 0 -229.5 -63.5t-180.5 -173t-119 -256t-43 -314.5z" />
<glyph unicode="R" horiz-adv-x="1361" d="M66 18v19v16q0 8 2 17q6 37 22 63h152l247 1227h-147q-2 10 -2 18v19v16q0 8 2 17q6 37 23 63h657q121 0 198.5 -33t123 -85t62.5 -114.5t17 -121.5q0 -184 -104.5 -306t-282.5 -161l168 -539h139q2 -10 3 -18v-19v-16q0 -8 -3 -17q-6 -37 -22 -63h-281l-178 657h-340 l-106 -524h178q2 -10 2 -18v-19v-16q0 -8 -2 -17q-6 -37 -23 -63h-503q-2 10 -2 18zM551 805h346q166 0 253 86t87 244q0 45 -12.5 82.5t-41 66.5t-74.5 45.5t-116 16.5h-334z" />
<glyph unicode="S" horiz-adv-x="1257" d="M94 0l109 539q37 12 71 12q43 0 76 -14l-5 -35q-3 -20 -5 -40t-4 -36t-2 -23q0 -57 23.5 -110t70.5 -94t118.5 -65.5t170.5 -24.5q170 0 266 76.5t96 209.5q0 92 -45 152.5t-157 99.5l-236 80q-82 27 -140.5 60.5t-95 77.5t-53 100.5t-16.5 128.5q0 70 30.5 146.5t94 141 t163 106.5t236.5 42q88 0 152.5 -16.5t110.5 -42t75 -57.5t43 -62l29 143q37 12 71 12q23 0 41.5 -4t34.5 -8l-102 -506q-37 -12 -72 -12q-43 0 -78 14q2 6 4 23.5t5.5 39t5.5 46t2 45.5q0 47 -20.5 92t-61.5 79t-103.5 54.5t-148.5 20.5q-76 0 -137.5 -22.5t-104.5 -60.5 t-66.5 -90.5t-23.5 -113.5q0 -74 37 -122t152 -87l243 -82q180 -59 253 -153.5t73 -233.5q0 -96 -36 -180t-103.5 -146.5t-166 -98.5t-223.5 -36q-199 0 -312.5 53.5t-158.5 143.5l-32 -162q-37 -12 -72 -12q-23 0 -41.5 4t-34.5 8z" />
<glyph unicode="T" horiz-adv-x="1304" d="M262 1030l92 463h1196l-92 -467q-18 -6 -37.5 -8t-38.5 -2q-20 0 -37.5 4t-37.5 10l63 316h-356l-246 -1213h178q2 -10 2 -18v-19v-16q0 -8 -2 -17q-6 -37 -22 -63h-521q-2 10 -2 18v19v16q0 8 2 17q6 37 23 63h164l246 1213h-359l-63 -320q-18 -6 -38 -8t-38 -2 q-20 0 -38 4t-38 10z" />
<glyph unicode="U" horiz-adv-x="1474" d="M293 379q0 29 4 62.5t8 58.5l172 860h-139q-2 10 -2 18v19v16q0 8 2 17q6 37 22 63h478q2 -10 2 -18v-19v-16q0 -8 -2 -17q-6 -37 -23 -63h-160l-168 -842q-4 -16 -9 -53t-5 -70q0 -82 27.5 -136t71.5 -86t100.5 -45t113.5 -13q82 0 155 24.5t130 79.5q37 35 73 101.5 t60 187.5l170 852h-149q-2 10 -2 18v19v16q0 8 2 17q6 37 22 63h465q2 -10 2 -18v-19v-16q0 -8 -2 -17q-6 -37 -22 -63h-150l-176 -887q-8 -37 -20.5 -80t-31 -88t-45 -88t-63.5 -80q-76 -80 -185.5 -127t-254.5 -47q-121 0 -209 31t-146.5 85t-87 131t-28.5 169z" />
<glyph unicode="V" horiz-adv-x="1396" d="M299 1378v19v16q0 8 2 17q6 37 23 63h475q2 -10 2 -18v-19v-16q0 -8 -2 -17q-6 -37 -23 -63h-176l88 -721q10 -94 22.5 -223t18.5 -248l59 123l62 125l60 119l55 104l385 721h-170q-2 10 -2 18v19v16q0 8 2 17q6 37 22 63h471q2 -10 2 -18v-19v-16q0 -8 -2 -17 q-6 -37 -22 -63h-135l-742 -1378h-176l-168 1378h-129q-2 10 -2 18z" />
<glyph unicode="W" horiz-adv-x="1992" d="M299 1378v19v16q0 8 2 17q6 37 23 63h471q2 -10 2 -18v-19v-16q0 -8 -2 -17q-6 -37 -23 -63h-172l37 -979v-53q0 -78 -6 -152l17 49l25 66l26 67q13 33 24 56l491 1079h191l35 -1112v-37q0 -41 -2 -84t-6 -84q6 23 17 54.5t25 64.5l26 64l24 55l430 946h-168q-2 10 -2 18 v19v16q0 8 2 17q6 37 22 63h461q2 -10 2 -18v-19v-16q0 -8 -2 -17q-6 -37 -22 -63h-136l-634 -1378h-187l-35 1038v43q0 53 2.5 117.5t6.5 105.5l-24 -60l-28 -73q-14 -37 -29 -72l-28 -61l-473 -1038h-186l-66 1378h-129q-2 10 -2 18z" />
<glyph unicode="X" horiz-adv-x="1406" d="M43 18v19v16q0 8 2 17q6 37 23 63h116l576 625l-303 602h-113q-2 10 -2 18v19v16q0 8 2 17q6 37 23 63h503q2 -10 2 -18v-19v-16q0 -8 -2 -17q-6 -37 -22 -63h-197l236 -463l426 463h-187q-2 10 -2 18v19v16q0 8 2 17q6 37 23 63h493q2 -10 3 -18v-19v-16q0 -8 -3 -17 q-6 -37 -22 -63h-119l-547 -598l320 -629h115q2 -10 2 -18v-19v-16q0 -8 -2 -17q-6 -37 -23 -63h-504q-2 10 -2 18v19v16q0 8 2 17q6 37 23 63h190l-248 492l-448 -492h184q2 -10 2 -18v-19v-16q0 -8 -2 -17q-6 -37 -22 -63h-496q-2 10 -2 18z" />
<glyph unicode="Y" horiz-adv-x="1400" d="M299 1378v19v16q0 8 2 17q6 37 23 63h473q2 -10 2 -18v-19v-16q0 -8 -2 -17q-6 -37 -23 -63h-184l250 -621l520 621h-178q-2 10 -2 18v19v16q0 8 2 17q6 37 22 63h471q2 -10 2 -18v-19v-16q0 -8 -2 -17q-6 -37 -22 -63h-111l-639 -760l-94 -467h168q2 -10 2 -18v-19v-16 q0 -8 -2 -17q-6 -37 -23 -63h-499q-2 10 -2 18v19v16q0 8 2 17q6 37 22 63h154l92 467l-315 760h-107q-2 10 -2 18z" />
<glyph unicode="Z" horiz-adv-x="1220" d="M55 0l33 160l1104 1186h-676l-59 -299q-16 -6 -36 -8.5t-38 -2.5q-20 0 -37.5 4t-38.5 11l88 442h1035l-33 -160l-1104 -1186h751l60 306q16 6 36.5 8t39.5 2q20 0 37.5 -4t37.5 -10l-90 -449h-1110z" />
<glyph unicode="[" horiz-adv-x="550" d="M55 -344l381 1896h371l-25 -127h-213l-329 -1642h213l-27 -127h-371z" />
<glyph unicode="\" horiz-adv-x="663" d="M315 1552h144l192 -1589h-143z" />
<glyph unicode="]" horiz-adv-x="550" d="M-14 -344l26 127h213l330 1642h-213l25 127h370l-381 -1896h-370z" />
<glyph unicode="^" horiz-adv-x="1056" d="M139 524l594 842h144l249 -842h-165l-193 650l-455 -650h-174z" />
<glyph unicode="_" horiz-adv-x="1024" d="M0 -150h1024v-131h-1024v131z" />
<glyph unicode="`" horiz-adv-x="700" d="M446 1456h213l123 -278h-133z" />
<glyph unicode="a" horiz-adv-x="1138" d="M170 346q0 190 61.5 331.5t159.5 246.5q72 78 158 111.5t172 33.5q31 0 66.5 -7t71.5 -24.5t65.5 -47t48.5 -75.5l78 123h106l-186 -919h133q2 -10 2 -30.5t-2 -31.5q-6 -35 -27 -57h-272l53 256q-23 -49 -59.5 -100.5t-85.5 -92t-110.5 -66.5t-133.5 -26 q-80 0 -136.5 32t-92 85t-53 119.5t-17.5 138.5zM352 381q0 -43 7.5 -89t27 -84t53 -63.5t86.5 -25.5q76 0 145.5 58.5t124 147.5t87 194.5t32.5 197.5q0 109 -52 167t-130 58q-86 0 -156.5 -50t-119.5 -130t-77 -180.5t-28 -200.5z" />
<glyph unicode="b" horiz-adv-x="1124" d="M176 0l291 1434h-133q-2 10 -2 30.5t2 30.5q6 33 24 57h297l-135 -673q27 37 60.5 70.5t76.5 59t93.5 42t111.5 16.5q84 0 141.5 -31.5t93.5 -85t51 -121t15 -137.5q0 -84 -14 -165t-42 -155.5t-67 -140t-88 -116.5q-72 -78 -155.5 -112t-175.5 -34q-51 0 -93.5 16.5 t-74 42t-53 56.5t-29.5 59l-84 -143h-111zM420 362q0 -70 18.5 -118.5t47 -79.5t63.5 -44.5t67 -13.5q84 0 152 50.5t115 130.5t72.5 178t25.5 192q0 43 -7 89.5t-25.5 85t-53.5 64.5t-90 26q-76 0 -137.5 -42t-109.5 -106.5t-80 -142.5t-46 -150q-12 -68 -12 -119z" />
<glyph unicode="c" horiz-adv-x="972" d="M172 397q0 63 13.5 138t41 149t70.5 143.5t101.5 123t132 85t165.5 31.5q55 0 95 -11.5t69 -27.5t45.5 -37.5t26.5 -42.5l20 88q31 12 60 13q31 0 61 -13l-86 -415q-31 -12 -65 -13q-33 0 -66 13q2 12 6 29.5t7 38t5.5 41t2.5 36.5q0 78 -43 127t-146 49 q-78 0 -139.5 -50t-104.5 -127t-66.5 -169t-23.5 -174q0 -66 13.5 -120t42 -94t77 -62.5t115.5 -22.5q31 0 64.5 4t74.5 21.5t93.5 50t117.5 92.5l-37 -193q-80 -72 -175 -98.5t-169 -26.5q-205 0 -302 115.5t-97 308.5z" />
<glyph unicode="d" horiz-adv-x="1138" d="M170 346q0 190 61.5 331.5t159.5 246.5q72 78 158 111.5t172 33.5q31 0 66.5 -7t70.5 -24.5t64.5 -45t46.5 -68.5l102 510h-135q-2 10 -2 30.5t2 30.5q6 33 25 57h301l-291 -1433h133q2 -10 2 -30.5t-2 -31.5q-6 -33 -25 -57h-274l53 256q-23 -47 -58.5 -97t-84.5 -91 t-111.5 -69t-134.5 -28q-80 0 -136.5 32t-92 85t-53 119.5t-17.5 138.5zM352 381q0 -43 7.5 -89t27 -84t53 -63.5t86.5 -25.5q76 0 145.5 58.5t124 147.5t87 194.5t32.5 197.5q0 109 -52 167t-130 58q-86 0 -156.5 -50t-119.5 -130t-77 -180.5t-28 -200.5z" />
<glyph unicode="e" horiz-adv-x="956" d="M174 410q0 53 13.5 122.5t41 142.5t71.5 143.5t106.5 125.5t145.5 89t187 34q154 0 228.5 -73.5t74.5 -180.5q0 -80 -38.5 -148.5t-120.5 -118.5t-209 -78t-301 -28h-19v-37q0 -143 64.5 -213.5t171.5 -70.5q61 0 112.5 14t94.5 34.5t76.5 45.5t58.5 47l-37 -194 q-70 -43 -156 -69t-184 -26q-96 0 -168 32t-119 90.5t-70.5 139.5t-23.5 177zM367 559h10h14q245 0 366 68q124 70 124 184q0 61 -36 100t-118 39q-88 0 -152.5 -44t-107.5 -106.5t-67.5 -129t-32.5 -111.5z" />
<glyph unicode="f" horiz-adv-x="606" d="M-96 -336l33 127q16 -10 49.5 -18.5t68.5 -8.5q70 0 112 53.5t64 184.5l154 907h-168q-2 8 -2 17v16q0 23 2 33q4 16 9 33.5t16 29.5h166l20 131q20 125 61 204t93.5 123t111 59.5t113.5 15.5q57 0 94 -10.5t72 -26.5l-35 -137q-25 12 -53.5 22.5t-79.5 10.5 q-68 0 -124 -48.5t-79 -179.5l-29 -164h195q2 -8 2 -16v-16q0 -23 -2 -33q-4 -16 -9 -33.5t-16 -30.5h-192l-152 -901q-20 -117 -55 -190.5t-81 -114.5t-100 -56.5t-112 -15.5q-59 0 -95 12.5t-52 20.5z" />
<glyph unicode="g" d="M104 -264l35 149q59 -47 133 -79.5t168 -32.5q84 0 145.5 21.5t104.5 67.5t72 117.5t51 174.5l12 59q-27 -41 -62.5 -80t-79.5 -68.5t-96 -47t-112 -17.5q-80 0 -137 29.5t-94 80t-54.5 115t-17.5 135.5q0 190 60.5 324.5t158.5 239.5q72 78 158 111.5t172 33.5 q31 0 66.5 -7t71.5 -24.5t65.5 -47t48.5 -75.5l78 123h106l-186 -921q-29 -139 -76 -231.5t-114.5 -150t-152.5 -81t-188 -23.5q-55 0 -108 11.5t-97.5 27t-78.5 34t-52 32.5zM354 395q0 -43 8.5 -87t28 -79.5t54 -58.5t87.5 -23q76 0 144.5 54.5t122 137.5t85 184.5 t31.5 193.5q0 109 -52 167t-130 58q-86 0 -155.5 -48t-119.5 -125t-77 -175.5t-27 -198.5z" />
<glyph unicode="h" horiz-adv-x="1128" d="M176 0l289 1434h-131q-2 10 -2 30.5t2 30.5q6 33 24 57h297l-147 -723q27 41 61.5 83t78.5 77t96.5 56.5t113.5 21.5q123 0 182.5 -64.5t59.5 -168.5q0 -18 -3 -55.5t-12 -71.5l-141 -588h152q2 -10 2 -30.5t-2 -31.5q-6 -33 -25 -57h-317l147 635q10 47 17.5 91t7.5 79 q0 55 -27 86t-94 31q-49 0 -106.5 -41t-112 -115t-99.5 -177.5t-71 -230.5l-74 -358h-166z" />
<glyph unicode="i" horiz-adv-x="571" d="M201 0l186 920h-131q-2 10 -2 30.5t2 30.5q6 33 25 57h297l-187 -919h133q2 -10 2 -30.5t-2 -31.5q-6 -33 -24 -57h-299zM434 1366q0 53 33 90t76 37q41 0 67.5 -31.5t26.5 -79.5q0 -49 -31 -88t-76 -39q-41 0 -68.5 32t-27.5 79z" />
<glyph unicode="j" horiz-adv-x="522" d="M-117 -338l27 131q27 -10 54.5 -17t68.5 -7q66 0 104.5 51t59.5 151l190 949h-131q-2 10 -2 30.5t2 30.5q6 33 25 57h297l-211 -1042q-20 -100 -53 -170t-76 -113t-96.5 -62.5t-110.5 -19.5q-51 0 -87 9.5t-61 21.5zM424 1366q0 53 32.5 90t75.5 37q41 0 68 -31.5 t27 -79.5q0 -49 -31 -88t-76 -39q-41 0 -68.5 32t-27.5 79z" />
<glyph unicode="k" horiz-adv-x="1026" d="M176 0l289 1434h-131q-2 10 -2 30.5t2 30.5q6 33 24 57h297l-200 -993l444 369h-147q-2 6 -2 13v13q0 20 2 31q6 29 24 53h418q2 -10 2 -30.5t-2 -30.5q-6 -33 -25 -57h-104l-340 -283l201 -518h153q2 -10 2 -30.5t-2 -31.5q-6 -33 -24 -57h-267l-194 526l-174 -143 l-78 -383h-166z" />
<glyph unicode="l" horiz-adv-x="559" d="M188 0l291 1434h-133q-2 10 -2 30.5t2 30.5q6 33 25 57h299l-291 -1433h141q2 -10 2 -30.5t-2 -31.5q-6 -33 -24 -57h-308z" />
<glyph unicode="m" horiz-adv-x="1667" d="M190 0l185 920h-131q-2 10 -2 30.5t2 30.5q6 33 24 57h271l-52 -262q18 41 52 91.5t80.5 95.5t102.5 74.5t124 29.5q119 0 173 -62.5t56 -150.5q25 37 59.5 75t77.5 68.5t92.5 50t102.5 19.5q61 0 105 -18.5t73 -50t43 -73.5t14 -91q0 -18 -4 -55.5t-12 -71.5l-139 -588 h151q2 -10 2 -30.5t-2 -31.5q-6 -33 -24 -57h-318l146 635q10 47 18 91t8 79q0 49 -22.5 83t-87.5 34q-43 0 -95.5 -35t-102.5 -98.5t-92 -153.5t-64 -201l-91 -434h-165l129 635q10 47 16 91t6 79q0 49 -18.5 83t-83.5 34q-51 0 -105.5 -44t-104.5 -120t-90 -174.5 t-63 -204.5l-78 -379h-166z" />
<glyph unicode="n" horiz-adv-x="1138" d="M188 0l185 920h-131q-2 10 -2 30.5t2 30.5q6 33 24 57h271l-56 -278q20 43 56 96t85.5 100.5t111 79t136.5 31.5q123 0 182.5 -64.5t59.5 -168.5q0 -18 -3 -55.5t-11 -71.5l-142 -588h152q2 -10 2 -30.5t-2 -31.5q-6 -33 -25 -57h-317l147 635q10 47 17.5 91t7.5 79 q0 55 -26.5 86t-94.5 31q-49 0 -106.5 -41t-111.5 -115t-99 -177.5t-72 -230.5l-74 -358h-166z" />
<glyph unicode="o" horiz-adv-x="1079" d="M174 399q0 102 34 220t103.5 217.5t174 165t243.5 65.5q113 0 187.5 -41t119.5 -102.5t62.5 -131t17.5 -126.5q0 -129 -38 -254t-109.5 -222.5t-174 -158t-231.5 -60.5q-86 0 -157.5 29t-123 84t-80 135t-28.5 180zM346 410q0 -63 11.5 -117.5t39 -95.5t72.5 -64.5 t113 -23.5q102 0 171.5 61t111.5 146t60.5 177.5t18.5 153.5q0 33 -7 82t-30.5 94t-69.5 77t-124 32q-70 0 -124 -30t-95 -77t-70 -105t-46.5 -116.5t-24.5 -109.5t-7 -84z" />
<glyph unicode="p" horiz-adv-x="1136" d="M-16 -313.5q0 20.5 2 30.5q6 33 24 58h133l232 1145h-131q-2 10 -2 30.5t2 30.5q6 33 24 57h271l-43 -221q23 45 58.5 89t82.5 80t106.5 58.5t130.5 22.5q84 0 141.5 -31.5t93.5 -85t51.5 -121t15.5 -137.5q0 -76 -14.5 -155.5t-41 -156.5t-64.5 -145.5t-87 -119.5 q-72 -78 -154 -112t-174 -34q-53 0 -97 17.5t-78 43t-54.5 57.5t-26.5 60l-76 -372h152q2 -10 2 -30.5t-2 -31.5q-6 -33 -25 -57h-450q-2 10 -2 30.5zM432 362q0 -70 19.5 -118.5t49 -79.5t65.5 -44.5t71 -13.5q84 0 149.5 52.5t111.5 133.5t70.5 178t24.5 187q0 43 -7 89.5 t-25.5 85t-53.5 64.5t-90 26q-76 0 -137.5 -42t-109.5 -106.5t-79.5 -142.5t-46.5 -150q-12 -66 -12 -119z" />
<glyph unicode="q" horiz-adv-x="1107" d="M170 346q0 190 61.5 331.5t159.5 246.5q72 78 158 111.5t172 33.5q31 0 66.5 -7t71.5 -24.5t65.5 -47t48.5 -75.5l78 123h106l-256 -1263h133q2 -10 2 -30.5t-2 -31.5q-6 -33 -24 -57h-463q-2 10 -2 30.5t2 30.5q6 33 24 58h164l84 415q-31 -39 -65.5 -77.5t-77.5 -70.5 t-94.5 -51.5t-112.5 -19.5q-80 0 -136.5 32t-92 85t-53 119.5t-17.5 138.5zM352 381q0 -43 7.5 -89t27 -84t53 -63.5t86.5 -25.5q76 0 145.5 58.5t124 147.5t87 194.5t32.5 197.5q0 109 -52 167t-130 58q-86 0 -156.5 -50t-119.5 -130t-77 -180.5t-28 -200.5z" />
<glyph unicode="r" horiz-adv-x="733" d="M190 0l185 920h-131q-2 10 -2 30.5t2 30.5q6 33 24 57h271l-52 -258q16 39 47 85t72 84t92.5 63.5t108.5 25.5q37 0 67.5 -9t49.5 -21l-64 -154q-14 8 -33.5 15.5t-56.5 7.5q-43 0 -92 -29t-95 -89.5t-85 -151.5t-64 -214l-78 -393h-166z" />
<glyph unicode="s" horiz-adv-x="976" d="M109 6l84 404q29 10 61 10q31 0 61 -10q-6 -41 -10 -60.5t-4 -42.5q0 -45 21.5 -83t57.5 -64.5t82 -41t93 -14.5q45 0 86 9.5t71.5 31t48 55t17.5 83.5q0 59 -41 98t-121 65l-147 48q-80 27 -141.5 87t-61.5 158q0 78 30 137.5t79 100.5t112.5 61.5t133.5 20.5 q68 0 116.5 -12.5t82.5 -31t53.5 -42t27.5 -45.5l21 108q33 12 57 13q37 0 65 -13l-73 -377q-27 -10 -62 -10q-33 0 -63 13q4 23 7 55.5t3 48.5q0 84 -56.5 129t-162.5 45q-98 0 -156.5 -49t-58.5 -133q0 -29 13 -50.5t35 -38t48.5 -26.5t52.5 -18l146 -43 q117 -35 174 -104.5t57 -164.5q0 -80 -28.5 -143.5t-82 -107.5t-128 -67.5t-164.5 -23.5q-47 0 -94.5 11.5t-86 32t-67.5 46t-41 54.5l-27 -109q-16 -8 -30.5 -10t-30.5 -2t-29.5 2t-29.5 10z" />
<glyph unicode="t" horiz-adv-x="647" d="M225 926v16q0 23 2 33q4 16 9.5 33.5t15.5 29.5h145l49 252l189 94l-72 -346h228q2 -8 2 -16v-16q0 -23 -2 -33q-4 -16 -9.5 -33.5t-15.5 -30.5h-229l-129 -643q-4 -14 -5.5 -27.5t-1.5 -35.5q0 -41 26 -60.5t67 -19.5q27 0 69.5 9t83.5 32l-26 -139q-37 -20 -81 -29.5 t-87 -9.5q-96 0 -156.5 54t-60.5 153v4q0 35 6 71l129 641h-144q-2 9 -2 17z" />
<glyph unicode="u" horiz-adv-x="1138" d="M219 205q0 18 3 55t11 72l142 588h-152q-2 10 -2 30.5t2 30.5q6 33 25 57h317l-147 -635q-10 -47 -17.5 -91t-7.5 -79q0 -55 26.5 -85.5t94.5 -30.5q49 0 106.5 41t111.5 114.5t99.5 177t71.5 230.5l74 358h166l-185 -919h132q2 -10 2 -30.5t-2 -31.5q-6 -33 -25 -57 h-270l55 279q-23 -43 -57.5 -96.5t-84 -100.5t-110.5 -79t-137 -32q-123 0 -182.5 65t-59.5 169z" />
<glyph unicode="v" horiz-adv-x="1058" d="M223 211q0 23 3 58.5t10 60.5l141 590h-133q-2 10 -2 30.5t2 30.5q6 33 24 57h299l-149 -637q-4 -12 -7 -32l-7 -43q-3 -23 -5 -45.5t-2 -40.5q0 -53 35 -91t109 -38q88 0 162.5 63.5t130 161.5t87 216t31.5 226q0 25 -3 68t-15 74h-141q-2 10 -2 30.5t2 30.5q6 33 24 57 h270q16 -35 25.5 -88t9.5 -123q0 -172 -50 -327.5t-138 -272t-205 -186.5t-250 -70q-129 0 -192.5 68t-63.5 172z" />
<glyph unicode="w" horiz-adv-x="1570" d="M223 211q0 23 4 59.5t11 61.5l139 588h-135q-2 10 -2 30.5t2 30.5q6 33 24 57h301l-149 -637q-4 -12 -7 -32l-7 -43q-3 -23 -5 -45.5t-2 -40.5q0 -53 30 -91t101 -38q76 0 133.5 58t99.5 142t68.5 176.5t40.5 159.5l78 391h166l-137 -680q-6 -33 -10 -61.5t-4 -52.5 q0 -61 25.5 -97t90.5 -36q84 0 154 65.5t121 163.5t78.5 212t27.5 212q0 57 -3 90t-9 66h-139q-2 10 -2 30.5t2 30.5q6 33 24 57h266q8 -20 14.5 -46.5t10.5 -54.5t6 -54.5t2 -46.5q0 -190 -49 -349t-133 -274t-193.5 -178.5t-228.5 -63.5q-98 0 -156.5 53.5t-58.5 131.5v17 q0 7 2 17q-12 -29 -42 -65.5t-73 -71.5t-96 -58.5t-112 -23.5q-139 0 -204 68t-65 172z" />
<glyph unicode="x" horiz-adv-x="1105" d="M59 30.5q0 20.5 2 30.5q6 33 25 58h92l402 409l-166 392h-150q-2 10 -2 30.5t2 30.5q6 33 25 57h241l166 -391l267 273h-113q-2 10 -2 30.5t2 30.5q6 33 24 57h363q2 -10 2 -30.5t-2 -30.5q-6 -33 -25 -57h-90l-379 -388l177 -413h165q2 -10 2 -30.5t-2 -31.5 q-6 -33 -24 -57h-258l-176 414l-289 -295h115q2 -10 2 -30.5t-2 -31.5q-6 -33 -25 -57h-367q-2 10 -2 30.5z" />
<glyph unicode="y" horiz-adv-x="983" d="M-2 -336l31 148q41 -23 77.5 -30t77.5 -7q68 0 154 65.5t170 194.5l-55 220l-64 237l-66.5 229t-66.5 199h-127q-2 10 -2 30.5t2 30.5q6 33 25 57h239q23 -55 55.5 -159.5l66.5 -224.5l66 -238q32 -119 52 -205q55 88 101 179t80 174t52.5 153.5t18.5 118.5q0 39 -1 55 t-5 29h-144q-2 10 -2 30.5t2 30.5q6 33 25 57h268q16 -35 20.5 -71.5t4.5 -69.5q0 -104 -44 -236.5t-113 -269.5t-153 -266t-165 -229q-53 -68 -103.5 -117t-103 -82t-108.5 -49.5t-120 -16.5q-47 0 -88 10.5t-57 22.5z" />
<glyph unicode="z" horiz-adv-x="880" d="M43 0l29 137l737 772h-422l-43 -211q-35 -12 -67.5 -12t-65.5 12l68 340h749l-29 -139l-737 -770h465l41 209q37 12 68 12q35 0 69 -12l-69 -338h-793z" />
<glyph unicode="{" horiz-adv-x="663" d="M193 543l26 127q33 0 66.5 18.5t61.5 52t49.5 79.5t31.5 102l76 374q25 123 93.5 189.5t168.5 66.5h125l-25 -127h-78q-63 0 -90.5 -48t-42.5 -115l-75 -375q-14 -74 -46 -125t-68 -84t-68.5 -49.5t-47.5 -20.5l-2 -4q16 -10 37 -25.5t39 -39t30.5 -54t12.5 -67.5 q0 -35 -2 -75t-10 -81l-64 -315l-8 -40q-4 -19 -4 -36q0 -39 19.5 -63.5t68.5 -24.5h70l-27 -127h-107q-86 0 -132 47t-46 115q0 35 2 55.5t6 38.5l68 373q4 23 8 49t4 67q0 57 -33.5 99.5t-86.5 42.5z" />
<glyph unicode="|" horiz-adv-x="516" d="M178 -37l320 1589h145l-319 -1589h-146z" />
<glyph unicode="}" horiz-adv-x="663" d="M16 -344l25 127h78q63 0 91 48t42 116l76 375q14 74 46 125t67.5 83.5t67.5 49t48 20.5l2 4q-16 8 -36.5 24.5t-39 40t-31 54.5t-12.5 68q0 35 2 74.5t11 80.5l63 316l8 40q4 19 4 35q0 39 -19.5 63.5t-68.5 24.5h-69l26 127h107q86 0 132 -47t46 -114q0 -35 -2 -55.5 t-6 -39.5l-68 -372q-4 -23 -8 -49.5t-4 -67.5q0 -57 34 -99t87 -42l-27 -127q-35 0 -67.5 -18.5t-60.5 -52.5t-49.5 -80t-31.5 -101l-76 -375q-25 -123 -93 -189.5t-169 -66.5h-125z" />
<glyph unicode="~" horiz-adv-x="1202" d="M84 319q59 186 153.5 277.5t217.5 91.5q27 0 49 -2t43.5 -8t45.5 -15l52 -22l189 -84q27 -12 59.5 -21.5t73.5 -9.5q74 0 118.5 49.5t83.5 145.5h125q-61 -186 -155.5 -277.5t-216.5 -91.5q-53 0 -93.5 12.5t-76.5 28.5l-207 90q-29 12 -61.5 21.5t-73.5 9.5 q-74 0 -119 -49t-84 -146h-123z" />
<glyph unicode="&#xa1;" horiz-adv-x="550" d="M57 -344l265 1006h143l-191 -1006h-217zM332 926q0 53 38 97t97 44q41 0 80 -31.5t39 -91.5q0 -63 -41 -105t-92 -42q-53 0 -87 35t-34 94z" />
<glyph unicode="&#xa2;" d="M260 559q0 92 28.5 206t90 214t156 171t225.5 79l35 170h118l-36 -180q63 -16 96 -46t47 -63l20 88q31 12 60 12q31 0 61 -12l-86 -416q-31 -12 -63.5 -12t-63.5 12q2 12 6 30.5t7.5 40t5.5 42t2 37.5q0 59 -28 104t-89 62l-162 -822q31 0 64.5 4.5t74.5 21.5t93.5 50 t117.5 92l-36 -184q-80 -72 -175.5 -98.5t-169.5 -26.5l-32 -168h-119l37 180q-145 31 -215 139.5t-70 272.5zM434 575q0 -96 33 -168.5t106 -107.5l162 805q-70 -12 -126 -64.5t-95 -126t-59.5 -163t-20.5 -175.5z" />
<glyph unicode="&#xa3;" d="M88 0l27 135q59 39 118.5 87t106.5 109.5t76.5 136.5t29.5 171v10h-221q-2 8 -2 17v16v18q0 8 2 17q4 16 9.5 34.5t15.5 32.5h186q-2 41 -3 81t-1 81q0 104 35 188.5t95.5 142.5t141 90t175.5 32q70 0 124 -10.5t97 -25.5t76.5 -32.5t62.5 -34.5l-37 -145 q-20 14 -52 32.5t-75 35t-93 27.5t-107.5 11t-107.5 -19t-87 -57t-58.5 -92.5t-21.5 -123.5q0 -72 2 -109t6 -72h387q2 -8 2 -16v-16v-19q0 -8 -2 -16l-9 -34.5t-15 -33.5h-353v-8q0 -80 -23.5 -151.5t-64.5 -135t-95 -117t-116 -96.5h558l47 242q16 6 36.5 8t38.5 2 q20 0 38 -4t38 -10l-76 -379h-911z" />
<glyph unicode="&#xa4;" horiz-adv-x="1077" d="M160 1102l98 98l117 -115q59 51 137 78t160 27t159.5 -26.5t137.5 -78.5l116 115l99 -98l-113 -111q53 -59 78 -140t25 -167t-25 -165t-78 -144l111 -115l-92 -92l-113 119q-61 -57 -140 -85t-165 -28t-165 27.5t-140 85.5l-113 -119l-92 92l110 115q-53 66 -77.5 144.5 t-24.5 164.5t24.5 167t77.5 140zM319 684q0 -74 28 -140.5t75 -116.5t111.5 -80t138.5 -30q106 0 192 62q88 61 124 146t36 159q0 104 -59 195q-57 92 -138.5 130t-154.5 38q-106 0 -195 -64q-88 -61 -123 -144t-35 -155z" />
<glyph unicode="&#xa5;" d="M162 352l20 103h355l34 168h-354l21 102h270l-170 512h-100q-4 20 -5 33q0 16 4.5 32.5l9.5 34t15 29.5h430v-12v-54q-4 -16 -9 -33.5t-15 -29.5h-162l168 -532l395 532h-160q-4 20 -4 33q0 16 4 32.5t9.5 34t15.5 29.5h430q4 -20 4 -33q0 -10 -1 -17t-3 -16 q-4 -16 -9 -33.5t-16 -29.5h-104l-391 -512h274l-20 -102h-365l-35 -168h365l-21 -103h-364l-45 -223h153q2 -10 2 -18v-17q0 -23 -2 -33q-6 -35 -22 -61h-457q-4 20 -4 33q0 16 4 32.5t9.5 34t15.5 29.5h139l45 223h-354z" />
<glyph unicode="&#xa6;" horiz-adv-x="516" d="M178 -37l107 529h145l-106 -529h-146zM391 1022l107 530h145l-106 -530h-146z" />
<glyph unicode="&#xa7;" horiz-adv-x="1138" d="M111 -225l32 176q16 -18 50 -48t83.5 -58.5t111 -49t134.5 -20.5q104 0 170 46t66 128q0 55 -23.5 103t-99.5 106l-264 196q-84 61 -119 133t-35 154q0 45 17.5 95t53.5 96.5t90 87.5t128 69q-31 37 -50.5 84t-19.5 107q0 82 34 147.5t91 110.5t134 68.5t165 23.5 q74 0 135.5 -15.5t108.5 -37t81 -43t52 -35.5l-35 -168q-23 18 -52.5 45t-72.5 51.5t-100 42t-133 17.5q-104 0 -168 -48.5t-64 -144.5q0 -51 29 -90t92 -84l262 -184q70 -49 115 -119t45 -158q0 -127 -83 -218t-212 -157q41 -51 58.5 -102t17.5 -109q0 -86 -38 -149.5 t-97.5 -106.5t-132 -64.5t-144.5 -21.5q-82 0 -146.5 14.5t-115.5 36t-87.5 46t-63.5 47.5zM387 672q0 -35 5 -62.5t19.5 -53.5t40 -51.5t68.5 -55.5l205 -150l49 -37q43 18 81 46t66.5 61.5t45 70.5t16.5 76q0 25 -4 49.5t-17.5 50t-39 54t-70.5 61.5l-250 184 q-98 -39 -156.5 -103t-58.5 -140z" />
<glyph unicode="&#xa8;" horiz-adv-x="700" d="M334 1290q0 51 31.5 84t72.5 33t69 -27.5t28 -74.5q0 -41 -30 -76t-77 -35q-33 0 -63.5 24.5t-30.5 71.5zM690 1290q0 51 32 84t73 33t68.5 -27.5t27.5 -74.5q0 -41 -30 -76t-77 -35q-33 0 -63.5 24.5t-30.5 71.5z" />
<glyph unicode="&#xa9;" horiz-adv-x="1759" d="M238 750q0 168 63.5 311t172 247.5t252.5 163t306 58.5q160 0 303.5 -58.5t252 -163t172 -247.5t63.5 -311q0 -170 -63.5 -314.5t-172 -249t-252 -164t-303.5 -59.5q-162 0 -306 59.5t-252.5 164t-172 249t-63.5 314.5zM395 750q0 -141 49.5 -261t135.5 -208 t201.5 -137.5t250.5 -49.5q133 0 249 49.5t201 137.5t134 207.5t49 261.5q0 139 -49 257.5t-134 205.5t-201 136.5t-249 49.5q-135 0 -250.5 -49.5t-201.5 -136.5t-135.5 -205.5t-49.5 -257.5zM608 737q0 90 25.5 176t76 154t125 109t173.5 41q127 0 213 -78v51 q18 8 32.5 10t24.5 2q12 0 26.5 -2t30.5 -10v-350q-20 -4 -33.5 -7.5t-27.5 -3.5q-12 0 -25.5 3.5t-34.5 7.5v67q0 80 -52 136.5t-156 56.5q-68 0 -116 -33t-79 -84t-45 -114.5t-14 -125.5q0 -92 23.5 -157.5t62.5 -107.5t89 -61.5t103 -19.5q55 0 100.5 16.5t82 41 t66.5 52.5t52 52v-162q-18 -18 -49 -38.5t-69.5 -39t-86 -31t-98.5 -12.5q-106 0 -185 37t-131.5 99.5t-78 146.5t-25.5 178z" />
<glyph unicode="&#xaa;" horiz-adv-x="798" d="M238 643l24 117h606l-24 -117h-606zM311 1081q0 117 39 205t101 154q47 47 102 68.5t109 21.5q37 0 84 -18.5t75 -67.5l43 67h80l-117 -559h80q2 -8 2 -15v-13q0 -16 -4 -29.5t-16 -30.5h-184l20 103q-33 -41 -87 -81t-132 -40q-51 0 -88 20.5t-60.5 54t-35 75.5 t-11.5 85zM440 1104q0 -27 4.5 -54.5t15.5 -49t30.5 -35t50.5 -13.5q43 0 86 35t75.5 87t53 114.5t20.5 120.5q0 61 -31.5 94t-74.5 33q-51 0 -93 -29t-73 -76t-47.5 -106.5t-16.5 -120.5z" />
<glyph unicode="&#xab;" horiz-adv-x="1003" d="M158 518l393 461h180l-403 -469l207 -453h-168zM575 518l394 461h180l-404 -469l207 -453h-168z" />
<glyph unicode="&#xac;" d="M176 813v145h1004v-546h-146v401h-858z" />
<glyph unicode="&#xad;" horiz-adv-x="661" d="M195 508q0 12 1 24.5t3 22.5q6 43 28 80h457q2 -10 3 -21.5t1 -21.5q0 -12 -1 -24.5t-3 -22.5q-6 -43 -29 -80h-456q-2 10 -3 21.5t-1 21.5z" />
<glyph unicode="&#xae;" horiz-adv-x="1759" d="M238 750q0 168 63.5 311t172 247.5t252.5 163t306 58.5q160 0 303.5 -58.5t252 -163t172 -247.5t63.5 -311q0 -170 -63.5 -314.5t-172 -249t-252 -164t-303.5 -59.5q-162 0 -306 59.5t-252.5 164t-172 249t-63.5 314.5zM395 750q0 -141 49.5 -261t135.5 -208 t201.5 -137.5t250.5 -49.5q133 0 249 49.5t201 137.5t134 207.5t49 261.5q0 139 -49 257.5t-134 205.5t-201 136.5t-249 49.5q-135 0 -250.5 -49.5t-201.5 -136.5t-135.5 -205.5t-49.5 -257.5zM645 354q0 12 2 24.5t10 29.5h86v686h-88q-6 18 -8 29.5t-2 23.5t2 23.5 t10 27.5h453q123 0 190.5 -72.5t67.5 -179.5q0 -35 -9 -71.5t-28.5 -71.5t-53.5 -62.5t-83 -42.5l158 -290h90q8 -31 8 -54q0 -20 -8 -51h-199l-188 383h-187v-278h109q8 -31 8 -54q0 -20 -8 -51h-320q-8 16 -10 28.5t-2 22.5zM868 797h203q76 0 119 34.5t43 114.5 q0 74 -42 107.5t-114 33.5h-209v-290z" />
<glyph unicode="&#xaf;" horiz-adv-x="700" d="M283 1235l26 133h629l-27 -133h-628z" />
<glyph unicode="&#xb0;" horiz-adv-x="819" d="M350 1193.5q0 63.5 22.5 119t62.5 95.5t95.5 62.5t119 22.5t118.5 -22.5t95 -62.5t62.5 -95.5t22.5 -119t-22.5 -118.5t-62.5 -95t-95 -62.5t-118.5 -22.5t-119 22.5t-95.5 62.5t-62.5 95t-22.5 118.5zM473 1194q0 -78 51 -131t125 -53t125 53t51 131t-51 131t-125 53 t-125 -53t-51 -131z" />
<glyph unicode="&#xb1;" d="M186 731v146h430v409h146v-414h428v-141h-428v-409h-146v409h-430zM190 82v145h1000v-145h-1000z" />
<glyph unicode="&#xb2;" horiz-adv-x="733" d="M152 684q18 78 58 134t94 101.5t119 84.5l130 79q39 23 75 53.5t36 77.5q0 33 -25 53.5t-76 20.5q-68 0 -128 -27.5t-140 -86.5l24 139q47 29 108.5 57.5t143.5 28.5q109 0 176.5 -45t67.5 -127q0 -53 -24.5 -93t-63.5 -73q-43 -37 -97 -69l-109 -64q-54 -33 -101 -66 t-78 -71h270l23 96q14 6 30.5 8t33 2t35 -4t32.5 -8l-43 -201h-571z" />
<glyph unicode="&#xb3;" horiz-adv-x="733" d="M211 743l25 125q47 -39 101 -62.5t126 -23.5q74 0 124 36t50 102q0 51 -41 64t-90 13h-51q-8 23 -9 41q0 31 25 68h66q25 0 49 7t44.5 20.5t34 33t13.5 45.5q0 33 -22.5 54.5t-90.5 21.5q-66 0 -131 -27.5t-112 -62.5l30 131q47 27 113.5 48.5t138.5 21.5q98 0 159.5 -44 t61.5 -114q0 -72 -40 -118t-91 -70q45 -20 67.5 -53t22.5 -87q0 -41 -18 -84t-57 -78.5t-99.5 -58t-146.5 -22.5q-88 0 -152.5 23t-99.5 50z" />
<glyph unicode="&#xb4;" horiz-adv-x="700" d="M393 1178l234 278h213l-303 -278h-144z" />
<glyph unicode="&#xb5;" horiz-adv-x="1214" d="M109 -344l256 1264h-152q-2 10 -2 30.5t2 30.5q6 33 25 57h317l-127 -635q-10 -47 -17.5 -91t-7.5 -79q0 -55 24 -85.5t87 -30.5q55 0 113.5 44t112 119.5t95.5 173t64 205.5l78 379h166l-185 -919h132q2 -10 2 -30.5t-2 -31.5q-6 -33 -25 -57h-270l55 279 q-18 -37 -53 -90.5t-82 -101.5t-106.5 -82t-125.5 -34q-57 0 -89 22.5t-40 37.5l-75 -375h-170z" />
<glyph unicode="&#xb6;" horiz-adv-x="1241" d="M283 1049q0 106 41 189t112.5 140.5t168.5 86t208 28.5h545l-373 -1862h-160l349 1735h-234l-348 -1735h-160l219 1096q-178 6 -273 95.5t-95 226.5z" />
<glyph unicode="&#xb7;" horiz-adv-x="550" d="M324 674q0 63 41 105t92 42q53 0 87 -34.5t34 -94.5q0 -53 -38 -97t-98 -44q-41 0 -79.5 32t-38.5 91z" />
<glyph unicode="&#xb8;" horiz-adv-x="700" d="M61 -403l39 79q35 -16 62.5 -23t64.5 -7q18 0 41 4t42.5 15t32.5 28.5t13 46.5q0 41 -24.5 56.5t-55.5 15.5q-33 0 -79 -21l-27 39l162 170h106l-110 -119q10 2 20 3t25 1q72 0 104.5 -37.5t32.5 -93.5q0 -43 -21.5 -79.5t-58.5 -63.5t-87 -42t-105.5 -15t-98.5 13.5 t-78 29.5z" />
<glyph unicode="&#xb9;" horiz-adv-x="733" d="M287 721q0 31 22 70h144l100 489h-137q-6 20 -6 41q0 37 24 63h279l-123 -593h127q6 -25 6 -41q0 -35 -23 -66h-407q-6 21 -6 37z" />
<glyph unicode="&#xba;" horiz-adv-x="788" d="M238 643l24 119h606l-24 -119h-606zM338 1116q0 63 21.5 136t65.5 134.5t110.5 102.5t156.5 41q74 0 121 -25.5t76 -64.5t40 -82t11 -80q0 -80 -23.5 -157t-69.5 -137t-111.5 -98t-147.5 -38q-111 0 -180.5 71.5t-69.5 196.5zM461 1122q0 -76 29.5 -125t109.5 -49 q61 0 102 36t67 86t37 105.5t11 92.5q0 20 -4 49t-18.5 54.5t-41 43t-71.5 17.5q-63 0 -105 -37t-68 -88.5t-37 -102.5t-11 -82z" />
<glyph unicode="&#xbb;" horiz-adv-x="1003" d="M61 57l404 469l-207 453h168l209 -461l-393 -461h-181zM479 57l404 469l-207 453h168l209 -461l-394 -461h-180z" />
<glyph unicode="&#xbc;" horiz-adv-x="1765" d="M297 721q0 31 22 70h144l100 489h-137q-6 20 -6 41q0 37 24 63h279l-123 -593h127q6 -25 6 -41q0 -35 -22 -66h-408q-6 21 -6 37zM326 -33l1079 1432h154l-1080 -1432h-153zM950 141l27 115l446 436h125l-92 -448h105q2 -4 3 -14.5t1 -18.5q0 -27 -9 -44l-12 -26h-108 l-31 -157h-137l30 157h-348zM1104 244h215l53 266z" />
<glyph unicode="&#xbd;" horiz-adv-x="1765" d="M287 721q0 31 22 70h144l100 489h-137q-6 20 -6 41q0 37 24 63h279l-123 -593h127q6 -25 6 -41q0 -35 -23 -66h-407q-6 21 -6 37zM315 -33l1080 1432h153l-1079 -1432h-154zM958 -16q18 78 58.5 134t94.5 101t119 84l130 80q39 23 74.5 53.5t35.5 77.5q0 33 -24.5 53.5 t-75.5 20.5q-68 0 -128 -28t-140 -87l24 139q47 29 108.5 57.5t143.5 28.5q109 0 176.5 -45t67.5 -127q0 -53 -24.5 -93t-63.5 -73q-43 -37 -97 -68l-109 -65q-54 -33 -101 -65.5t-78 -71.5h270l23 96q14 6 30.5 8.5t33 2.5t35 -4.5t32.5 -8.5l-43 -200h-572z" />
<glyph unicode="&#xbe;" horiz-adv-x="1765" d="M293 743l24 125q47 -39 101.5 -62.5t126.5 -23.5q74 0 124 36t50 102q0 51 -41 64t-90 13h-51q-8 23 -9 41q0 31 25 68h65q25 0 49.5 7t45 20.5t34 33t13.5 45.5q0 33 -22.5 54.5t-90.5 21.5q-66 0 -131 -27.5t-113 -62.5l31 131q47 27 113.5 48.5t138.5 21.5 q98 0 159.5 -44t61.5 -114q0 -72 -40 -118t-91 -70q45 -20 67.5 -53t22.5 -87q0 -41 -18.5 -84t-57 -78.5t-99 -58t-146.5 -22.5q-88 0 -152.5 23t-99.5 50zM377 -33l1079 1432h154l-1080 -1432h-153zM1001 141l27 115l447 436h124l-92 -448h105q2 -4 3 -14.5t1 -18.5 q0 -27 -8 -44l-13 -26h-108l-31 -157h-137l31 157h-349zM1155 244h215l53 266z" />
<glyph unicode="&#xbf;" horiz-adv-x="1103" d="M137 -68q0 76 21.5 135.5t60.5 111.5t92.5 100.5t116.5 97.5q82 63 128 106t70.5 77t36 64.5t21.5 67.5h174q-12 -49 -26.5 -92t-44 -88t-79 -93t-130.5 -110l-110 -86q-48 -39 -81 -79t-49 -84t-16 -99q0 -31 10 -63.5t34.5 -60t67.5 -45t111 -17.5q57 0 115.5 16 t114.5 45t107.5 67t98.5 81l-35 -183q-37 -29 -82 -58.5t-100 -54t-120.5 -41t-141.5 -16.5q-92 0 -161 28t-114 72t-67.5 97t-22.5 104zM682 926q0 53 38 97t97 44q41 0 80 -31.5t39 -91.5q0 -63 -41 -105t-92 -42q-53 0 -87 35t-34 94z" />
<glyph unicode="&#xc0;" horiz-adv-x="1458" d="M25 18v19v16q0 8 2 17q6 37 22 63h133l748 1378h190l174 -1378h131q2 -10 2 -18v-19v-16q0 -8 -2 -17q-6 -37 -22 -63h-483q-2 10 -2 18v19v16q0 8 2 17q6 37 22 63h176l-41 346h-553l-184 -346h158q2 -10 2 -18v-19v-16q0 -8 -2 -17q-6 -37 -23 -63h-448q-2 10 -2 18z M600 618h459l-55 472q-2 14 -5.5 46.5l-7.5 70.5t-7 77t-3 68q-25 -57 -62 -131l-69 -131zM778 1890h213l123 -278h-133z" />
<glyph unicode="&#xc1;" horiz-adv-x="1458" d="M25 18v19v16q0 8 2 17q6 37 22 63h133l748 1378h190l174 -1378h131q2 -10 2 -18v-19v-16q0 -8 -2 -17q-6 -37 -22 -63h-483q-2 10 -2 18v19v16q0 8 2 17q6 37 22 63h176l-41 346h-553l-184 -346h158q2 -10 2 -18v-19v-16q0 -8 -2 -17q-6 -37 -23 -63h-448q-2 10 -2 18z M600 618h459l-55 472q-2 14 -5.5 46.5l-7.5 70.5t-7 77t-3 68q-25 -57 -62 -131l-69 -131zM954 1612l234 278h213l-303 -278h-144z" />
<glyph unicode="&#xc2;" horiz-adv-x="1458" d="M25 18v19v16q0 8 2 17q6 37 22 63h133l748 1378h190l174 -1378h131q2 -10 2 -18v-19v-16q0 -8 -2 -17q-6 -37 -22 -63h-483q-2 10 -2 18v19v16q0 8 2 17q6 37 22 63h176l-41 346h-553l-184 -346h158q2 -10 2 -18v-19v-16q0 -8 -2 -17q-6 -37 -23 -63h-448q-2 10 -2 18z M600 618h459l-55 472q-2 14 -5.5 46.5l-7.5 70.5t-7 77t-3 68q-25 -57 -62 -131l-69 -131zM743 1612l252 278h176l142 -278h-146l-98 196l-178 -196h-148z" />
<glyph unicode="&#xc3;" horiz-adv-x="1458" d="M25 18v19v16q0 8 2 17q6 37 22 63h133l748 1378h190l174 -1378h131q2 -10 2 -18v-19v-16q0 -8 -2 -17q-6 -37 -22 -63h-483q-2 10 -2 18v19v16q0 8 2 17q6 37 22 63h176l-41 346h-553l-184 -346h158q2 -10 2 -18v-19v-16q0 -8 -2 -17q-6 -37 -23 -63h-448q-2 10 -2 18z M600 618h459l-55 472q-2 14 -5.5 46.5l-7.5 70.5t-7 77t-3 68q-25 -57 -62 -131l-69 -131zM674 1642q31 90 91 155t163 65q61 0 96 -16l80 -34q43 -16 61.5 -21t38.5 -5q23 0 39.5 9t28.5 23.5t20 30t15 25.5h112q-16 -45 -38.5 -85t-53.5 -69.5t-70.5 -47t-91.5 -17.5 q-41 0 -76.5 13t-84.5 34q-47 20 -68 25.5t-49 5.5q-23 0 -39.5 -10.5t-28.5 -25t-20 -29.5t-13 -26h-112z" />
<glyph unicode="&#xc4;" horiz-adv-x="1458" d="M25 18v19v16q0 8 2 17q6 37 22 63h133l748 1378h190l174 -1378h131q2 -10 2 -18v-19v-16q0 -8 -2 -17q-6 -37 -22 -63h-483q-2 10 -2 18v19v16q0 8 2 17q6 37 22 63h176l-41 346h-553l-184 -346h158q2 -10 2 -18v-19v-16q0 -8 -2 -17q-6 -37 -23 -63h-448q-2 10 -2 18z M600 618h459l-55 472q-2 14 -5.5 46.5l-7.5 70.5t-7 77t-3 68q-25 -57 -62 -131l-69 -131zM743 1724q0 51 32 84t73 33t68.5 -27.5t27.5 -74.5q0 -41 -29.5 -76t-76.5 -35q-33 0 -64 24.5t-31 71.5zM1100 1724q0 51 31.5 84t72.5 33t68.5 -27.5t27.5 -74.5q0 -41 -29.5 -76 t-76.5 -35q-33 0 -63.5 24.5t-30.5 71.5z" />
<glyph unicode="&#xc5;" horiz-adv-x="1458" d="M25 18v19v16q0 8 2 17q6 37 22 63h133l723 1331q-41 29 -65.5 75t-24.5 99q0 43 16.5 82t46 69t68.5 46t82 16t82 -16t68.5 -46t46 -69t16.5 -82q0 -59 -31.5 -109t-81.5 -79l166 -1317h131q2 -10 2 -18v-19v-16q0 -8 -2 -17q-6 -37 -22 -63h-483q-2 10 -2 18v19v16 q0 8 2 17q6 37 22 63h176l-41 346h-553l-184 -346h158q2 -10 2 -18v-19v-16q0 -8 -2 -17q-6 -37 -23 -63h-448q-2 10 -2 18zM600 618h459l-55 472q-2 14 -5.5 46.5l-7.5 70.5t-7 77t-3 68q-25 -57 -62 -131l-69 -131zM903 1638.5q0 -49.5 38 -87.5t87 -38t87 38t38 87.5 t-38 87t-87 37.5t-87 -37.5t-38 -87z" />
<glyph unicode="&#xc6;" horiz-adv-x="2033" d="M12 18v19v16q0 8 2 17q6 37 23 63h135l829 1227h-190q-2 10 -2 18v19v16q0 9 2 17q6 37 23 63h1374l-88 -438q-18 -6 -38 -8.5t-38 -2.5q-20 0 -38.5 4.5t-39.5 10.5l62 287h-572l-102 -504h559q4 -10 4 -23v-24v-19q0 -8 -2 -16q-4 -16 -9 -32.5t-16 -33.5h-567 l-109 -547h580l61 297q18 6 38 8.5t38 2.5q20 0 39 -4.5t39 -10.5l-88 -440h-1063q-2 10 -2 18v19v16q0 8 2 17q6 37 23 63h151l74 369h-522l-246 -369h180q2 -10 2 -18v-19v-16q0 -8 -2 -17q-6 -37 -22 -63h-482q-2 10 -2 18zM678 643h457l143 703h-131z" />
<glyph unicode="&#xc7;" horiz-adv-x="1392" d="M233 557q0 190 57.5 366.5t161 310.5t248 215t320.5 81q117 0 212 -40t148 -132l31 137q37 12 70 12q23 0 41 -4t34 -8l-116 -575q-37 -12 -74 -13q-45 0 -80 15q10 66 18.5 107.5t8.5 82.5q0 55 -16.5 104.5t-52.5 86t-92 57t-136 20.5q-133 0 -241.5 -67.5t-185.5 -178 t-119 -254t-42 -294.5q0 -104 25.5 -189.5t76 -146t122 -94t163.5 -33.5q80 0 152.5 20.5t136 53t119 74.5t100.5 83l-45 -237q-72 -53 -189.5 -100.5t-263.5 -51.5l-75 -84q10 2 20 3t25 1q72 0 104.5 -37.5t32.5 -93.5q0 -43 -21.5 -79.5t-58.5 -63.5t-87 -42t-105.5 -15 t-98.5 13t-78 30l39 79q35 -16 62.5 -23t64.5 -7q18 0 41 4t42.5 15t32.5 28.5t13 46.5q0 41 -24.5 56.5t-55.5 15.5q-33 0 -80 -21l-26 39l129 137q-141 12 -235.5 73.5t-150.5 147.5t-79 184.5t-23 184.5z" />
<glyph unicode="&#xc8;" horiz-adv-x="1251" d="M66 18v19v16q0 8 2 17q6 37 22 63h152l247 1227h-147q-2 10 -2 18v19v16q0 8 2 17q6 37 23 63h1069l-88 -438q-18 -6 -38 -8.5t-38 -2.5q-20 0 -39 4.5t-39 10.5l61 287h-587l-103 -504h584q4 -10 4 -23v-24v-19q0 -8 -2 -16q-4 -16 -9 -32.5t-16 -33.5h-592l-108 -547 h596l61 297q18 6 38 8.5t38 2.5q20 0 38.5 -4.5t39.5 -10.5l-88 -440h-1079q-2 10 -2 18zM762 1890h213l123 -278h-133z" />
<glyph unicode="&#xc9;" horiz-adv-x="1251" d="M66 18v19v16q0 8 2 17q6 37 22 63h152l247 1227h-147q-2 10 -2 18v19v16q0 8 2 17q6 37 23 63h1069l-88 -438q-18 -6 -38 -8.5t-38 -2.5q-20 0 -39 4.5t-39 10.5l61 287h-587l-103 -504h584q4 -10 4 -23v-24v-19q0 -8 -2 -16q-4 -16 -9 -32.5t-16 -33.5h-592l-108 -547 h596l61 297q18 6 38 8.5t38 2.5q20 0 38.5 -4.5t39.5 -10.5l-88 -440h-1079q-2 10 -2 18zM872 1612l234 278h213l-303 -278h-144z" />
<glyph unicode="&#xca;" horiz-adv-x="1251" d="M66 18v19v16q0 8 2 17q6 37 22 63h152l247 1227h-147q-2 10 -2 18v19v16q0 8 2 17q6 37 23 63h1069l-88 -438q-18 -6 -38 -8.5t-38 -2.5q-20 0 -39 4.5t-39 10.5l61 287h-587l-103 -504h584q4 -10 4 -23v-24v-19q0 -8 -2 -16q-4 -16 -9 -32.5t-16 -33.5h-592l-108 -547 h596l61 297q18 6 38 8.5t38 2.5q20 0 38.5 -4.5t39.5 -10.5l-88 -440h-1079q-2 10 -2 18zM662 1612l251 278h177l141 -278h-146l-98 196l-178 -196h-147z" />
<glyph unicode="&#xcb;" horiz-adv-x="1251" d="M66 18v19v16q0 8 2 17q6 37 22 63h152l247 1227h-147q-2 10 -2 18v19v16q0 8 2 17q6 37 23 63h1069l-88 -438q-18 -6 -38 -8.5t-38 -2.5q-20 0 -39 4.5t-39 10.5l61 287h-587l-103 -504h584q4 -10 4 -23v-24v-19q0 -8 -2 -16q-4 -16 -9 -32.5t-16 -33.5h-592l-108 -547 h596l61 297q18 6 38 8.5t38 2.5q20 0 38.5 -4.5t39.5 -10.5l-88 -440h-1079q-2 10 -2 18zM670 1724q0 51 31.5 84t72.5 33t68.5 -27.5t27.5 -74.5q0 -41 -29.5 -76t-76.5 -35q-33 0 -63.5 24.5t-30.5 71.5zM1026 1724q0 51 32 84t72.5 33t68.5 -27.5t28 -74.5q0 -41 -30 -76 t-77 -35q-33 0 -63.5 24.5t-30.5 71.5z" />
<glyph unicode="&#xcc;" horiz-adv-x="645" d="M82 18v19v16q0 8 2 17q6 37 22 63h152l248 1227h-148q-2 10 -2 18v19v16q0 8 2 17q6 37 23 63h479q2 -10 2 -18v-19v-16q0 -8 -2 -17q-6 -37 -22 -63h-154l-246 -1227h148q2 -10 2 -18v-19v-16q0 -8 -2 -17q-6 -37 -23 -63h-479q-2 10 -2 18zM412 1890h213l123 -278h-134 z" />
<glyph unicode="&#xcd;" horiz-adv-x="645" d="M82 18v19v16q0 8 2 17q6 37 22 63h152l248 1227h-148q-2 10 -2 18v19v16q0 8 2 17q6 37 23 63h479q2 -10 2 -18v-19v-16q0 -8 -2 -17q-6 -37 -22 -63h-154l-246 -1227h148q2 -10 2 -18v-19v-16q0 -8 -2 -17q-6 -37 -23 -63h-479q-2 10 -2 18zM569 1612l234 278h213 l-303 -278h-144z" />
<glyph unicode="&#xce;" horiz-adv-x="645" d="M82 18v19v16q0 8 2 17q6 37 22 63h152l248 1227h-148q-2 10 -2 18v19v16q0 8 2 17q6 37 23 63h479q2 -10 2 -18v-19v-16q0 -8 -2 -17q-6 -37 -22 -63h-154l-246 -1227h148q2 -10 2 -18v-19v-16q0 -8 -2 -17q-6 -37 -23 -63h-479q-2 10 -2 18zM346 1612l252 278h176 l141 -278h-145l-98 196l-178 -196h-148z" />
<glyph unicode="&#xcf;" horiz-adv-x="645" d="M82 18v19v16q0 8 2 17q6 37 22 63h152l248 1227h-148q-2 10 -2 18v19v16q0 8 2 17q6 37 23 63h479q2 -10 2 -18v-19v-16q0 -8 -2 -17q-6 -37 -22 -63h-154l-246 -1227h148q2 -10 2 -18v-19v-16q0 -8 -2 -17q-6 -37 -23 -63h-479q-2 10 -2 18zM373 1724q0 51 31.5 84 t72.5 33t68.5 -27.5t27.5 -74.5q0 -41 -29.5 -76t-76.5 -35q-33 0 -63.5 24.5t-30.5 71.5zM729 1724q0 51 32 84t72.5 33t68.5 -27.5t28 -74.5q0 -41 -30 -76t-77 -35q-33 0 -63.5 24.5t-30.5 71.5z" />
<glyph unicode="&#xd0;" horiz-adv-x="1431" d="M66 18v19v16q0 8 2 17q6 37 22 63h152l114 569h-161l26 134h162l106 524h-147q-2 10 -2 18v19v16q0 8 2 17q6 37 23 63h573q174 0 284.5 -51t172 -132t84 -179.5t22.5 -190.5q0 -256 -76.5 -442.5t-218.5 -315.5q-96 -86 -220 -134t-265 -48h-653q-2 10 -2 18zM422 147 h315q123 0 226.5 55.5t179.5 157t119 242.5t43 311q0 88 -18.5 166t-62.5 137.5t-116 94.5t-178 35h-266l-103 -510h320l-27 -134h-319z" />
<glyph unicode="&#xd1;" horiz-adv-x="1472" d="M66 18v19v16q0 8 2 17q6 37 22 63h152l247 1227h-147q-2 10 -2 18v19v16q0 8 2 17q6 37 23 63h358l364 -1051q6 -18 15 -50l17 -68l18 -74l14 -66l13 80q7 43 15 80l12 65q5 28 7 33l178 918h-143q-2 10 -2 18v19v16q0 8 2 17q6 37 22 63h453q2 -10 2 -18v-19v-16 q0 -8 -2 -17q-6 -37 -22 -63h-154l-270 -1378h-183l-385 1110q-16 49 -35.5 123.5t-29.5 144.5q-18 -150 -49 -305l-183 -922h148q2 -10 2 -18v-19v-16q0 -8 -2 -17q-6 -37 -23 -63h-454q-2 10 -2 18zM729 1642q31 90 91.5 155t162.5 65q61 0 96 -16l80 -34q43 -16 61.5 -21 t39.5 -5q23 0 39 9t28 23.5t20.5 30t14.5 25.5h113q-16 -45 -39 -85t-53.5 -69.5t-70.5 -47t-91 -17.5q-41 0 -77 13t-85 34q-47 20 -67.5 25.5t-49.5 5.5q-23 0 -39 -10.5t-28.5 -25t-20.5 -29.5t-12 -26h-113z" />
<glyph unicode="&#xd2;" horiz-adv-x="1523" d="M238 592q0 106 22.5 218t67.5 216t111.5 196.5t153.5 160t194.5 107.5t234.5 40q143 0 248.5 -45t176.5 -126t105.5 -192.5t34.5 -242.5q0 -172 -49 -344t-148.5 -309.5t-247 -222.5t-343.5 -85q-158 0 -265.5 57.5t-173 147.5t-94 201.5t-28.5 222.5zM434 575 q0 -135 35 -225t89 -143t122 -74.5t133 -21.5q113 0 217.5 60t184 170t128 261.5t48.5 333.5q0 80 -20.5 160t-65.5 143.5t-119 103t-180 39.5q-125 0 -229.5 -63.5t-180.5 -173t-119 -256t-43 -314.5zM899 1890h213l123 -278h-133z" />
<glyph unicode="&#xd3;" horiz-adv-x="1523" d="M238 592q0 106 22.5 218t67.5 216t111.5 196.5t153.5 160t194.5 107.5t234.5 40q143 0 248.5 -45t176.5 -126t105.5 -192.5t34.5 -242.5q0 -172 -49 -344t-148.5 -309.5t-247 -222.5t-343.5 -85q-158 0 -265.5 57.5t-173 147.5t-94 201.5t-28.5 222.5zM434 575 q0 -135 35 -225t89 -143t122 -74.5t133 -21.5q113 0 217.5 60t184 170t128 261.5t48.5 333.5q0 80 -20.5 160t-65.5 143.5t-119 103t-180 39.5q-125 0 -229.5 -63.5t-180.5 -173t-119 -256t-43 -314.5zM969 1612l233 278h213l-303 -278h-143z" />
<glyph unicode="&#xd4;" horiz-adv-x="1523" d="M238 592q0 106 22.5 218t67.5 216t111.5 196.5t153.5 160t194.5 107.5t234.5 40q143 0 248.5 -45t176.5 -126t105.5 -192.5t34.5 -242.5q0 -172 -49 -344t-148.5 -309.5t-247 -222.5t-343.5 -85q-158 0 -265.5 57.5t-173 147.5t-94 201.5t-28.5 222.5zM434 575 q0 -135 35 -225t89 -143t122 -74.5t133 -21.5q113 0 217.5 60t184 170t128 261.5t48.5 333.5q0 80 -20.5 160t-65.5 143.5t-119 103t-180 39.5q-125 0 -229.5 -63.5t-180.5 -173t-119 -256t-43 -314.5zM797 1612l252 278h176l141 -278h-145l-99 196l-178 -196h-147z" />
<glyph unicode="&#xd5;" horiz-adv-x="1523" d="M238 592q0 106 22.5 218t67.5 216t111.5 196.5t153.5 160t194.5 107.5t234.5 40q143 0 248.5 -45t176.5 -126t105.5 -192.5t34.5 -242.5q0 -172 -49 -344t-148.5 -309.5t-247 -222.5t-343.5 -85q-158 0 -265.5 57.5t-173 147.5t-94 201.5t-28.5 222.5zM434 575 q0 -135 35 -225t89 -143t122 -74.5t133 -21.5q113 0 217.5 60t184 170t128 261.5t48.5 333.5q0 80 -20.5 160t-65.5 143.5t-119 103t-180 39.5q-125 0 -229.5 -63.5t-180.5 -173t-119 -256t-43 -314.5zM737 1642q31 90 91.5 155t162.5 65q61 0 96 -16l80 -34 q43 -16 61.5 -21t39.5 -5q23 0 39 9t28.5 23.5t20.5 30t14 25.5h113q-16 -45 -39 -85t-53.5 -69.5t-70.5 -47t-91 -17.5q-41 0 -77 13t-85 34q-47 20 -67.5 25.5t-49.5 5.5q-23 0 -39 -10.5t-28.5 -25t-20.5 -29.5t-12 -26h-113z" />
<glyph unicode="&#xd6;" horiz-adv-x="1523" d="M238 592q0 106 22.5 218t67.5 216t111.5 196.5t153.5 160t194.5 107.5t234.5 40q143 0 248.5 -45t176.5 -126t105.5 -192.5t34.5 -242.5q0 -172 -49 -344t-148.5 -309.5t-247 -222.5t-343.5 -85q-158 0 -265.5 57.5t-173 147.5t-94 201.5t-28.5 222.5zM434 575 q0 -135 35 -225t89 -143t122 -74.5t133 -21.5q113 0 217.5 60t184 170t128 261.5t48.5 333.5q0 80 -20.5 160t-65.5 143.5t-119 103t-180 39.5q-125 0 -229.5 -63.5t-180.5 -173t-119 -256t-43 -314.5zM827 1724q0 51 32 84t73 33t68.5 -27.5t27.5 -74.5q0 -41 -29.5 -76 t-76.5 -35q-33 0 -64 24.5t-31 71.5zM1184 1724q0 51 31.5 84t72.5 33t68.5 -27.5t27.5 -74.5q0 -41 -29.5 -76t-76.5 -35q-33 0 -63.5 24.5t-30.5 71.5z" />
<glyph unicode="&#xd7;" d="M260 371l313 313l-313 313l102 105l316 -314l313 314l99 -98l-314 -314l314 -315l-105 -103l-313 314l-314 -314z" />
<glyph unicode="&#xd8;" horiz-adv-x="1523" d="M129 29l197 194q-47 84 -67.5 179.5t-20.5 189.5q0 106 22.5 218t67.5 216t111.5 196.5t153.5 160t194.5 107.5t234.5 40q147 0 257 -49t181 -138l182 181l99 -99l-209 -206q55 -127 55 -295q0 -172 -49 -344t-148.5 -309.5t-247 -222.5t-343.5 -85q-129 0 -225.5 40 t-163.5 108l-183 -181zM434 575q0 -63 8.5 -116t22.5 -99l860 848q-43 76 -121 125t-198 49q-125 0 -229.5 -63.5t-180.5 -173t-119 -256t-43 -314.5zM535 233q57 -70 131.5 -96t146.5 -26q113 0 217.5 60t184 170t128 261.5t48.5 333.5q0 33 -3.5 65.5t-11.5 65.5z" />
<glyph unicode="&#xd9;" horiz-adv-x="1474" d="M293 379q0 29 4 62.5t8 58.5l172 860h-139q-2 10 -2 18v19v16q0 8 2 17q6 37 22 63h478q2 -10 2 -18v-19v-16q0 -8 -2 -17q-6 -37 -23 -63h-160l-168 -842q-4 -16 -9 -53t-5 -70q0 -82 27.5 -136t71.5 -86t100.5 -45t113.5 -13q82 0 155 24.5t130 79.5q37 35 73 101.5 t60 187.5l170 852h-149q-2 10 -2 18v19v16q0 8 2 17q6 37 22 63h465q2 -10 2 -18v-19v-16q0 -8 -2 -17q-6 -37 -22 -63h-150l-176 -887q-8 -37 -20.5 -80t-31 -88t-45 -88t-63.5 -80q-76 -80 -185.5 -127t-254.5 -47q-121 0 -209 31t-146.5 85t-87 131t-28.5 169zM823 1890 h213l123 -278h-133z" />
<glyph unicode="&#xda;" horiz-adv-x="1474" d="M293 379q0 29 4 62.5t8 58.5l172 860h-139q-2 10 -2 18v19v16q0 8 2 17q6 37 22 63h478q2 -10 2 -18v-19v-16q0 -8 -2 -17q-6 -37 -23 -63h-160l-168 -842q-4 -16 -9 -53t-5 -70q0 -82 27.5 -136t71.5 -86t100.5 -45t113.5 -13q82 0 155 24.5t130 79.5q37 35 73 101.5 t60 187.5l170 852h-149q-2 10 -2 18v19v16q0 8 2 17q6 37 22 63h465q2 -10 2 -18v-19v-16q0 -8 -2 -17q-6 -37 -22 -63h-150l-176 -887q-8 -37 -20.5 -80t-31 -88t-45 -88t-63.5 -80q-76 -80 -185.5 -127t-254.5 -47q-121 0 -209 31t-146.5 85t-87 131t-28.5 169zM965 1612 l233 278h213l-303 -278h-143z" />
<glyph unicode="&#xdb;" horiz-adv-x="1474" d="M293 379q0 29 4 62.5t8 58.5l172 860h-139q-2 10 -2 18v19v16q0 8 2 17q6 37 22 63h478q2 -10 2 -18v-19v-16q0 -8 -2 -17q-6 -37 -23 -63h-160l-168 -842q-4 -16 -9 -53t-5 -70q0 -82 27.5 -136t71.5 -86t100.5 -45t113.5 -13q82 0 155 24.5t130 79.5q37 35 73 101.5 t60 187.5l170 852h-149q-2 10 -2 18v19v16q0 8 2 17q6 37 22 63h465q2 -10 2 -18v-19v-16q0 -8 -2 -17q-6 -37 -22 -63h-150l-176 -887q-8 -37 -20.5 -80t-31 -88t-45 -88t-63.5 -80q-76 -80 -185.5 -127t-254.5 -47q-121 0 -209 31t-146.5 85t-87 131t-28.5 169zM772 1612 l252 278h176l141 -278h-145l-98 196l-178 -196h-148z" />
<glyph unicode="&#xdc;" horiz-adv-x="1474" d="M293 379q0 29 4 62.5t8 58.5l172 860h-139q-2 10 -2 18v19v16q0 8 2 17q6 37 22 63h478q2 -10 2 -18v-19v-16q0 -8 -2 -17q-6 -37 -23 -63h-160l-168 -842q-4 -16 -9 -53t-5 -70q0 -82 27.5 -136t71.5 -86t100.5 -45t113.5 -13q82 0 155 24.5t130 79.5q37 35 73 101.5 t60 187.5l170 852h-149q-2 10 -2 18v19v16q0 8 2 17q6 37 22 63h465q2 -10 2 -18v-19v-16q0 -8 -2 -17q-6 -37 -22 -63h-150l-176 -887q-8 -37 -20.5 -80t-31 -88t-45 -88t-63.5 -80q-76 -80 -185.5 -127t-254.5 -47q-121 0 -209 31t-146.5 85t-87 131t-28.5 169zM782 1724 q0 51 32 84t73 33t68.5 -27.5t27.5 -74.5q0 -41 -29.5 -76t-76.5 -35q-33 0 -64 24.5t-31 71.5zM1139 1724q0 51 31.5 84t72.5 33t68.5 -27.5t27.5 -74.5q0 -41 -29.5 -76t-76.5 -35q-33 0 -63.5 24.5t-30.5 71.5z" />
<glyph unicode="&#xdd;" horiz-adv-x="1400" d="M299 1378v19v16q0 8 2 17q6 37 23 63h473q2 -10 2 -18v-19v-16q0 -8 -2 -17q-6 -37 -23 -63h-184l250 -621l520 621h-178q-2 10 -2 18v19v16q0 8 2 17q6 37 22 63h471q2 -10 2 -18v-19v-16q0 -8 -2 -17q-6 -37 -22 -63h-111l-639 -760l-94 -467h168q2 -10 2 -18v-19v-16 q0 -8 -2 -17q-6 -37 -23 -63h-499q-2 10 -2 18v19v16q0 8 2 17q6 37 22 63h154l92 467l-315 760h-107q-2 10 -2 18zM907 1612l234 278h213l-303 -278h-144z" />
<glyph unicode="&#xde;" horiz-adv-x="1239" d="M66 18v19v16q0 8 2 17q6 37 22 63h152l247 1227h-147q-2 10 -2 18v19v16q0 8 2 17q6 37 23 63h493q2 -10 2 -18v-19v-16q0 -8 -2 -17q-6 -37 -22 -63h-172l-35 -182h311q125 0 203 -32t123 -83t61 -115.5t16 -132.5q0 -102 -35.5 -190t-103 -153.5t-165 -103.5 t-222.5 -38h-362l-39 -197h168q2 -10 2 -18v-19v-16q0 -8 -2 -17q-6 -37 -23 -63h-493q-2 10 -2 18zM485 477h320q154 0 252 86t98 250q0 104 -50 160.5t-167 56.5h-340z" />
<glyph unicode="&#xdf;" horiz-adv-x="1146" d="M-129 -338l27 131q27 -10 54.5 -17t70.5 -7q63 0 102 50t55 142l201 1165q16 94 54 176t98.5 141.5t143.5 94.5t187 35q94 0 160 -30t108 -75t60 -99t18 -103q0 -94 -30.5 -166t-73.5 -124t-89 -84t-77 -46q86 -31 145.5 -112t59.5 -204q0 -131 -37 -235.5t-101.5 -176 t-151.5 -110.5t-185 -39q-86 0 -136.5 14.5t-82.5 30.5l24 152q29 -23 80 -37t109 -14q55 0 108 22.5t96 71.5t69 126t26 183q0 57 -15.5 103.5t-49.5 80t-86 52t-128 18.5h-63q-3 8 -3 16v19q0 23 3 33l9 34.5t15 32.5h66q74 0 135 28t104 74t66.5 106.5t23.5 125.5 q0 31 -6 64.5t-25.5 63.5t-58.5 49.5t-104 19.5q-78 0 -132.5 -30t-91 -84t-60 -131t-38.5 -171l-174 -1051q-31 -182 -123 -261t-209 -79q-51 0 -86.5 9.5t-60.5 21.5z" />
<glyph unicode="&#xe0;" horiz-adv-x="1138" d="M170 346q0 190 61.5 331.5t159.5 246.5q72 78 158 111.5t172 33.5q31 0 66.5 -7t71.5 -24.5t65.5 -47t48.5 -75.5l78 123h106l-186 -919h133q2 -10 2 -30.5t-2 -31.5q-6 -35 -27 -57h-272l53 256q-23 -49 -59.5 -100.5t-85.5 -92t-110.5 -66.5t-133.5 -26 q-80 0 -136.5 32t-92 85t-53 119.5t-17.5 138.5zM352 381q0 -43 7.5 -89t27 -84t53 -63.5t86.5 -25.5q76 0 145.5 58.5t124 147.5t87 194.5t32.5 197.5q0 109 -52 167t-130 58q-86 0 -156.5 -50t-119.5 -130t-77 -180.5t-28 -200.5zM645 1456h213l123 -278h-133z" />
<glyph unicode="&#xe1;" horiz-adv-x="1138" d="M170 346q0 190 61.5 331.5t159.5 246.5q72 78 158 111.5t172 33.5q31 0 66.5 -7t71.5 -24.5t65.5 -47t48.5 -75.5l78 123h106l-186 -919h133q2 -10 2 -30.5t-2 -31.5q-6 -35 -27 -57h-272l53 256q-23 -49 -59.5 -100.5t-85.5 -92t-110.5 -66.5t-133.5 -26 q-80 0 -136.5 32t-92 85t-53 119.5t-17.5 138.5zM352 381q0 -43 7.5 -89t27 -84t53 -63.5t86.5 -25.5q76 0 145.5 58.5t124 147.5t87 194.5t32.5 197.5q0 109 -52 167t-130 58q-86 0 -156.5 -50t-119.5 -130t-77 -180.5t-28 -200.5zM729 1178l234 278h213l-304 -278h-143z " />
<glyph unicode="&#xe2;" horiz-adv-x="1138" d="M170 346q0 190 61.5 331.5t159.5 246.5q72 78 158 111.5t172 33.5q31 0 66.5 -7t71.5 -24.5t65.5 -47t48.5 -75.5l78 123h106l-186 -919h133q2 -10 2 -30.5t-2 -31.5q-6 -35 -27 -57h-272l53 256q-23 -49 -59.5 -100.5t-85.5 -92t-110.5 -66.5t-133.5 -26 q-80 0 -136.5 32t-92 85t-53 119.5t-17.5 138.5zM352 381q0 -43 7.5 -89t27 -84t53 -63.5t86.5 -25.5q76 0 145.5 58.5t124 147.5t87 194.5t32.5 197.5q0 109 -52 167t-130 58q-86 0 -156.5 -50t-119.5 -130t-77 -180.5t-28 -200.5zM553 1178l252 278h176l141 -278h-145 l-98 196l-179 -196h-147z" />
<glyph unicode="&#xe3;" horiz-adv-x="1138" d="M170 346q0 190 61.5 331.5t159.5 246.5q72 78 158 111.5t172 33.5q31 0 66.5 -7t71.5 -24.5t65.5 -47t48.5 -75.5l78 123h106l-186 -919h133q2 -10 2 -30.5t-2 -31.5q-6 -35 -27 -57h-272l53 256q-23 -49 -59.5 -100.5t-85.5 -92t-110.5 -66.5t-133.5 -26 q-80 0 -136.5 32t-92 85t-53 119.5t-17.5 138.5zM352 381q0 -43 7.5 -89t27 -84t53 -63.5t86.5 -25.5q76 0 145.5 58.5t124 147.5t87 194.5t32.5 197.5q0 109 -52 167t-130 58q-86 0 -156.5 -50t-119.5 -130t-77 -180.5t-28 -200.5zM463 1208q31 90 91 154.5t163 64.5 q61 0 96 -15l80 -34q43 -16 61.5 -21t38.5 -5q23 0 39.5 9t28.5 23.5t20.5 30t14.5 25.5h112q-16 -45 -38.5 -85t-53.5 -70t-70.5 -47t-91.5 -17q-41 0 -76.5 13t-84.5 34q-47 20 -67.5 25t-49.5 5q-23 0 -39 -10t-28.5 -24.5t-20.5 -29.5t-13 -26h-112z" />
<glyph unicode="&#xe4;" horiz-adv-x="1138" d="M170 346q0 190 61.5 331.5t159.5 246.5q72 78 158 111.5t172 33.5q31 0 66.5 -7t71.5 -24.5t65.5 -47t48.5 -75.5l78 123h106l-186 -919h133q2 -10 2 -30.5t-2 -31.5q-6 -35 -27 -57h-272l53 256q-23 -49 -59.5 -100.5t-85.5 -92t-110.5 -66.5t-133.5 -26 q-80 0 -136.5 32t-92 85t-53 119.5t-17.5 138.5zM352 381q0 -43 7.5 -89t27 -84t53 -63.5t86.5 -25.5q76 0 145.5 58.5t124 147.5t87 194.5t32.5 197.5q0 109 -52 167t-130 58q-86 0 -156.5 -50t-119.5 -130t-77 -180.5t-28 -200.5zM557 1290q0 51 32 84t72.5 33t68.5 -27.5 t28 -74.5q0 -41 -30 -76t-77 -35q-33 0 -63.5 24.5t-30.5 71.5zM913 1290q0 51 32 84t73 33t68.5 -27.5t27.5 -74.5q0 -41 -29.5 -76t-76.5 -35q-33 0 -64 24.5t-31 71.5z" />
<glyph unicode="&#xe5;" horiz-adv-x="1138" d="M170 346q0 190 61.5 331.5t159.5 246.5q72 78 158 111.5t172 33.5q31 0 66.5 -7t71.5 -24.5t65.5 -47t48.5 -75.5l78 123h106l-186 -919h133q2 -10 2 -30.5t-2 -31.5q-6 -35 -27 -57h-272l53 256q-23 -49 -59.5 -100.5t-85.5 -92t-110.5 -66.5t-133.5 -26 q-80 0 -136.5 32t-92 85t-53 119.5t-17.5 138.5zM352 381q0 -43 7.5 -89t27 -84t53 -63.5t86.5 -25.5q76 0 145.5 58.5t124 147.5t87 194.5t32.5 197.5q0 109 -52 167t-130 58q-86 0 -156.5 -50t-119.5 -130t-77 -180.5t-28 -200.5zM653 1386.5q0 43.5 16.5 82t46 68.5 t68.5 46t82 16t82 -16t69 -46t46 -68.5t16 -82t-16 -82t-46 -68.5t-69 -46t-82 -16t-82 16t-68.5 46t-46 68.5t-16.5 82zM741 1386.5q0 -49.5 38 -87t87 -37.5t87 37.5t38 87t-38 87t-87 37.5t-87 -37.5t-38 -87z" />
<glyph unicode="&#xe6;" horiz-adv-x="1648" d="M170 346q0 190 61.5 331.5t159.5 246.5q72 78 158 111.5t172 33.5q31 0 66.5 -7t69.5 -23.5t64.5 -47t53.5 -76.5l74 123h98l-27 -133q20 27 56 55.5t80 52t94.5 39t103.5 15.5q137 0 209 -73.5t72 -180.5q0 -80 -39 -148.5t-121 -118.5t-209 -78t-301 -28h-18v-37 q0 -143 64.5 -213.5t170.5 -70.5q61 0 112.5 14t94.5 34.5t76.5 45.5t58.5 47l-37 -194q-70 -43 -155.5 -69t-184.5 -26q-147 0 -235 71t-123 194q-39 -53 -82 -101.5t-94 -84.5t-111.5 -57.5t-132.5 -21.5q-80 0 -136.5 32t-92 85t-53 119.5t-17.5 138.5zM352 381 q0 -43 7.5 -89t27 -84t53 -63.5t86.5 -25.5q76 0 145.5 58.5t124 147.5t87 194.5t32.5 197.5q0 111 -52 168t-130 57q-86 0 -156.5 -50t-119.5 -130t-77 -180.5t-28 -200.5zM1059 559h10h15q245 0 365 68q124 70 124 184q0 61 -35 100t-111 39q-90 0 -156.5 -44 t-110.5 -106.5t-68.5 -129t-32.5 -111.5z" />
<glyph unicode="&#xe7;" horiz-adv-x="972" d="M172 397q0 63 13.5 138t41 149t70.5 143.5t101.5 123t132 85t165.5 31.5q55 0 95 -11.5t69 -27.5t45.5 -37.5t26.5 -42.5l20 88q31 12 60 13q31 0 61 -13l-86 -415q-31 -12 -65 -13q-33 0 -66 13q2 12 6 29.5t7 38t5.5 41t2.5 36.5q0 78 -43 127t-146 49 q-78 0 -139.5 -50t-104.5 -127t-66.5 -169t-23.5 -174q0 -66 13.5 -120t42 -94t77 -62.5t115.5 -22.5q31 0 64.5 4t74.5 21.5t93.5 50t117.5 92.5l-37 -193q-72 -66 -157.5 -93.5t-157.5 -31.5l-86 -92q10 2 20.5 3t24.5 1q72 0 104.5 -37.5t32.5 -93.5q0 -43 -21.5 -79.5 t-58 -63.5t-87 -42t-105.5 -15t-98 13t-78 30l39 79q35 -16 62.5 -23t64.5 -7q18 0 40.5 4t42 15t33 28.5t13.5 46.5q0 41 -24.5 56.5t-55.5 15.5q-33 0 -80 -21l-27 39l142 150q-168 20 -247 131.5t-79 285.5z" />
<glyph unicode="&#xe8;" horiz-adv-x="956" d="M174 410q0 53 13.5 122.5t41 142.5t71.5 143.5t106.5 125.5t145.5 89t187 34q154 0 228.5 -73.5t74.5 -180.5q0 -80 -38.5 -148.5t-120.5 -118.5t-209 -78t-301 -28h-19v-37q0 -143 64.5 -213.5t171.5 -70.5q61 0 112.5 14t94.5 34.5t76.5 45.5t58.5 47l-37 -194 q-70 -43 -156 -69t-184 -26q-96 0 -168 32t-119 90.5t-70.5 139.5t-23.5 177zM367 559h10h14q245 0 366 68q124 70 124 184q0 61 -36 100t-118 39q-88 0 -152.5 -44t-107.5 -106.5t-67.5 -129t-32.5 -111.5zM614 1456h213l123 -278h-133z" />
<glyph unicode="&#xe9;" horiz-adv-x="956" d="M174 410q0 53 13.5 122.5t41 142.5t71.5 143.5t106.5 125.5t145.5 89t187 34q154 0 228.5 -73.5t74.5 -180.5q0 -80 -38.5 -148.5t-120.5 -118.5t-209 -78t-301 -28h-19v-37q0 -143 64.5 -213.5t171.5 -70.5q61 0 112.5 14t94.5 34.5t76.5 45.5t58.5 47l-37 -194 q-70 -43 -156 -69t-184 -26q-96 0 -168 32t-119 90.5t-70.5 139.5t-23.5 177zM367 559h10h14q245 0 366 68q124 70 124 184q0 61 -36 100t-118 39q-88 0 -152.5 -44t-107.5 -106.5t-67.5 -129t-32.5 -111.5zM684 1178l234 278h212l-303 -278h-143z" />
<glyph unicode="&#xea;" horiz-adv-x="956" d="M174 410q0 53 13.5 122.5t41 142.5t71.5 143.5t106.5 125.5t145.5 89t187 34q154 0 228.5 -73.5t74.5 -180.5q0 -80 -38.5 -148.5t-120.5 -118.5t-209 -78t-301 -28h-19v-37q0 -143 64.5 -213.5t171.5 -70.5q61 0 112.5 14t94.5 34.5t76.5 45.5t58.5 47l-37 -194 q-70 -43 -156 -69t-184 -26q-96 0 -168 32t-119 90.5t-70.5 139.5t-23.5 177zM367 559h10h14q245 0 366 68q124 70 124 184q0 61 -36 100t-118 39q-88 0 -152.5 -44t-107.5 -106.5t-67.5 -129t-32.5 -111.5zM492 1178l251 278h177l141 -278h-146l-98 196l-178 -196h-147z " />
<glyph unicode="&#xeb;" horiz-adv-x="956" d="M174 410q0 53 13.5 122.5t41 142.5t71.5 143.5t106.5 125.5t145.5 89t187 34q154 0 228.5 -73.5t74.5 -180.5q0 -80 -38.5 -148.5t-120.5 -118.5t-209 -78t-301 -28h-19v-37q0 -143 64.5 -213.5t171.5 -70.5q61 0 112.5 14t94.5 34.5t76.5 45.5t58.5 47l-37 -194 q-70 -43 -156 -69t-184 -26q-96 0 -168 32t-119 90.5t-70.5 139.5t-23.5 177zM367 559h10h14q245 0 366 68q124 70 124 184q0 61 -36 100t-118 39q-88 0 -152.5 -44t-107.5 -106.5t-67.5 -129t-32.5 -111.5zM522 1290q0 51 32 84t73 33t68.5 -27.5t27.5 -74.5 q0 -41 -29.5 -76t-77.5 -35q-33 0 -63.5 24.5t-30.5 71.5zM879 1290q0 51 31.5 84t72.5 33t68.5 -27.5t27.5 -74.5q0 -41 -29.5 -76t-76.5 -35q-33 0 -63.5 24.5t-30.5 71.5z" />
<glyph unicode="&#xec;" horiz-adv-x="571" d="M201 0l186 920h-131q-2 10 -2 30.5t2 30.5q6 33 25 57h297l-187 -919h133q2 -10 2 -30.5t-2 -31.5q-6 -33 -24 -57h-299zM250 1456h213l123 -278h-133z" />
<glyph unicode="&#xed;" horiz-adv-x="571" d="M201 0l186 920h-131q-2 10 -2 30.5t2 30.5q6 33 25 57h297l-187 -919h133q2 -10 2 -30.5t-2 -31.5q-6 -33 -24 -57h-299zM391 1178l234 278h213l-303 -278h-144z" />
<glyph unicode="&#xee;" horiz-adv-x="571" d="M176 1178l252 278h176l141 -278h-145l-98 196l-178 -196h-148zM201 0l186 920h-131q-2 10 -2 30.5t2 30.5q6 33 25 57h297l-187 -919h133q2 -10 2 -30.5t-2 -31.5q-6 -33 -24 -57h-299z" />
<glyph unicode="&#xef;" horiz-adv-x="571" d="M188 1290q0 51 32 84t73 33t68.5 -27.5t27.5 -74.5q0 -41 -29.5 -76t-76.5 -35q-33 0 -64 24.5t-31 71.5zM201 0l186 920h-131q-2 10 -2 30.5t2 30.5q6 33 25 57h297l-187 -919h133q2 -10 2 -30.5t-2 -31.5q-6 -33 -24 -57h-299zM545 1290q0 51 31.5 84t72.5 33 t68.5 -27.5t27.5 -74.5q0 -41 -29.5 -76t-76.5 -35q-33 0 -63.5 24.5t-30.5 71.5z" />
<glyph unicode="&#xf0;" horiz-adv-x="1099" d="M174 385q0 102 34 217t101.5 212t169 160.5t234.5 63.5q43 0 84 -11t75.5 -29.5t60 -43t38.5 -53.5q-10 86 -46 185.5t-102 191.5l-207 -148l-55 87l197 139q-35 35 -75 64.5t-87 54.5l57 98q117 -57 211 -141l203 143l59 -84l-192 -135q111 -129 157 -285t46 -326 q0 -143 -38 -282t-111 -248t-179.5 -176.5t-245.5 -67.5q-86 0 -157.5 27t-123 79t-80 130t-28.5 178zM346 395q0 -63 11.5 -115.5t39 -90t72.5 -59t112.5 -21.5t122 27.5t94.5 71.5t67.5 101.5t45 115.5t25.5 112.5t8 95.5q0 33 -7 80t-30.5 89t-69.5 71.5t-124 29.5 q-70 0 -124 -28.5t-95 -73.5t-70 -102.5t-46.5 -114t-24.5 -106.5t-7 -83z" />
<glyph unicode="&#xf1;" horiz-adv-x="1138" d="M188 0l185 920h-131q-2 10 -2 30.5t2 30.5q6 33 24 57h271l-56 -278q20 43 56 96t85.5 100.5t111 79t136.5 31.5q123 0 182.5 -64.5t59.5 -168.5q0 -18 -3 -55.5t-11 -71.5l-142 -588h152q2 -10 2 -30.5t-2 -31.5q-6 -33 -25 -57h-317l147 635q10 47 17.5 91t7.5 79 q0 55 -26.5 86t-94.5 31q-49 0 -106.5 -41t-111.5 -115t-99 -177.5t-72 -230.5l-74 -358h-166zM459 1208q31 90 91 154.5t163 64.5q61 0 96 -15l80 -34q43 -16 61.5 -21t38.5 -5q23 0 39 9t28.5 23.5t20.5 30t15 25.5h112q-16 -45 -38.5 -85t-53.5 -70t-71 -47t-91 -17 q-41 0 -76.5 13t-85.5 34q-47 20 -67.5 25t-48.5 5q-23 0 -39.5 -10t-28.5 -24.5t-20.5 -29.5t-12.5 -26h-112z" />
<glyph unicode="&#xf2;" horiz-adv-x="1079" d="M174 399q0 102 34 220t103.5 217.5t174 165t243.5 65.5q113 0 187.5 -41t119.5 -102.5t62.5 -131t17.5 -126.5q0 -129 -38 -254t-109.5 -222.5t-174 -158t-231.5 -60.5q-86 0 -157.5 29t-123 84t-80 135t-28.5 180zM346 410q0 -63 11.5 -117.5t39 -95.5t72.5 -64.5 t113 -23.5q102 0 171.5 61t111.5 146t60.5 177.5t18.5 153.5q0 33 -7 82t-30.5 94t-69.5 77t-124 32q-70 0 -124 -30t-95 -77t-70 -105t-46.5 -116.5t-24.5 -109.5t-7 -84zM594 1456h213l123 -278h-133z" />
<glyph unicode="&#xf3;" horiz-adv-x="1079" d="M174 399q0 102 34 220t103.5 217.5t174 165t243.5 65.5q113 0 187.5 -41t119.5 -102.5t62.5 -131t17.5 -126.5q0 -129 -38 -254t-109.5 -222.5t-174 -158t-231.5 -60.5q-86 0 -157.5 29t-123 84t-80 135t-28.5 180zM346 410q0 -63 11.5 -117.5t39 -95.5t72.5 -64.5 t113 -23.5q102 0 171.5 61t111.5 146t60.5 177.5t18.5 153.5q0 33 -7 82t-30.5 94t-69.5 77t-124 32q-70 0 -124 -30t-95 -77t-70 -105t-46.5 -116.5t-24.5 -109.5t-7 -84zM684 1178l234 278h212l-303 -278h-143z" />
<glyph unicode="&#xf4;" horiz-adv-x="1079" d="M174 399q0 102 34 220t103.5 217.5t174 165t243.5 65.5q113 0 187.5 -41t119.5 -102.5t62.5 -131t17.5 -126.5q0 -129 -38 -254t-109.5 -222.5t-174 -158t-231.5 -60.5q-86 0 -157.5 29t-123 84t-80 135t-28.5 180zM346 410q0 -63 11.5 -117.5t39 -95.5t72.5 -64.5 t113 -23.5q102 0 171.5 61t111.5 146t60.5 177.5t18.5 153.5q0 33 -7 82t-30.5 94t-69.5 77t-124 32q-70 0 -124 -30t-95 -77t-70 -105t-46.5 -116.5t-24.5 -109.5t-7 -84zM492 1178l251 278h177l141 -278h-146l-98 196l-178 -196h-147z" />
<glyph unicode="&#xf5;" horiz-adv-x="1079" d="M174 399q0 102 34 220t103.5 217.5t174 165t243.5 65.5q113 0 187.5 -41t119.5 -102.5t62.5 -131t17.5 -126.5q0 -129 -38 -254t-109.5 -222.5t-174 -158t-231.5 -60.5q-86 0 -157.5 29t-123 84t-80 135t-28.5 180zM346 410q0 -63 11.5 -117.5t39 -95.5t72.5 -64.5 t113 -23.5q102 0 171.5 61t111.5 146t60.5 177.5t18.5 153.5q0 33 -7 82t-30.5 94t-69.5 77t-124 32q-70 0 -124 -30t-95 -77t-70 -105t-46.5 -116.5t-24.5 -109.5t-7 -84zM430 1208q31 90 91.5 154.5t162.5 64.5q61 0 96 -15l80 -34q43 -16 61.5 -21t39.5 -5q23 0 39 9 t28 23.5t20.5 30t14.5 25.5h113q-16 -45 -39 -85t-53.5 -70t-70.5 -47t-91 -17q-41 0 -77 13t-85 34q-47 20 -67.5 25t-49.5 5q-23 0 -39 -10t-28.5 -24.5t-20.5 -29.5t-12 -26h-113z" />
<glyph unicode="&#xf6;" horiz-adv-x="1079" d="M174 399q0 102 34 220t103.5 217.5t174 165t243.5 65.5q113 0 187.5 -41t119.5 -102.5t62.5 -131t17.5 -126.5q0 -129 -38 -254t-109.5 -222.5t-174 -158t-231.5 -60.5q-86 0 -157.5 29t-123 84t-80 135t-28.5 180zM346 410q0 -63 11.5 -117.5t39 -95.5t72.5 -64.5 t113 -23.5q102 0 171.5 61t111.5 146t60.5 177.5t18.5 153.5q0 33 -7 82t-30.5 94t-69.5 77t-124 32q-70 0 -124 -30t-95 -77t-70 -105t-46.5 -116.5t-24.5 -109.5t-7 -84zM543 1290q0 51 31.5 84t72.5 33t68.5 -27.5t27.5 -74.5q0 -41 -29.5 -76t-76.5 -35 q-33 0 -63.5 24.5t-30.5 71.5zM899 1290q0 51 32 84t72.5 33t68.5 -27.5t28 -74.5q0 -41 -30 -76t-77 -35q-33 0 -63.5 24.5t-30.5 71.5z" />
<glyph unicode="&#xf7;" d="M176 612v146h1004v-146h-1004zM541 270q0 59 42 99.5t97 40.5q57 0 98 -41t41 -99q0 -53 -41 -96t-98 -43q-55 0 -97 41t-42 98zM541 1104q0 59 42 99t97 40q57 0 98 -41t41 -98q0 -53 -41 -96t-98 -43q-55 0 -97 41t-42 98z" />
<glyph unicode="&#xf8;" horiz-adv-x="1079" d="M92 25l137 135q-55 98 -55 239q0 102 34 220t103.5 217.5t174 165t243.5 65.5q104 0 176 -36t117 -89l129 129l78 -80l-148 -147q18 -47 26.5 -92t8.5 -86q0 -129 -38 -254t-109.5 -222.5t-174 -158t-231.5 -60.5q-162 0 -266 101l-127 -127zM346 410q0 -66 12 -123 l547 540q-25 43 -69.5 74t-122.5 31q-70 0 -124 -30t-95 -77t-70 -105t-46.5 -116.5t-24.5 -109.5t-7 -84zM410 180q29 -35 70.5 -53t101.5 -18q102 0 171.5 61t111.5 146t60.5 177.5t18.5 153.5v28q0 15 -4 32z" />
<glyph unicode="&#xf9;" horiz-adv-x="1138" d="M219 205q0 18 3 55t11 72l142 588h-152q-2 10 -2 30.5t2 30.5q6 33 25 57h317l-147 -635q-10 -47 -17.5 -91t-7.5 -79q0 -55 26.5 -85.5t94.5 -30.5q49 0 106.5 41t111.5 114.5t99.5 177t71.5 230.5l74 358h166l-185 -919h132q2 -10 2 -30.5t-2 -31.5q-6 -33 -25 -57 h-270l55 279q-23 -43 -57.5 -96.5t-84 -100.5t-110.5 -79t-137 -32q-123 0 -182.5 65t-59.5 169zM563 1456h213l123 -278h-133z" />
<glyph unicode="&#xfa;" horiz-adv-x="1138" d="M219 205q0 18 3 55t11 72l142 588h-152q-2 10 -2 30.5t2 30.5q6 33 25 57h317l-147 -635q-10 -47 -17.5 -91t-7.5 -79q0 -55 26.5 -85.5t94.5 -30.5q49 0 106.5 41t111.5 114.5t99.5 177t71.5 230.5l74 358h166l-185 -919h132q2 -10 2 -30.5t-2 -31.5q-6 -33 -25 -57 h-270l55 279q-23 -43 -57.5 -96.5t-84 -100.5t-110.5 -79t-137 -32q-123 0 -182.5 65t-59.5 169zM694 1178l234 278h213l-303 -278h-144z" />
<glyph unicode="&#xfb;" horiz-adv-x="1138" d="M219 205q0 18 3 55t11 72l142 588h-152q-2 10 -2 30.5t2 30.5q6 33 25 57h317l-147 -635q-10 -47 -17.5 -91t-7.5 -79q0 -55 26.5 -85.5t94.5 -30.5q49 0 106.5 41t111.5 114.5t99.5 177t71.5 230.5l74 358h166l-185 -919h132q2 -10 2 -30.5t-2 -31.5q-6 -33 -25 -57 h-270l55 279q-23 -43 -57.5 -96.5t-84 -100.5t-110.5 -79t-137 -32q-123 0 -182.5 65t-59.5 169zM502 1178l252 278h176l141 -278h-145l-99 196l-178 -196h-147z" />
<glyph unicode="&#xfc;" horiz-adv-x="1138" d="M219 205q0 18 3 55t11 72l142 588h-152q-2 10 -2 30.5t2 30.5q6 33 25 57h317l-147 -635q-10 -47 -17.5 -91t-7.5 -79q0 -55 26.5 -85.5t94.5 -30.5q49 0 106.5 41t111.5 114.5t99.5 177t71.5 230.5l74 358h166l-185 -919h132q2 -10 2 -30.5t-2 -31.5q-6 -33 -25 -57 h-270l55 279q-23 -43 -57.5 -96.5t-84 -100.5t-110.5 -79t-137 -32q-123 0 -182.5 65t-59.5 169zM526 1290q0 51 32 84t73 33t68.5 -27.5t27.5 -74.5q0 -41 -29.5 -76t-76.5 -35q-33 0 -64 24.5t-31 71.5zM883 1290q0 51 31.5 84t72.5 33t68.5 -27.5t27.5 -74.5 q0 -41 -29.5 -76t-76.5 -35q-33 0 -63.5 24.5t-30.5 71.5z" />
<glyph unicode="&#xfd;" horiz-adv-x="983" d="M-2 -336l31 148q41 -23 77.5 -30t77.5 -7q68 0 154 65.5t170 194.5l-55 220l-64 237l-66.5 229t-66.5 199h-127q-2 10 -2 30.5t2 30.5q6 33 25 57h239q23 -55 55.5 -159.5l66.5 -224.5l66 -238q32 -119 52 -205q55 88 101 179t80 174t52.5 153.5t18.5 118.5q0 39 -1 55 t-5 29h-144q-2 10 -2 30.5t2 30.5q6 33 25 57h268q16 -35 20.5 -71.5t4.5 -69.5q0 -104 -44 -236.5t-113 -269.5t-153 -266t-165 -229q-53 -68 -103.5 -117t-103 -82t-108.5 -49.5t-120 -16.5q-47 0 -88 10.5t-57 22.5zM575 1178l234 278h213l-303 -278h-144z" />
<glyph unicode="&#xfe;" horiz-adv-x="1105" d="M-47 -313.5q0 20.5 2 30.5q6 33 25 58h133l333 1659h-131q-2 10 -2 30.5t2 30.5q6 33 25 57h297l-139 -682q27 39 61.5 74t77.5 62.5t95 44t112 16.5q84 0 141 -31.5t93 -85t51.5 -121t15.5 -137.5q0 -76 -14.5 -155.5t-41 -156.5t-64.5 -145.5t-87 -119.5 q-72 -78 -154 -112t-174 -34q-53 0 -97 17.5t-78 43t-54.5 57.5t-26.5 60l-75 -372h151q2 -10 2 -30.5t-2 -31.5q-6 -33 -24 -57h-451q-2 10 -2 30.5zM401 362q0 -70 19.5 -118.5t49.5 -79.5t65.5 -44.5t70.5 -13.5q84 0 149.5 52.5t111.5 133.5t71 178t25 187 q0 43 -7.5 89.5t-26 85t-53 64.5t-90.5 26q-76 0 -137 -42t-109 -106.5t-80 -142.5t-46 -150q-13 -66 -13 -119z" />
<glyph unicode="&#xff;" horiz-adv-x="983" d="M-2 -336l31 148q41 -23 77.5 -30t77.5 -7q68 0 154 65.5t170 194.5l-55 220l-64 237l-66.5 229t-66.5 199h-127q-2 10 -2 30.5t2 30.5q6 33 25 57h239q23 -55 55.5 -159.5l66.5 -224.5l66 -238q32 -119 52 -205q55 88 101 179t80 174t52.5 153.5t18.5 118.5q0 39 -1 55 t-5 29h-144q-2 10 -2 30.5t2 30.5q6 33 25 57h268q16 -35 20.5 -71.5t4.5 -69.5q0 -104 -44 -236.5t-113 -269.5t-153 -266t-165 -229q-53 -68 -103.5 -117t-103 -82t-108.5 -49.5t-120 -16.5q-47 0 -88 10.5t-57 22.5zM393 1290q0 51 32 84t73 33t68.5 -27.5t27.5 -74.5 q0 -41 -29.5 -76t-77.5 -35q-33 0 -63.5 24.5t-30.5 71.5zM750 1290q0 51 31.5 84t72.5 33t68.5 -27.5t27.5 -74.5q0 -41 -29.5 -76t-76.5 -35q-33 0 -63.5 24.5t-30.5 71.5z" />
<glyph unicode="&#x152;" horiz-adv-x="2248" d="M238 592q0 162 51 324.5t152.5 293.5t252 214t350.5 83q94 0 143.5 -2t89.5 -5t91 -5t150 -2h770l-88 -438q-18 -6 -38 -8.5t-38 -2.5q-20 0 -39 4.5t-39 10.5l61 287h-571l-102 -504h567q4 -10 4 -23v-24v-19q0 -8 -2 -16q-4 -16 -9 -32.5t-16 -33.5h-575l-109 -547h580 l61 297q18 6 38 8.5t38 2.5q20 0 38.5 -4.5t39.5 -10.5l-88 -440h-731q-63 0 -106.5 -1t-76 -3t-59.5 -3t-55.5 -3t-66.5 -3t-91 -1q-162 0 -272.5 53t-178 139t-97 194.5t-29.5 219.5zM434 575q0 -135 39 -221t96.5 -134t124 -66.5t121.5 -18.5h35q72 0 142.5 5t125.5 16 l236 1183q-33 2 -61.5 5.5t-62.5 6.5t-77 4t-104 1q-141 0 -255 -59.5t-194 -164t-123 -247t-43 -310.5z" />
<glyph unicode="&#x153;" horiz-adv-x="1691" d="M174 399q0 102 34 220t103.5 217.5t174 165t243.5 65.5q70 0 124 -17.5t95 -46t71 -68.5t50 -85q66 94 165 155.5t241 61.5q154 0 228.5 -73.5t74.5 -180.5q0 -80 -39 -148.5t-121 -118.5t-209 -78t-301 -28h-18v-37q0 -143 64.5 -213.5t170.5 -70.5q61 0 112.5 14 t94.5 34.5t76.5 45.5t58.5 47l-37 -194q-70 -43 -155.5 -69t-184.5 -26q-127 0 -209 56.5t-125 160.5q-72 -100 -171 -158.5t-222 -58.5q-86 0 -157.5 29t-123 84t-80 135t-28.5 180zM346 410q0 -63 11.5 -117.5t39 -95.5t72.5 -64.5t113 -23.5q102 0 171.5 61t111.5 146 t60.5 177.5t18.5 153.5q0 33 -7 82t-30.5 94t-69.5 77t-124 32q-70 0 -124 -30t-95 -77t-70 -105t-46.5 -116.5t-24.5 -109.5t-7 -84zM1102 559h10h15q245 0 365 68q124 70 124 184q0 61 -36 100t-118 39q-88 0 -152.5 -44t-107.5 -106.5t-67.5 -129t-32.5 -111.5z" />
<glyph unicode="&#x178;" horiz-adv-x="1400" d="M299 1378v19v16q0 8 2 17q6 37 23 63h473q2 -10 2 -18v-19v-16q0 -8 -2 -17q-6 -37 -23 -63h-184l250 -621l520 621h-178q-2 10 -2 18v19v16q0 8 2 17q6 37 22 63h471q2 -10 2 -18v-19v-16q0 -8 -2 -17q-6 -37 -22 -63h-111l-639 -760l-94 -467h168q2 -10 2 -18v-19v-16 q0 -8 -2 -17q-6 -37 -23 -63h-499q-2 10 -2 18v19v16q0 8 2 17q6 37 22 63h154l92 467l-315 760h-107q-2 10 -2 18zM766 1724q0 51 31.5 84t72.5 33t69 -27.5t28 -74.5q0 -41 -30 -76t-77 -35q-33 0 -63.5 24.5t-30.5 71.5zM1122 1724q0 51 32 84t73 33t68.5 -27.5 t27.5 -74.5q0 -41 -29.5 -76t-76.5 -35q-33 0 -64 24.5t-31 71.5z" />
<glyph unicode="&#x2c6;" horiz-adv-x="700" d="M303 1178l252 278h176l141 -278h-145l-98 196l-178 -196h-148z" />
<glyph unicode="&#x2dc;" horiz-adv-x="700" d="M244 1208q31 90 91 154.5t163 64.5q61 0 96 -15l80 -34q43 -16 61.5 -21t38.5 -5q23 0 39 9t28.5 23.5t20.5 30t15 25.5h112q-16 -45 -38.5 -85t-53.5 -70t-71 -47t-91 -17q-41 0 -76.5 13t-85.5 34q-47 20 -67.5 25t-48.5 5q-23 0 -39.5 -10t-28.5 -24.5t-20.5 -29.5 t-12.5 -26h-112z" />
<glyph unicode="&#x2013;" horiz-adv-x="1024" d="M96 492v149h1024v-149h-1024z" />
<glyph unicode="&#x2014;" horiz-adv-x="2048" d="M96 492v149h2048v-149h-2048z" />
<glyph unicode="&#x2018;" horiz-adv-x="550" d="M367 1114q0 84 29.5 155.5t77.5 125t106.5 88.5t117.5 47l-22 -111q-145 -66 -172 -209q66 -4 94.5 -41.5t28.5 -81.5q0 -72 -37 -107.5t-88 -35.5q-61 0 -98 46t-37 124z" />
<glyph unicode="&#x2019;" horiz-adv-x="550" d="M346 944l23 111q145 66 172 209q-66 4 -94.5 41.5t-28.5 80.5q0 72 37 108t88 36q61 0 98 -46t37 -124q0 -84 -30 -155.5t-78 -125t-107.5 -88.5t-116.5 -47z" />
<glyph unicode="&#x201a;" horiz-adv-x="550" d="M92 -348l23 110q145 66 172 209q-66 4 -94.5 42t-28.5 81q0 72 37 108t88 36q61 0 98 -46.5t37 -123.5q0 -84 -29.5 -156t-78 -125t-108 -88t-116.5 -47z" />
<glyph unicode="&#x201c;" horiz-adv-x="929" d="M367 1114q0 84 29.5 155.5t77.5 125t106.5 88.5t117.5 47l-22 -111q-145 -66 -172 -209q66 -4 94.5 -42t28.5 -81q0 -72 -37 -107.5t-88 -35.5q-61 0 -98 46t-37 124zM745 1114q0 84 30 155.5t78 125t106.5 88.5t117.5 47l-22 -111q-145 -66 -172 -209q66 -4 94.5 -42 t28.5 -81q0 -72 -37 -107.5t-88 -35.5q-61 0 -98.5 46t-37.5 124z" />
<glyph unicode="&#x201d;" horiz-adv-x="929" d="M346 944l23 111q145 66 172 209q-66 4 -94.5 41.5t-28.5 80.5q0 72 37 108t88 36q61 0 98 -46t37 -124q0 -84 -30 -155.5t-78 -125t-107.5 -88.5t-116.5 -47zM725 944l23 111q145 66 172 209q-66 4 -94.5 41.5t-28.5 80.5q0 72 36.5 108t88.5 36q61 0 98 -46t37 -124 q0 -84 -30 -155.5t-78 -125t-107.5 -88.5t-116.5 -47z" />
<glyph unicode="&#x201e;" horiz-adv-x="970" d="M92 -348l23 110q145 66 172 209q-66 4 -94.5 42t-28.5 81q0 72 37 108t88 36q61 0 98 -46.5t37 -123.5q0 -84 -29.5 -156t-78 -125t-108 -88t-116.5 -47zM471 -348l23 110q145 66 172 209q-66 4 -94.5 42t-28.5 81q0 72 36.5 108t88.5 36q61 0 98 -46.5t37 -123.5 q0 -84 -30 -156t-78 -125t-107.5 -88t-116.5 -47z" />
<glyph unicode="&#x2022;" horiz-adv-x="741" d="M211 713q0 63 22.5 120.5t62.5 100.5t94 67.5t115.5 24.5t116 -24.5t95.5 -67.5t64.5 -100.5t23.5 -120.5q0 -66 -23.5 -122t-64.5 -98t-95.5 -67t-116 -25t-115.5 25t-94 67t-62.5 98t-22.5 122z" />
<glyph unicode="&#x2026;" horiz-adv-x="2048" d="M256 94q0 63 41 105.5t92 42.5q53 0 87 -35t34 -94q0 -53 -38 -97.5t-97 -44.5q-41 0 -80 32t-39 91zM938 94q0 63 41 105.5t92 42.5q53 0 87 -35t34 -94q0 -53 -38 -97.5t-97 -44.5q-41 0 -80 32t-39 91zM1620 94q0 63 41 105.5t92 42.5q53 0 87 -35t34 -94 q0 -53 -38 -97.5t-97 -44.5q-41 0 -80 32t-39 91z" />
<glyph unicode="&#x2039;" horiz-adv-x="585" d="M158 518l393 461h180l-403 -469l207 -453h-168z" />
<glyph unicode="&#x203a;" horiz-adv-x="585" d="M61 57l404 469l-207 453h168l209 -461l-393 -461h-181z" />
<glyph unicode="&#x20ac;" d="M139 483l47 103h103q2 18 3 36.5t5 36.5l8 47l8 48h-125l45 102h107q37 125 97.5 226.5t136 172t163.5 108.5t183 38q98 0 164.5 -32t95.5 -87l18 88q39 14 66 14q35 0 63 -12l-88 -418q-20 -8 -38.5 -10t-37.5 -2q-16 0 -27.5 4t-27.5 8l12 60q4 16 5 31.5t1 44.5 q0 84 -58 128t-144 44q-123 0 -231.5 -106.5t-172.5 -299.5h522l-45 -102h-505l-11.5 -57.5t-9.5 -61.5l-6 -49h461l-47 -103h-416q2 -82 17.5 -148.5t47 -114.5t80.5 -74.5t117 -26.5q109 0 189.5 35.5t170.5 97.5l-36 -189q-164 -94 -347 -94q-92 0 -156.5 27t-121.5 80 q-63 61 -99 169.5t-38 237.5h-148z" />
<glyph unicode="&#x2122;" horiz-adv-x="2142" d="M301 1219v274h725v-274q-35 -8 -55 -9q-25 0 -58 9v170h-186v-633h88q8 -33 8 -54q0 -23 -8 -49h-303q-8 27 -8 49q0 20 8 54h88v633h-186v-170q-33 -8 -55.5 -8t-57.5 8zM1102 702q0 12 2 23.5t10 30.5h80v635h-80q-8 16 -10 27.5t-2 23.5q0 10 2 22.5t10 28.5h258 q6 -18 34 -95l63 -178l71 -208q35 -106 55 -181q23 80 55 175l63 185l60 171l46 131h262q8 -31 8 -51q0 -23 -10 -51h-82v-635h84q8 -33 8 -54q0 -10 -2 -21t-8 -28h-289q-6 16 -8 27.5t-2 21.5q0 20 8 54h82v524q0 10 1 20.5t1 22.5l-225 -649h-119l-221 649v-43v-524h84 q6 -18 8 -29.5t2 -24.5q0 -10 -2 -21t-8 -28h-277q-8 16 -10 27.5t-2 21.5z" />
<glyph unicode="&#xe000;" horiz-adv-x="1040" d="M0 1040h1040v-1040h-1040v1040z" />
<glyph unicode="&#xfb01;" horiz-adv-x="1159" d="M-96 -336l33 127q16 -10 49.5 -18.5t68.5 -8.5q70 0 112 53.5t64 184.5l154 907h-168q-2 8 -2 17v16q0 23 2 33q4 16 9 33.5t16 29.5h166l22 131q20 125 70.5 204t112 123t128 59.5t119.5 15.5q82 0 151.5 -19.5t108.5 -40.5l-30 -137q-12 8 -37 17.5t-54.5 17.5 t-62.5 14.5t-59 6.5q-59 0 -105.5 -12.5t-82.5 -44.5t-60.5 -89t-38.5 -147l-17 -99h592l-186 -919h133q2 -10 2 -30.5t-2 -31.5q-6 -33 -25 -57h-299l185 909h-422l-152 -901q-20 -117 -55 -190.5t-81 -114.5t-100 -56.5t-112 -15.5q-59 0 -95 12.5t-52 20.5z" />
<glyph unicode="&#xfb02;" horiz-adv-x="1157" d="M-96 -336l33 127q16 -10 49.5 -18.5t68.5 -8.5q70 0 112 53.5t64 184.5l154 907h-168q-2 8 -2 17v16q0 23 2 33q4 16 9 33.5t16 29.5h166l16 109q18 125 62 207t103.5 130t130.5 67.5t144 19.5q127 0 223.5 -43t157.5 -90l-266 -1319h141q2 -10 2 -30.5t-2 -31.5 q-6 -33 -24 -57h-308l279 1376q-51 35 -107.5 48.5t-107.5 13.5q-100 0 -163.5 -62.5t-92.5 -216.5l-23 -121h195q2 -8 2 -16v-16q0 -23 -2 -33q-4 -16 -9 -33.5t-16 -30.5h-192l-152 -901q-20 -117 -55 -190.5t-81 -114.5t-100 -56.5t-112 -15.5q-59 0 -95 12.5t-52 20.5z " />
<glyph unicode="&#xfb03;" horiz-adv-x="1767" d="M-96 -336l33 127q16 -10 49.5 -18.5t68.5 -8.5q70 0 112 53.5t64 184.5l154 907h-168q-2 8 -2 17v16q0 23 2 33q4 16 9 33.5t16 29.5h166l22 133q18 113 60 190t100.5 123t129.5 66.5t144 20.5q100 0 184.5 -29t145.5 -65q66 55 140.5 74.5t133.5 19.5q82 0 152 -19.5 t109 -40.5l-31 -137q-12 8 -38 17.5t-56.5 17.5t-64.5 14.5t-64 6.5q-55 0 -99.5 -12.5t-79 -44.5t-59.5 -89t-39 -147l-16 -99h592l-187 -919h133q2 -10 2 -30.5t-2 -31.5q-6 -33 -24 -57h-299l184 909h-422l-151 -901q-20 -117 -55 -190.5t-81.5 -114.5t-100.5 -56.5 t-112 -15.5q-59 0 -95 12.5t-52 20.5l33 127q16 -10 50 -18.5t69 -8.5q70 0 111.5 53.5t64.5 184.5l153 907h-442l-152 -901q-20 -117 -55 -190.5t-81 -114.5t-100 -56.5t-112 -15.5q-59 0 -95 12.5t-52 20.5zM573 1038h443l22 131q10 57 26.5 107.5t39.5 89.5l-32 18 q-22 12 -53.5 24.5t-70.5 21t-80 8.5q-113 0 -180 -64.5t-96 -232.5z" />
<glyph unicode="&#xfb04;" horiz-adv-x="1765" d="M-96 -336l33 127q16 -10 49.5 -18.5t68.5 -8.5q70 0 112 53.5t64 184.5l154 907h-168q-2 8 -2 17v16q0 23 2 33q4 16 9 33.5t16 29.5h166l22 133q18 113 60 190t100.5 123t129.5 66.5t144 20.5q98 0 181 -29t145 -63q59 51 132 71.5t151 20.5q127 0 223 -43t157 -90 l-266 -1319h142q2 -10 2 -30.5t-2 -31.5q-6 -33 -25 -57h-307l278 1376q-51 35 -107.5 48.5t-107.5 13.5q-100 0 -163.5 -62.5t-92.5 -216.5l-22 -121h194q2 -8 2 -16v-16q0 -23 -2 -33q-4 -16 -9 -33.5t-15 -30.5h-193l-151 -901q-20 -117 -55 -190.5t-81.5 -114.5 t-100.5 -56.5t-112 -15.5q-59 0 -95 12.5t-52 20.5l33 127q16 -10 50 -18.5t69 -8.5q70 0 111.5 53.5t64.5 184.5l153 907h-442l-152 -901q-20 -117 -55 -190.5t-81 -114.5t-100 -56.5t-112 -15.5q-59 0 -95 12.5t-52 20.5zM573 1038h443l16 109q20 135 70 219 q-10 8 -32.5 20.5t-53.5 23.5t-69 19.5t-79 8.5q-113 0 -180 -64.5t-96 -232.5z" />
</font>
</defs>
</svg>
