<?xml version="1.0" standalone="no"?>
<!DOCTYPE svg PUBLIC "-//W3C//DTD SVG 1.1//EN" "http://www.w3.org/Graphics/SVG/1.1/DTD/svg11.dtd" >
<svg xmlns="http://www.w3.org/2000/svg">
<metadata>
This is a custom SVG webfont generated by Font Squirrel.
Copyright   : Copyright 19992007 Ron Carpenter and Dalton Maag Ltd All rights reserved DaMa is a trademark of Dalton Maag Ltd The use of this font without a valid license is illegal and will be prosecuted
Designer    : Ron Carpenter
Foundry     : Ron Carpenter and Dalton Maag Ltd
</metadata>
<defs>
<font id="LexiaRegular" horiz-adv-x="1110" >
<font-face units-per-em="2048" ascent="1638" descent="-410" />
<missing-glyph horiz-adv-x="550" />
<glyph unicode=" "  horiz-adv-x="550" />
<glyph unicode="&#x09;" horiz-adv-x="550" />
<glyph unicode="&#xa0;" horiz-adv-x="550" />
<glyph unicode="!" horiz-adv-x="550" d="M152 108.5q0 57.5 35.5 97.5t89 40t89 -40t35.5 -97.5t-35.5 -97.5t-89 -40t-89 40t-35.5 97.5zM168 1493h217l-37 -1106h-143z" />
<glyph unicode="&#x22;" horiz-adv-x="946" d="M182 1493h211l-49 -535h-113zM549 1493h211l-49 -535h-113z" />
<glyph unicode="#" horiz-adv-x="1177" d="M20 457l31 116h232l94 345h-232l31 116h232l124 459h148l-125 -459h221l127 459h148l-125 -459h231l-31 -116h-231l-96 -345h233l-31 -116h-229l-123 -457h-147l121 457h-224l-120 -457h-148l121 457h-232zM432 573h219l94 345h-221z" />
<glyph unicode="$" d="M53 0v440q37 10 68 11q39 0 65 -11v-41q0 -47 17.5 -93t56.5 -86t98.5 -68.5t143.5 -38.5v520l-142 41q-55 16 -106 43.5t-90 68.5t-62.5 96.5t-23.5 125.5q0 92 30.5 164.5t87 123t134.5 77t172 26.5v141h102v-149q106 -16 166.5 -66.5t83.5 -99.5v141q27 12 63.5 12 t65.5 -12v-410q-27 -10 -68 -10q-18 0 -34.5 2t-28.5 8v29q0 39 -13.5 81t-42 79t-75.5 66.5t-117 41.5v-481l98 -31q82 -25 146.5 -57.5t111 -78.5t71 -110.5t24.5 -154.5q0 -82 -31 -149.5t-89 -116.5t-141 -77t-190 -30v-196h-102v200q-131 16 -204 66.5t-114 109.5v-147 q-31 -12 -67 -12q-33 0 -64 12zM240 1030q0 -55 22.5 -92t58 -61.5t79.5 -40t87 -27.5l15 -4v457q-129 -2 -195.5 -62.5t-66.5 -169.5zM604 109q147 4 212 67.5t65 161.5q0 104 -71 162.5t-206 101.5v-493z" />
<glyph unicode="%" horiz-adv-x="1871" d="M78 1036q0 76 28.5 142.5t79 115.5t117 77t141.5 28q74 0 140.5 -29t116 -78t78 -114.5t28.5 -141t-28.5 -142.5t-78 -117t-115 -78.5t-141 -28.5t-142 28.5t-117 77.5t-79 115.5t-28.5 144.5zM213 1036q0 -53 18.5 -96t50 -72.5t72.5 -46t88 -16.5q49 0 91 18.5t73 50 t48.5 73.5t17.5 89t-18.5 89t-49.5 73t-71.5 48.5t-88.5 17.5q-49 0 -91 -18.5t-73.5 -49.5t-49 -73t-17.5 -87zM467 -33l793 1432h153l-792 -1432h-154zM1065 334q0 76 28.5 142.5t79 115.5t117 76.5t142.5 27.5q74 0 140 -28.5t115.5 -77.5t78 -114.5t28.5 -141.5 t-28.5 -142.5t-78 -116.5t-115 -79t-141 -29t-142 29t-117 78t-79 115.5t-28.5 144.5zM1200 334q0 -53 18.5 -96t50 -73t72.5 -46.5t89 -16.5q49 0 91 18.5t72.5 50.5t48 74t17.5 89t-18.5 89t-49 72.5t-71.5 48t-88 17.5q-49 0 -91.5 -18.5t-74 -49t-49 -72.5t-17.5 -87z " />
<glyph unicode="&#x26;" horiz-adv-x="1406" d="M109 332q0 76 16 140.5t54 120.5t100.5 106.5t156.5 97.5q-51 68 -79.5 117t-43 83.5t-17.5 58t-3 40.5v12q2 141 95 229t259 88q100 0 175 -28.5t134 -59.5v-166q-72 45 -137 76t-160 31q-111 0 -153.5 -49t-42.5 -113q0 -59 48 -131t138 -180l295 -361q35 86 49.5 161 t18.5 108h280q12 -31 12.5 -64t-12.5 -63h-139q-4 -27 -26.5 -105t-71.5 -170l149 -184h191q12 -31 12 -63.5t-12 -63.5h-310l-131 162q-72 -80 -174 -137.5t-250 -57.5q-123 0 -204.5 41t-130 99.5t-67.5 121t-19 103.5zM287 373q0 -115 73.5 -185.5t188.5 -70.5 q104 0 179 46t128 118l-328 401q-129 -61 -185 -138t-56 -171z" />
<glyph unicode="'" horiz-adv-x="550" d="M166 1493h211l-49 -535h-113z" />
<glyph unicode="(" horiz-adv-x="661" d="M135 602q0 135 20.5 257t60.5 240t101.5 234.5t141.5 237.5h153l-113 -232q-50 -104 -85 -213.5t-53.5 -233.5t-18.5 -288q0 -166 18.5 -291t53.5 -234.5t85 -214.5l113 -233h-153q-80 123 -141.5 239t-101.5 234.5t-60.5 240.5t-20.5 257z" />
<glyph unicode=")" horiz-adv-x="661" d="M49 -367l114 231q50 105 85 214.5t53 233.5t18 288q0 166 -18 291t-53 234.5t-85 214.5l-114 233h154q80 -123 141.5 -238.5t101 -234.5t60 -241t20.5 -257t-20.5 -257t-60 -239.5t-101 -234.5t-141.5 -238h-154z" />
<glyph unicode="*" horiz-adv-x="772" d="M76 1280l43 123l209 -76l-9 225h132l-9 -225l209 78l43 -123l-215 -61l139 -181l-110 -71l-123 188l-121 -188l-110 71l137 181z" />
<glyph unicode="+" d="M53 612v146h430v430h146v-430h428v-146h-428v-428h-146v428h-430z" />
<glyph unicode="," horiz-adv-x="550" d="M139 109q0 53 32 95t95 42q37 0 65.5 -17.5t47 -46t29 -66.5t10.5 -81q0 -117 -35 -189.5t-80 -114.5t-88 -58.5t-59 -18.5v102q78 35 108.5 93.5t30.5 132.5q-16 -4 -33 -5q-68 0 -95.5 41.5t-27.5 90.5z" />
<glyph unicode="-" horiz-adv-x="661" d="M88 549q0 45 12 86h461q12 -41 12 -86t-12 -84h-461q-12 39 -12 84z" />
<glyph unicode="." horiz-adv-x="550" d="M150 108.5q0 57.5 35.5 97.5t89 40t89 -40t35.5 -97.5t-35.5 -97.5t-89 -40t-89 40t-35.5 97.5z" />
<glyph unicode="/" horiz-adv-x="663" d="M0 -37l512 1589h152l-512 -1589h-152z" />
<glyph unicode="0" d="M76 686.5q0 108.5 18.5 233t70.5 231t145 177.5t242.5 71t244 -71t147.5 -177.5t71.5 -231t18.5 -233t-18.5 -234.5t-70.5 -233.5t-146 -179.5t-243.5 -72t-244 72t-146.5 179.5t-70.5 233.5t-18.5 234.5zM260 686q0 -131 17.5 -236.5t54.5 -179t92 -112.5t129 -39 q76 0 131 39t92 112.5t54.5 179t17.5 236.5h2q0 131 -17.5 234.5t-54.5 176t-92 111.5t-131 39q-150 0 -222.5 -149.5t-72.5 -411.5z" />
<glyph unicode="1" d="M209 68q0 31 12 67h273v1096h-273q-12 37 -12 67q0 16 3 34t9 34h455v-1231h254q12 -37 12 -67q0 -16 -3 -34t-9 -34h-709q-6 16 -9 34t-3 34z" />
<glyph unicode="2" d="M57 0q0 96 28 177t83 155t137 145.5t191 151.5l53 39l100 75q47 37 83 77t56.5 85t20.5 101q0 115 -69.5 177t-192.5 62q-72 0 -131.5 -19.5t-108.5 -50t-91 -67.5t-77 -74v187q27 23 67 53.5t95 58t124 47t153 19.5q82 0 156.5 -23.5t132 -72t91 -120t33.5 -167.5 q0 -86 -30.5 -155.5t-83 -128t-123 -112t-150.5 -106.5l-55 -37q-141 -94 -211 -184t-84 -139h598v227q39 12 78 12q43 0 80 -12v-381h-953z" />
<glyph unicode="3" d="M86 90v203q37 -25 77 -55.5t91 -56t114.5 -43t143.5 -17.5q68 0 124 19.5t97 54t63.5 84t22.5 110.5q0 88 -34.5 138.5t-86 77t-107.5 33.5t-102 7h-73q-12 39 -13 74q0 20 3.5 35.5t9.5 36.5h86q51 0 99 13t86 41.5t61.5 75t23.5 111.5q0 31 -12 69t-42 70.5t-80 54 t-128 21.5q-74 0 -134.5 -20.5t-109.5 -51t-84 -63.5t-55 -57v182q31 35 76 64.5t99 51t112.5 34t115.5 12.5q96 0 173 -28t131.5 -77t83 -114.5t28.5 -141.5q0 -68 -17.5 -118t-43 -86.5t-57 -62.5t-62.5 -44q49 -16 92 -43t75 -66.5t49 -94t17 -128.5q0 -80 -28.5 -156.5 t-89 -137t-154.5 -97.5t-227 -37t-243 39t-171 84z" />
<glyph unicode="4" d="M53 344v166l639 885h146v-912h211q12 -31 12 -69q0 -37 -12 -70h-211v-217h151q12 -31 12 -63.5t-12 -63.5h-489q-12 31 -12.5 63.5t12.5 63.5h174v217h-621zM195 483h479v680z" />
<glyph unicode="5" d="M109 80v186q41 -35 82.5 -61.5t89 -47t103.5 -30.5t128 -10q68 0 123 23.5t95 65.5t61.5 100.5t21.5 127.5q0 162 -79 238t-206 76q-90 0 -147 -35t-98 -99h-144l74 752h709q12 -37 12 -78q0 -18 -3 -43.5t-9 -44.5h-582l-39 -389q35 35 97.5 60.5t172.5 25.5 q76 0 152 -26.5t136.5 -81t97 -138.5t36.5 -198q0 -66 -20.5 -151t-73.5 -160.5t-147.5 -127t-241.5 -51.5q-80 0 -144.5 12.5t-113.5 30t-84.5 38t-58.5 36.5z" />
<glyph unicode="6" d="M92 645q0 115 25.5 247t88 244.5t168 187.5t263.5 75q117 0 193.5 -26.5t142.5 -57.5v-178q-72 47 -145.5 78.5t-176.5 31.5q-117 0 -191.5 -60.5t-115.5 -144.5t-56.5 -174t-15.5 -149q16 29 46 58.5t72 54t96.5 41t119.5 16.5q70 0 145.5 -22.5t139 -74t104.5 -136.5 t41 -210q0 -115 -33.5 -203.5t-95 -150t-149.5 -93.5t-199 -32q-90 0 -157.5 28t-116.5 71q-61 53 -99.5 125.5t-58.5 151.5t-27.5 157.5t-7.5 144.5zM293 428q0 -55 17.5 -111.5t52 -102.5t90 -74.5t133.5 -28.5q63 0 113.5 24.5t86 68.5t55 103.5t19.5 130.5 q0 51 -13 106.5t-46 99.5t-87.5 72.5t-135.5 28.5q-72 0 -126.5 -26.5t-89 -70.5t-52 -101.5t-17.5 -118.5z" />
<glyph unicode="7" d="M111 969v397h911v-154l-584 -1212h-194l616 1196h-592v-227q-41 -12 -78 -13q-42 1 -79 13z" />
<glyph unicode="8" d="M84 406q0 39 12.5 87t39 95t69.5 88t104 67q-29 14 -59.5 38t-57 58.5t-44 83t-17.5 113.5q0 68 22.5 133.5t74 116.5t131 82t196.5 31t196.5 -31t131 -82t74 -116.5t22.5 -133.5q0 -66 -17.5 -114t-44 -82.5t-58.5 -58t-58 -38.5q61 -27 104 -67.5t69.5 -87.5t39 -95.5 t12.5 -86.5q0 -90 -27.5 -169t-85 -139.5t-146.5 -95.5t-212 -35t-212 35t-146.5 95.5t-85 139.5t-27.5 169zM264 387q0 -82 27.5 -134t71 -83t94.5 -42t98 -11t98.5 11t94.5 42t70.5 83t27.5 134q0 70 -23.5 122t-63.5 85t-92.5 49t-111.5 16t-111.5 -16t-92.5 -49 t-63.5 -85t-23.5 -122zM305 1028q0 -96 68.5 -161.5t181.5 -65.5t181.5 65.5t68.5 161.5q0 33 -10.5 72t-38 73.5t-76.5 58t-125 23.5q-78 0 -126 -23.5t-75.5 -58t-38 -73.5t-10.5 -72z" />
<glyph unicode="9" d="M78 915q0 109 32.5 198t94 152.5t148.5 98.5t198 35q104 0 180 -33t128 -86t84 -123t49.5 -145.5t23.5 -151.5t6 -139q0 -123 -24.5 -256t-86 -243.5t-165 -182.5t-261.5 -72q-117 0 -198.5 24.5t-153.5 61.5v183q39 -25 76 -45.5t78 -36t90 -23.5t110 -8q111 0 180.5 54 t109.5 134t54.5 170t14.5 162q-14 -23 -44 -51.5t-74 -54t-99.5 -43t-120.5 -17.5q-70 0 -145.5 21.5t-139 73t-104.5 135t-41 208.5zM254 930q0 -53 13.5 -108.5t46 -100.5t87 -72.5t136.5 -27.5q72 0 125 26.5t88.5 70.5t53 102.5t17.5 119.5q0 63 -16.5 121.5t-51 102.5 t-88 70t-124.5 26q-68 0 -121 -25t-90 -70t-56.5 -105t-19.5 -130z" />
<glyph unicode=":" horiz-adv-x="550" d="M150 108.5q0 57.5 35.5 97.5t89 40t89 -40t35.5 -97.5t-35.5 -97.5t-89 -40t-89 40t-35.5 97.5zM150 901q0 57 35.5 97t89 40t89 -40t35.5 -97t-35.5 -97t-89 -40t-89 40t-35.5 97z" />
<glyph unicode=";" horiz-adv-x="550" d="M139 109q0 53 32 95t95 42q37 0 65.5 -17.5t47 -46t29 -66.5t10.5 -81q0 -117 -35 -189.5t-80 -114.5t-88 -58.5t-59 -18.5v102q78 35 108.5 93.5t30.5 132.5q-16 -4 -33 -5q-68 0 -95.5 41.5t-27.5 90.5zM158 901q0 57 35.5 97t89 40t89.5 -40t36 -97t-36 -97t-89.5 -40 t-89 40t-35.5 97z" />
<glyph unicode="&#x3c;" d="M72 616v140l968 411v-159l-774 -322l774 -321v-158z" />
<glyph unicode="=" d="M53 412v145h1004v-145h-1004zM53 813v145h1004v-145h-1004z" />
<glyph unicode="&#x3e;" d="M72 207v158l774 321l-774 322v159l968 -411v-140z" />
<glyph unicode="?" horiz-adv-x="1103" d="M139 1178v182q31 29 74 58.5t97.5 54t118 41t132.5 16.5q94 0 172 -27.5t133.5 -77t86 -117t30.5 -147.5q0 -113 -51 -201t-154 -194l-82 -88q-35 -39 -57.5 -81t-32.5 -91t-10 -119h-166q0 80 9 139.5t31 109.5t57.5 96t86.5 102q33 37 66 69.5t59.5 68.5t42 78t15.5 95 q0 41 -13.5 82t-46 73.5t-85 53t-128.5 20.5q-53 0 -108.5 -17.5t-106.5 -46t-95 -63t-75 -69.5zM393 108.5q0 57.5 36 97.5t89 40t89 -40t36 -97.5t-36 -97.5t-89 -40t-89 40t-36 97.5z" />
<glyph unicode="@" horiz-adv-x="1722" d="M113 524q0 168 62.5 310.5t169 247t249.5 163t303 58.5q143 0 272 -48.5t227.5 -134.5t156 -204.5t57.5 -260t-46 -247t-126 -177t-184.5 -106.5t-221.5 -35l6 96q-33 -45 -94 -81.5t-176 -36.5q-117 0 -192.5 62.5t-75.5 176.5v17q6 113 78.5 190.5t236.5 93.5l240 23 l2 22q0 8 1 16.5t1 16.5q0 72 -41 111t-146 39q-43 0 -82.5 -11.5t-75.5 -29t-66 -37t-52 -35.5l8 145q18 12 47 29.5t67 32t87 25t108 10.5q37 0 87.5 -7.5t96.5 -35t78.5 -79.5t32.5 -145v-24l-22 -438q61 14 112.5 52t88 91t57 120.5t20.5 141.5q0 121 -46 218 t-123.5 165t-180 104.5t-217.5 36.5q-137 0 -251 -49t-196.5 -137t-129 -207t-46.5 -260q0 -145 48.5 -264t133.5 -202t201.5 -128t253.5 -45q88 0 162 11.5t137.5 33t122 51t119.5 64.5l70 -119q-127 -76 -273.5 -127t-341.5 -51q-172 0 -317.5 57t-251 160.5t-165.5 249 t-60 321.5zM653 313q-2 -55 38 -87.5t110 -32.5q41 0 83 13t76.5 37.5t57 60.5t24.5 81l7 129l-205 -22q-90 -10 -139.5 -48t-51.5 -122v-9z" />
<glyph unicode="A" horiz-adv-x="1499" d="M16 71.5q0 34.5 13 71.5h137l491 1368h203l473 -1368h137q12 -37 12.5 -71.5t-12.5 -71.5h-503q-14 35 -14.5 72t14.5 71h176l-113 330h-581l-115 -330h176q12 -37 12 -71.5t-12 -71.5h-481q-13 37 -13 71.5zM502 627h477l-236 694z" />
<glyph unicode="B" horiz-adv-x="1413" d="M61 71.5q0 34.5 13 71.5h153v1207h-153q-12 37 -12.5 71.5t12.5 71.5h708q113 0 194 -31.5t133 -84t76.5 -120t24.5 -141.5q0 -35 -7 -77t-27.5 -85t-55.5 -83t-92 -66q43 -16 90 -44t86 -71t64.5 -105.5t25.5 -148.5t-29.5 -164.5t-90 -139t-151.5 -96.5t-214 -36h-735 q-13 37 -13 71.5zM410 156h381q158 0 232.5 77.5t74.5 198.5q0 80 -29 131t-75 82t-105.5 43t-120.5 12h-358v-544zM410 856h311q141 0 219 59.5t78 190.5q0 51 -14.5 93t-49 73t-91 48t-140.5 17h-313v-481z" />
<glyph unicode="C" horiz-adv-x="1464" d="M113 729q0 152 42 296t126 256t208.5 180.5t290.5 68.5q113 0 211.5 -39t175.5 -123v125q39 12 78 12q41 0 78 -12v-571q-43 -12 -84 -12.5t-84 12.5v98q0 74 -24.5 137.5t-71.5 110.5t-118 73.5t-163 26.5q-127 0 -215 -58.5t-143 -149.5t-80 -202.5t-25 -218.5 q0 -162 42 -276.5t112 -188t160 -108.5t188 -35t178 27.5t143.5 66.5t107.5 81t69 69v-219q-29 -27 -78 -61t-114.5 -62.5t-143.5 -49t-166 -20.5q-176 0 -308 60.5t-219 165t-130 243.5t-43 297z" />
<glyph unicode="D" horiz-adv-x="1505" d="M61 71.5q0 34.5 13 71.5h153v1207h-153q-12 37 -12.5 71.5t12.5 71.5h692q150 0 266.5 -55.5t196.5 -153.5t122 -231t42 -287q0 -121 -29 -255t-98.5 -247.5t-186 -188.5t-293.5 -75h-712q-13 37 -13 71.5zM414 160h362q94 0 170 42t130 119.5t84 187t30 245t-31 243 t-89 182t-143 114.5t-194 40h-319v-1173z" />
<glyph unicode="E" horiz-adv-x="1318" d="M61 71.5q0 34.5 13 71.5h153v1207h-153q-12 37 -12.5 71.5t12.5 71.5h1120v-434q-41 -12 -80 -12q-41 0 -80 12v274h-620v-485h620q12 -41 13 -80q0 -41 -13 -80h-620v-528h635v280q43 12 79 13q41 0 78 -13v-440h-1132q-13 37 -13 71.5z" />
<glyph unicode="F" horiz-adv-x="1247" d="M61 71.5q0 34.5 13 71.5h153v1207h-153q-12 37 -12.5 71.5t12.5 71.5h1100v-444q-37 -14 -80 -14.5t-80 14.5v280h-600v-479h571q14 -41 14 -82t-14 -82h-571v-541h184q14 -37 14 -73.5t-14 -71.5h-524q-13 37 -13 71.5z" />
<glyph unicode="G" horiz-adv-x="1550" d="M113 745.5q0 151.5 43 293t127 251t205.5 175t281.5 65.5q238 0 391 -162v123q39 12 78 12q41 0 78 -12v-524q-41 -12 -82 -13q-43 0 -82 13v77q0 63 -24.5 122t-72.5 104t-118 70.5t-160 25.5q-125 0 -213 -55.5t-143 -143.5t-81 -199.5t-26 -224.5q0 -145 39 -258.5 t108.5 -192.5t164 -120t202.5 -41q59 0 105.5 4t84.5 13.5t71.5 21.5t68.5 29v376h-213q-12 37 -12 72t12 72h533q12 -37 12 -72t-12 -72h-133v-452q0 -8 -3.5 -17.5t-15.5 -15.5q-27 -16 -77 -38.5t-115.5 -42t-144.5 -33t-161 -13.5q-190 0 -326 65.5t-222 174t-127 250 t-41 293z" />
<glyph unicode="H" horiz-adv-x="1562" d="M61 71.5q0 34.5 13 71.5h153v1207h-153q-12 37 -12.5 71.5t12.5 71.5h493q12 -37 12.5 -72t-12.5 -71h-153v-484h735v484h-154q-12 37 -12 71.5t12 71.5h494q12 -37 12 -72t-12 -71h-154v-1207h154q12 -37 12 -71.5t-12 -71.5h-494q-12 37 -12 71.5t12 71.5h154v564h-735 v-564h153q12 -37 12.5 -71.5t-12.5 -71.5h-493q-13 37 -13 71.5z" />
<glyph unicode="I" horiz-adv-x="675" d="M78 71.5q0 34.5 12 71.5h154v1207h-154q-12 37 -12 71.5t12 71.5h496q12 -37 12 -72t-12 -71h-156v-1207h156q12 -37 12 -71.5t-12 -71.5h-496q-12 37 -12 71.5z" />
<glyph unicode="J" horiz-adv-x="1056" d="M43 80v180q18 -14 52 -35.5t79 -42t100.5 -35t118.5 -14.5q143 0 197.5 81t54.5 253v883h-182q-12 37 -12 71.5t12 71.5h524q12 -37 12 -72t-12 -71h-156v-879q0 -139 -32.5 -234.5t-92 -153.5t-141.5 -83t-178 -25q-57 0 -110.5 12.5t-98.5 29t-80 34t-55 29.5z" />
<glyph unicode="K" horiz-adv-x="1431" d="M61 71.5q0 34.5 13 71.5h153v1207h-153q-12 37 -12.5 71.5t12.5 71.5h493q12 -37 12.5 -72t-12.5 -71h-153v-580l579 580h-186q-12 37 -12 71.5t12 71.5h536q12 -37 12.5 -72t-12.5 -71h-143l-442 -439l510 -768h145q12 -37 12 -71.5t-12 -71.5h-536q-12 37 -12.5 71.5 t12.5 71.5h167l-417 639l-213 -211v-428h153q12 -37 12.5 -71.5t-12.5 -71.5h-493q-13 37 -13 71.5z" />
<glyph unicode="L" horiz-adv-x="1210" d="M61 71.5q0 34.5 13 71.5h153v1207h-153q-12 37 -12.5 71.5t12.5 71.5h516q12 -37 12 -72t-12 -71h-176v-1190h565v338q43 12 80 12q41 0 78 -12v-498h-1063q-13 37 -13 71.5z" />
<glyph unicode="M" horiz-adv-x="1857" d="M61 71.5q0 34.5 13 71.5h153v1207h-153q-12 37 -12.5 71.5t12.5 71.5h434l348 -1049q8 -23 17 -55l20 -68l19 -70q9 -34 16 -58q6 27 16 62l20 71q9 35 18 65.5t15 48.5l349 1053h438q12 -37 12 -72t-12 -71h-156v-1207h156q12 -37 12 -71.5t-12 -71.5h-490 q-12 37 -12 71.5t12 71.5h154v1008q0 45 1 109.5t3 117.5l-444 -1339h-183l-442 1331q2 -55 3 -116.5t1 -102.5v-1008h156q12 -37 12 -71.5t-12 -71.5h-469q-13 37 -13 71.5z" />
<glyph unicode="N" horiz-adv-x="1550" d="M61 71.5q0 34.5 13 71.5h153v1207h-153q-12 37 -12.5 71.5t12.5 71.5h379l602 -1042q10 -18 23 -45l29 -60l31 -67l29 -68q0 31 -1 71t-2 75.5t-2 63.5t-1 38v891h-166q-12 37 -12 71.5t12 71.5h494q12 -37 12 -72t-12 -71h-164v-1368h-195l-634 1101q-12 20 -28 51 l-31 61l-29 63l-27 59q2 -33 3 -75l2 -82q1 -40 2 -73.5t1 -48.5v-895h160q12 -37 12 -71.5t-12 -71.5h-475q-13 37 -13 71.5z" />
<glyph unicode="O" horiz-adv-x="1615" d="M113 745q0 129 33.5 267.5t114.5 253t214 189.5t334 75q133 0 235.5 -35t180.5 -93.5t131 -136t86 -164.5t47 -178.5t14 -177.5q0 -84 -14 -175t-47 -178t-86 -164.5t-131 -136t-180.5 -93.5t-235.5 -35q-201 0 -334 75t-214 189.5t-114.5 252.5t-33.5 265zM315 745.5 q0 -143.5 37 -259t103.5 -197.5t156.5 -126t196.5 -44t197 44t156 126t102 197.5t36.5 259t-36.5 260t-102 198.5t-156 126t-197 44t-196.5 -44t-156.5 -126t-103.5 -198.5t-37 -260z" />
<glyph unicode="P" horiz-adv-x="1304" d="M61 1421q0 35 13 72h743q102 0 181 -33t133.5 -90t82 -134t27.5 -163q0 -74 -22.5 -150.5t-72.5 -139t-131 -102.5t-198 -40h-407v-498h176q12 -37 12 -71.5t-12 -71.5h-512q-12 37 -12.5 71.5t12.5 71.5h153v1207h-153q-13 36 -13 71zM410 797h342q135 0 213.5 64.5 t78.5 209.5q0 137 -76.5 201.5t-207.5 64.5h-350v-540z" />
<glyph unicode="Q" horiz-adv-x="1615" d="M113 745q0 129 33.5 267.5t114.5 253t214 189.5t334 75q133 0 235.5 -35t180.5 -93.5t131 -136t86 -164.5t47 -178.5t14 -177.5q0 -113 -25.5 -236.5t-89 -234t-171 -192.5t-271.5 -109q82 -82 223 -82q33 0 69 2.5t77 10.5t87 25.5t101 45.5v-165q-47 -23 -136 -47.5 t-206 -24.5q-147 0 -266 65.5t-197 169.5q-162 14 -273.5 91t-181 186.5t-100 240.5t-30.5 254zM315 745.5q0 -141.5 37 -256t103.5 -195.5t156.5 -125t196.5 -44t197 44t156 125t102 195.5t36.5 256t-36.5 257t-102 196.5t-156 125t-197 44t-196.5 -44t-156.5 -125 t-103.5 -196.5t-37 -257z" />
<glyph unicode="R" horiz-adv-x="1433" d="M61 1421q0 35 13 72h764q102 0 181 -31.5t133 -88t82 -132.5t28 -162q0 -59 -15.5 -122.5t-50.5 -122t-94.5 -103.5t-145.5 -63l285 -525h150q12 -37 12 -71.5t-12 -71.5h-312l-325 653h-344v-510h186q12 -37 12 -71.5t-12 -71.5h-522q-12 37 -12.5 71.5t12.5 71.5h153 v1207h-153q-13 36 -13 71zM410 809h362q133 0 213 61.5t80 206.5q0 137 -78 198.5t-207 61.5h-370v-528z" />
<glyph unicode="S" horiz-adv-x="1325" d="M98 0v537q43 12 82 12q43 0 80 -12v-86q0 -63 31 -123t88 -105t140 -71.5t188 -26.5q166 0 256 65.5t90 182.5q0 59 -21.5 103t-59.5 77t-90.5 56.5t-113.5 39.5l-326 88q-61 16 -118.5 46t-100.5 74t-68.5 103.5t-25.5 137.5q0 106 40 186t106.5 134.5t154.5 82 t184 27.5q154 0 256.5 -51.5t149.5 -124.5v141q39 12 78 12q41 0 78 -12v-502q-41 -12 -80 -12q-41 0 -80 12v68q0 61 -24.5 117.5t-74 100.5t-122 69.5t-170.5 25.5q-135 0 -223.5 -62.5t-88.5 -185.5q0 -86 51.5 -137t161.5 -80l328 -88q92 -25 166 -60.5t125 -88 t77.5 -124t26.5 -169.5t-41 -174t-113.5 -129.5t-171 -81t-210.5 -27.5q-168 0 -277.5 51.5t-181.5 137.5v-154q-41 -12 -78 -12q-39 0 -78 12z" />
<glyph unicode="T" horiz-adv-x="1402" d="M72 1032v461h1259v-461q-41 -12 -80 -12q-41 0 -80 12v311h-376v-1200h161q12 -37 12.5 -71.5t-12.5 -71.5h-510q-12 37 -12 71.5t12 71.5h162v1200h-377v-311q-41 -12 -79 -12q-41 0 -80 12z" />
<glyph unicode="U" horiz-adv-x="1552" d="M49 1421q0 35 12 72h496q12 -37 12 -72t-12 -71h-156v-826q0 -117 33 -192.5t87 -120.5t121 -63.5t134.5 -18.5t135 18.5t121.5 63.5t88 121t34 192v826h-151q-12 37 -12.5 71.5t12.5 71.5h487q12 -37 12 -72t-12 -71h-158v-850q0 -109 -32.5 -206t-100 -171t-173 -117 t-251 -43t-252 43t-175 117t-101.5 171t-33 206v850h-154q-12 36 -12 71z" />
<glyph unicode="V" horiz-adv-x="1470" d="M16 1421q0 35 13 72h503q12 -37 12.5 -72t-12.5 -71h-176l244 -713l32 -99l41 -131q22 -69 39 -135l27 -106q10 43 30 107l41 135l43 131l34 98l252 713h-176q-12 37 -12.5 71.5t12.5 71.5h479q12 -37 12 -72t-12 -71h-137l-486 -1368h-186l-467 1368h-137q-13 36 -13 71 z" />
<glyph unicode="W" horiz-adv-x="2099" d="M16 1421q0 35 13 72h501q12 -37 12.5 -72t-12.5 -71h-174l201 -795l17 -72l23 -100l21 -103l17 -81q6 31 17 82l24 104l23 99l18 71l250 938h190l240 -938q6 -23 17 -70l23 -101l21 -104q10 -50 15 -81q6 31 17 81l23 103l24 100l17 72l211 795h-172q-12 37 -12 71.5 t12 71.5h478q12 -37 12 -72t-12 -71h-142l-373 -1368h-190l-240 925q-6 23 -17 70l-23 99l-21 103q-10 50 -14 81q-6 -31 -18 -81l-23 -103l-24 -98l-17 -71l-250 -925h-191l-360 1368h-139q-13 36 -13 71z" />
<glyph unicode="X" horiz-adv-x="1480" d="M37 71.5q0 34.5 12 71.5h131l463 611l-440 596h-129q-12 37 -12.5 71.5t12.5 71.5h538q12 -37 12.5 -72t-12.5 -71h-198l336 -457l346 457h-199q-12 37 -12 71.5t12 71.5h514q12 -37 12 -72t-12 -71h-129l-440 -580l461 -627h131q12 -37 12 -71.5t-12 -71.5h-541 q-12 37 -12 71.5t12 71.5h199l-357 486l-368 -486h196q12 -37 12 -71.5t-12 -71.5h-514q-12 37 -12 71.5z" />
<glyph unicode="Y" horiz-adv-x="1474" d="M16 1421q0 35 13 72h508q12 -37 12 -72t-12 -71h-187l391 -600l404 600h-189q-12 37 -12 71.5t12 71.5h490q12 -37 12 -72t-12 -71h-119l-506 -752v-455h164q12 -37 12 -71.5t-12 -71.5h-512q-12 37 -12 71.5t12 71.5h162v457l-488 750h-118q-13 36 -13 71z" />
<glyph unicode="Z" horiz-adv-x="1290" d="M61 0v160l912 1173h-711v-282q-41 -12 -80 -12.5t-78 12.5v442h1088v-160l-913 -1173h792v289q39 12 78 12q43 0 80 -12v-449h-1168z" />
<glyph unicode="[" horiz-adv-x="550" d="M121 -344v1896h375v-127h-203v-1642h203v-127h-375z" />
<glyph unicode="\" horiz-adv-x="663" d="M0 1552h152l512 -1589h-152z" />
<glyph unicode="]" horiz-adv-x="550" d="M55 -217h203v1642h-203v127h375v-1896h-375v127z" />
<glyph unicode="^" horiz-adv-x="1130" d="M72 524l424 842h143l420 -842h-174l-324 650l-323 -650h-166z" />
<glyph unicode="_" horiz-adv-x="1024" d="M0 -150h1024v-131h-1024v131z" />
<glyph unicode="`" horiz-adv-x="700" d="M147 1456h226l178 -278h-145z" />
<glyph unicode="a" horiz-adv-x="1091" d="M70 281q0 68 19.5 127t62.5 105t112.5 74.5t169.5 39.5l301 28v35q0 55 -11 98t-39 73t-75 45.5t-121 15.5q-55 0 -104 -14.5t-91 -34t-76 -42t-54 -38.5v161q20 14 53 34t79 37t105.5 29.5t133.5 12.5q45 0 109.5 -9t123.5 -45t100 -105.5t41 -190.5v-590h131 q12 -31 12.5 -63.5t-12.5 -63.5h-297v139q-16 -29 -40.5 -58.5t-64.5 -54t-96.5 -40t-131.5 -15.5q-150 0 -245 81.5t-95 228.5zM244 279q0 -76 53 -121t145 -45q51 0 104.5 16t94.5 47t67.5 77t26.5 105v166l-258 -26q-113 -12 -173 -61t-60 -158z" />
<glyph unicode="b" horiz-adv-x="1181" d="M39 63.5q0 34.5 14 63.5h137v1298h-137q-14 29 -14 64t14 63h312v-651q16 25 40.5 53.5t61.5 53t87 42t116 17.5q102 0 183 -40t136 -109.5t84 -164t29 -202.5q0 -94 -21.5 -196.5t-74 -188.5t-140.5 -141.5t-221 -55.5q-92 0 -172 46t-119 135v-150h-301 q-14 29 -14 63.5zM356 510q0 -119 30 -195.5t73 -120.5t92 -61.5t90 -17.5q70 0 122 30.5t88 86t53.5 129t17.5 159.5q0 49 -9.5 118t-39 131t-86 105.5t-150.5 43.5q-92 0 -148.5 -43t-85 -106.5t-38 -133.5t-9.5 -125z" />
<glyph unicode="c" horiz-adv-x="1017" d="M80 494q0 117 27.5 219t85 179t144.5 122t204 45q92 0 159.5 -37t96.5 -88v98q33 12 63 12q35 0 66 -12v-422q-37 -12 -72 -12t-72 12v56q0 117 -61.5 183t-169.5 66q-88 0 -144.5 -37.5t-89 -97t-45 -132.5t-12.5 -144q0 -94 24.5 -165t67.5 -118t102.5 -70.5 t127.5 -23.5q63 0 118.5 17.5t98.5 41t73.5 47l47.5 37.5v-180q-23 -16 -56 -36.5t-77 -39t-100 -31t-124 -12.5q-117 0 -207 41t-151.5 113t-93 166t-31.5 203z" />
<glyph unicode="d" horiz-adv-x="1179" d="M80 539q0 113 28.5 210t84 167.5t135.5 110.5t184 40q66 0 116 -17.5t87 -43t61.5 -54t38.5 -51.5v524h-135q-14 29 -14 64t14 63h311v-1425h135q14 -29 14.5 -63.5t-14.5 -63.5h-301v152q-16 -43 -45.5 -76t-68.5 -56.5t-84 -36t-90 -12.5q-133 0 -221.5 53.5 t-140.5 135.5t-73.5 182.5t-21.5 196.5zM260 520q0 -86 17.5 -159.5t53.5 -128t88 -85t122 -30.5q39 0 88 17.5t92 61.5t72.5 119.5t29.5 194.5q0 55 -9 125t-39 133t-85 106t-145 43q-94 0 -150.5 -43t-86 -105t-39 -131t-9.5 -118z" />
<glyph unicode="e" horiz-adv-x="1036" d="M80 520.5q0 106.5 26.5 205.5t81 175t139.5 121t201 45q125 0 208 -47t134.5 -125t73 -178.5t21.5 -204.5v-43h-701q2 -66 24.5 -127t63.5 -109.5t101.5 -78t140.5 -29.5q113 0 187.5 35t133.5 73v-172q-53 -31 -140 -60.5t-179 -29.5q-137 0 -235.5 46t-161 123 t-91 175.5t-28.5 205zM264 596h518q0 51 -11 108.5t-40 106.5t-79 81t-128 32q-72 0 -122 -35t-80.5 -85t-44 -106.5t-13.5 -101.5z" />
<glyph unicode="f" horiz-adv-x="659" d="M49 975q0 33 12 63h162v179q0 98 26.5 165.5t69.5 110.5t99.5 61.5t116.5 18.5q53 0 93 -9.5t72 -23.5v-145l-54 23q-32 13 -93 14q-63 0 -109.5 -44.5t-46.5 -146.5v-203h226q12 -31 12 -63.5t-12 -63.5h-226v-784h203q12 -31 12 -63.5t-12 -63.5h-526 q-12 31 -12.5 63.5t12.5 63.5h149v784h-162q-12 31 -12 64z" />
<glyph unicode="g" horiz-adv-x="1179" d="M80 553q0 115 28.5 209t84 161.5t135.5 105.5t184 38q70 0 123 -19.5t90 -47t60.5 -58.5t35.5 -51h4v147h303q12 -31 12.5 -63.5t-12.5 -63.5h-137v-768q0 -145 -33.5 -242.5t-95 -157.5t-149.5 -86t-197 -26q-63 0 -121.5 9.5t-106.5 22.5t-85 29.5t-58 31.5v163 q25 -16 60 -35.5t79 -37t97 -29.5t117 -12q166 0 241.5 77.5t75.5 237.5v78q-35 -74 -111.5 -120t-168.5 -46q-135 0 -222.5 50t-139.5 130t-72.5 178.5t-20.5 194.5zM260 537q0 -86 18.5 -158t53.5 -124t88 -81t121 -29q41 0 90 15.5t92 57.5t71.5 116t28.5 192 q0 55 -9 123t-39 127.5t-84 100.5t-146 41q-94 0 -150.5 -41t-86 -99.5t-39 -125t-9.5 -115.5z" />
<glyph unicode="h" horiz-adv-x="1198" d="M39 63.5q0 32.5 12 63.5h139v1298h-139q-12 31 -12 64t12 63h314v-645q39 70 115.5 115t187.5 45q164 0 253 -93t89 -276v-571h137q12 -31 12 -63.5t-12 -63.5h-434q-12 31 -12.5 63.5t12.5 63.5h121v512q0 63 -8.5 115.5t-32 87.5t-64.5 54t-104 19q-47 0 -93.5 -17 t-83 -57t-60 -107.5t-23.5 -168.5v-438h120q12 -31 12.5 -63.5t-12.5 -63.5h-434q-12 31 -12 63.5z" />
<glyph unicode="i" horiz-adv-x="598" d="M66 63.5q0 32.5 12 63.5h139v784h-139q-12 31 -12 64t12 63h313v-911h139q12 -31 12.5 -63.5t-12.5 -63.5h-452q-12 31 -12 63.5zM160 1374q0 53 33.5 89t81 36t81 -36t33.5 -89t-33.5 -89t-81 -36t-81 36t-33.5 89z" />
<glyph unicode="j" horiz-adv-x="567" d="M-57 -199q29 -12 64.5 -23t76.5 -11q63 0 93 33.5t30 107.5v1003h-137q-12 31 -12.5 64t12.5 63h313v-1079q0 -102 -24.5 -166.5t-63.5 -100.5t-89 -48.5t-101.5 -12.5t-92.5 10.5t-69 24.5v135zM152 1374q0 53 33.5 89t80.5 36t81 -36t34 -89t-34 -89t-81 -36t-80.5 36 t-33.5 89z" />
<glyph unicode="k" horiz-adv-x="1138" d="M39 63.5q0 32.5 12 63.5h139v1298h-139q-12 31 -12 64t12 63h314v-987l415 355h-168q-12 25 -12 59q0 29 12 59h469q12 -31 12.5 -63.5t-12.5 -63.5h-127l-292 -245l348 -539h108q12 -31 12 -63.5t-12 -63.5h-426q-12 31 -12 63.5t12 63.5h111l-271 430l-167 -141v-289 h110q12 -31 12 -63.5t-12 -63.5h-424q-12 31 -12 63.5z" />
<glyph unicode="l" horiz-adv-x="579" d="M51 63.5q0 32.5 12 63.5h140v1298h-140q-12 31 -12 64t12 63h314v-1425h139q12 -31 12 -63.5t-12 -63.5h-453q-12 31 -12 63.5z" />
<glyph unicode="m" horiz-adv-x="1757" d="M49 975q0 33 12 63h287v-153q14 27 37 59.5t58.5 59t87 45t122.5 18.5q109 0 178.5 -41t110.5 -125q18 31 43 60.5t60.5 53t86 38t117.5 14.5q166 0 242 -92t76 -277v-571h139q12 -31 12 -63.5t-12 -63.5h-434q-12 31 -12 63.5t12 63.5h121v512q0 61 -5.5 112.5t-25 88.5 t-56 57.5t-100.5 20.5q-45 0 -88 -17.5t-75.5 -57.5t-52 -108.5t-19.5 -169.5v-438h121q12 -31 12 -63.5t-12 -63.5h-416q-12 31 -12 63.5t12 63.5h121v512q0 61 -5.5 112.5t-24.5 88.5t-56 57.5t-101 20.5q-45 0 -88 -17.5t-75.5 -57.5t-52 -108.5t-19.5 -169.5v-438h121 q12 -31 12 -63.5t-12 -63.5h-435q-12 31 -12 63.5t12 63.5h140v784h-140q-12 31 -12 64z" />
<glyph unicode="n" horiz-adv-x="1208" d="M49 63.5q0 32.5 12 63.5h140v784h-140q-12 31 -12 64t12 63h287v-153q14 27 41 59.5t67 59t95 45t127 18.5q164 0 252 -93t88 -276v-571h139q12 -31 12 -63.5t-12 -63.5h-434q-12 31 -12 63.5t12 63.5h121v512q0 63 -8.5 115.5t-32 87.5t-64.5 54t-104 19q-47 0 -93 -17 t-83 -57t-60.5 -107.5t-23.5 -168.5v-438h121q12 -31 12 -63.5t-12 -63.5h-435q-12 31 -12 63.5z" />
<glyph unicode="o" horiz-adv-x="1124" d="M80 520.5q0 100.5 28.5 198.5t88 175t149.5 125t215 48t216 -48t150.5 -125t88 -175t28.5 -198.5t-28.5 -199t-88 -176t-150.5 -126t-216 -48.5t-215 48.5t-149.5 126t-88 176t-28.5 199zM260 520q0 -53 12.5 -121.5t45 -131t91 -105.5t152.5 -43t152.5 43t92.5 105.5 t46 131t12 121.5q0 51 -12 121t-46 131.5t-92.5 104.5t-152.5 43t-152.5 -43t-91 -104.5t-45 -131.5t-12.5 -121z" />
<glyph unicode="p" horiz-adv-x="1181" d="M39 -280.5q0 32.5 12 63.5h139v1128h-139q-12 31 -12 64t12 63h305v-147h2q12 20 37 51t62 58.5t89 47t124 19.5q102 0 183 -40t136 -109.5t84 -164t29 -202.5q0 -94 -20.5 -196.5t-72 -188.5t-138.5 -141.5t-218 -55.5q-41 0 -85 12.5t-84 34t-71.5 53t-47.5 72.5v-358 h149q12 -31 12 -63.5t-12 -63.5h-463q-12 31 -12 63.5zM356 510q0 -119 30 -195.5t73 -120.5t92 -61.5t90 -17.5q70 0 122 30.5t88 86t53.5 129t17.5 159.5q0 49 -9.5 118t-39 131t-86 105.5t-150.5 43.5q-92 0 -148.5 -43.5t-85 -106.5t-38 -133t-9.5 -125z" />
<glyph unicode="q" horiz-adv-x="1179" d="M80 539q0 113 28.5 210t84 167.5t135.5 110.5t184 40q70 0 123 -19.5t90 -47t60.5 -58.5t35.5 -51h4v147h303q12 -31 12.5 -63.5t-12.5 -63.5h-137v-1128h137q12 -31 12.5 -63.5t-12.5 -63.5h-460q-12 31 -12.5 63.5t12.5 63.5h147v358q-14 -37 -42 -67.5t-65.5 -54 t-81.5 -37t-89 -13.5q-133 0 -221.5 53.5t-140.5 136.5t-73.5 183.5t-21.5 196.5zM260 520q0 -86 17.5 -159.5t53.5 -129t88 -86t122 -30.5q39 0 88 17t92 61.5t72.5 121t29.5 195.5q0 55 -9 125t-39 133t-84 106.5t-146 43.5q-96 0 -152.5 -43.5t-85 -105.5t-38 -131 t-9.5 -118z" />
<glyph unicode="r" horiz-adv-x="780" d="M49 63.5q0 32.5 12 63.5h140v784h-140q-12 31 -12 64t12 63h287v-196q12 33 39 67.5t66 63t86 47t100 18.5q35 0 64.5 -5t54.5 -15l-17 -168q-18 10 -47.5 20.5t-77.5 10.5q-39 0 -80.5 -16.5t-77.5 -55.5t-59.5 -105.5t-23.5 -166.5v-410h149q12 -31 12.5 -63.5 t-12.5 -63.5h-463q-12 31 -12 63.5z" />
<glyph unicode="s" horiz-adv-x="1015" d="M96 6v387q37 12 68 13q35 0 65 -13v-45q0 -53 25 -97t67 -75t97 -47t117 -16q96 0 159.5 34.5t63.5 110.5q0 39 -13.5 66.5t-40 48t-65.5 36t-90 29.5l-203 56q-106 29 -170.5 91t-64.5 169q0 84 31.5 143t82.5 96t114.5 53.5t129.5 16.5q109 0 177.5 -36t96.5 -85v94 q33 12 66 13q35 0 65 -13v-356q-35 -12 -69.5 -12t-67.5 12v43q0 37 -15 75t-48 68.5t-82 50t-117 19.5q-82 0 -142.5 -37t-60.5 -119q0 -66 44 -93.5t147 -53.5l174 -45q76 -20 131 -47t92 -65t54.5 -89t17.5 -121q0 -66 -30 -119t-82 -91t-123.5 -58.5t-155.5 -20.5 q-98 0 -180 30t-136 93v-94q-35 -12 -65 -12q-33 0 -64 12z" />
<glyph unicode="t" horiz-adv-x="659" d="M10 975q0 33 13 63h157v279l176 94v-373h246q12 -31 12 -63.5t-12 -63.5h-246v-641q0 -143 127 -143q55 0 92 12.5t56 22.5v-139q-33 -20 -83 -28.5t-89 -8.5q-139 0 -209 76.5t-70 216.5v632h-157q-13 31 -13 64z" />
<glyph unicode="u" horiz-adv-x="1196" d="M39 975q0 33 12 63h311v-639q0 -66 9.5 -117t32 -85.5t63.5 -54t104 -19.5q45 0 92.5 17.5t84 57.5t60 107.5t23.5 167.5v438h-137q-12 31 -12 64t12 63h314v-911h137q12 -31 12 -63.5t-12 -63.5h-285v154q-18 -29 -45 -61t-66.5 -59.5t-93 -46t-125.5 -18.5 q-166 0 -254 93.5t-88 277.5v571h-137q-12 31 -12 64z" />
<glyph unicode="v" horiz-adv-x="1099" d="M10 975q0 33 13 63h411q12 -31 12 -63.5t-12 -63.5h-131l201 -585l12 -38q8 -26 16 -56l16 -56l11 -41q2 14 10 41l18 56l17 56l12 38l199 585h-127q-12 31 -12 64t12 63h389q12 -31 12.5 -63.5t-12.5 -63.5h-106l-332 -917h-178l-334 917h-104q-13 31 -13 64z" />
<glyph unicode="w" horiz-adv-x="1636" d="M10 975q0 33 13 63h417q12 -31 12.5 -63.5t-12.5 -63.5h-129l129 -450l19 -72l20 -90l19.5 -95t15.5 -85l14 84q8 47 18 94l17 89q8 42 17 71l157 581h183l155 -579q8 -29 17.5 -71t18.5 -89l18 -94l16 -84q6 37 15 84t19.5 94l20.5 89t19 71l127 452h-125 q-12 31 -12.5 64t12.5 63h393q12 -31 12 -63.5t-12 -63.5h-107l-274 -917h-182l-154 563q-8 27 -18 70l-22 90l-21.5 95t-16.5 87q-6 -39 -15 -87t-21 -95l-21 -90q-10 -43 -19 -70l-153 -563h-182l-279 917h-106q-13 31 -13 64z" />
<glyph unicode="x" horiz-adv-x="1097" d="M20 63.5q0 32.5 13 63.5h98l330 393l-311 391h-99q-12 31 -12 64t12 63h416q12 -31 12 -63.5t-12 -63.5h-129l221 -280l229 280h-122q-12 31 -12.5 64t12.5 63h383q12 -31 12 -63.5t-12 -63.5h-97l-313 -374l328 -410h98q12 -31 12 -63.5t-12 -63.5h-416q-12 31 -12 63.5 t12 63.5h125l-233 299l-244 -299h123q12 -31 12 -63.5t-12 -63.5h-387q-13 31 -13 63.5z" />
<glyph unicode="y" horiz-adv-x="1099" d="M10 975q0 33 13 63h417q12 -31 12.5 -63.5t-12.5 -63.5h-131l201 -594l11 -34l15 -49l14 -49q7 -24 9 -38q2 14 8 38t14.5 49.5l16.5 48l12 34.5l199 594h-127q-12 31 -12 64t12 63h395q12 -31 12.5 -63.5t-12.5 -63.5h-106l-359 -1001q-29 -82 -64.5 -136.5t-77.5 -86 t-93 -44t-110.5 -12.5t-97.5 9.5t-73 21.5v137q35 -12 78 -20t78 -8t65.5 6t56 27.5t48 62.5t43.5 108l-336 936h-106q-13 31 -13 64z" />
<glyph unicode="z" horiz-adv-x="913" d="M39 0v139l637 772h-467v-213q-37 -12 -72 -12t-71 12v340h790v-139l-637 -772h512v211q37 12 72 12q37 0 71 -12v-338h-835z" />
<glyph unicode="{" horiz-adv-x="663" d="M78 543v127q33 0 62.5 18.5t51 52t34 79.5t12.5 102v374q0 61 17 108.5t46 80.5t65.5 50t73.5 17h146v-127h-88q-53 0 -71.5 -48t-18.5 -115v-375q0 -74 -21.5 -125t-51.5 -84t-58.5 -49.5t-43.5 -20.5v-4q14 -4 43 -20.5t59 -49t51.5 -85t21.5 -130.5v-372 q0 -66 18 -115t72 -49h88v-127h-146q-37 0 -73.5 17.5t-65.5 50t-46 79.5t-17 109v373q0 113 -46 185.5t-114 72.5z" />
<glyph unicode="|" horiz-adv-x="516" d="M186 -37v1589h146v-1589h-146z" />
<glyph unicode="}" horiz-adv-x="663" d="M78 -217h88q53 0 71.5 49t18.5 115v372q0 78 21.5 130.5t51 85t58.5 49t43 20.5v4q-14 4 -43 20.5t-58.5 49.5t-51 84t-21.5 125v375q0 68 -18.5 115.5t-71.5 47.5h-88v127h145q37 0 74 -17t65.5 -50t46 -80t17.5 -109v-374q0 -55 12.5 -101.5t34 -80t50 -52t63.5 -18.5 v-127q-68 0 -114 -73t-46 -185v-373q0 -61 -17.5 -108.5t-46 -80t-65.5 -50t-74 -17.5h-145v127z" />
<glyph unicode="~" horiz-adv-x="1333" d="M72 319q25 186 104.5 277.5t208.5 91.5q57 0 100 -10t111 -37l215 -84q33 -12 68.5 -21.5t78.5 -9.5q78 0 118 49.5t61 145.5h125q-25 -186 -105 -277.5t-209 -91.5q-57 0 -101 12.5t-87 28.5l-238 90q-33 12 -68.5 21.5t-78.5 9.5q-78 0 -118 -49t-60 -146h-125z" />
<glyph unicode="&#xa1;" horiz-adv-x="550" d="M152 927.5q0 57.5 35.5 97.5t89 40t89 -40t35.5 -97.5t-35.5 -97t-89 -39.5t-89 39.5t-35.5 97zM168 -344l37 1018h143l37 -1018h-217z" />
<glyph unicode="&#xa2;" d="M119 661q0 106 24.5 204t73.5 173.5t125 123.5t178 61v176h123v-178q68 -10 119 -44t74 -75v98q33 12 63 12q35 0 66 -12v-422q-37 -12 -72 -12t-72 12v62q0 102 -46 165.5t-132 79.5v-796q59 4 110.5 21.5t91.5 41t68 45.5l45 35v-174l-52 -33q-30 -18 -68.5 -35.5 t-87 -31t-107.5 -17.5v-174h-123v178q-98 12 -173 58.5t-125 115t-76.5 156.5t-26.5 186zM293 672q0 -154 62.5 -247t164.5 -122v780q-68 -16 -111.5 -58t-69.5 -98.5t-36 -124t-10 -130.5z" />
<glyph unicode="&#xa3;" d="M61 716.5q0 16.5 3.5 34t9.5 33.5h180q-12 47 -24.5 119t-12.5 150q0 45 18.5 104.5t65.5 112.5t126 91t200 38q117 0 196.5 -31t145.5 -65v-179q-59 45 -142.5 84t-185.5 39q-137 0 -196.5 -62.5t-59.5 -164.5q0 -78 12.5 -132t28.5 -104h393q6 -16 9 -33.5t3 -34 t-3 -33.5t-9 -34h-350q4 -23 7 -46t3 -50q0 -72 -15 -128t-42 -103.5t-61.5 -90.5t-73.5 -86h596v236q39 12 78 12q43 0 79 -12v-381h-972v135l91 82q44 39 76.5 85t52 103.5t19.5 139.5q0 57 -12 104h-221q-6 16 -9.5 33.5t-3.5 34z" />
<glyph unicode="&#xa4;" horiz-adv-x="1103" d="M41 260l119 121q-47 63 -74 139t-27 162t27 162t74 139l-119 121l92 92l119 -121q63 49 141 77t164 28q84 0 159 -26t138 -73l115 115l92 -92l-113 -115q49 -63 78 -142t29 -165q0 -88 -29 -166t-78 -143l113 -113l-92 -92l-115 115q-63 -47 -138 -73t-159 -26 q-86 0 -164 28t-141 77l-119 -121zM207 682q0 -76 27.5 -142.5t74.5 -115.5t110.5 -78t137.5 -29t137.5 29t110.5 78t74.5 115.5t27.5 142.5t-27.5 142.5t-74.5 115.5t-110.5 78t-137.5 29t-137.5 -29t-110.5 -78t-74.5 -115.5t-27.5 -142.5z" />
<glyph unicode="&#xa5;" d="M4 1300.5q0 28.5 10 65.5h424q12 -35 13 -66q0 -33 -13 -65h-149l268 -498l283 498h-152q-12 33 -12 65q0 31 12 66h408q10 -37 10 -65.5t-10 -65.5h-88l-297 -510h293v-102h-371v-168h371v-103h-371v-221h149q10 -37 10.5 -65.5t-10.5 -65.5h-469q-12 33 -12 66 q0 31 12 65h148v221h-355v103h355v168h-355v102h281l-285 510h-88q-10 37 -10 65.5z" />
<glyph unicode="&#xa6;" horiz-adv-x="516" d="M186 -37v529h146v-529h-146zM186 1022v530h146v-530h-146z" />
<glyph unicode="&#xa7;" horiz-adv-x="1138" d="M88 651q0 66 15.5 116t43 89t64.5 69.5t82 57.5q-53 57 -74.5 109.5t-21.5 111.5q0 72 30.5 132.5t84 103.5t125 66.5t153.5 23.5q63 0 121.5 -14.5t105.5 -36t83 -44t56 -36.5v-195q-29 31 -64.5 61.5t-79.5 55.5t-96 41t-116 16q-96 0 -159.5 -37.5t-63.5 -130.5 q0 -57 39 -99t110 -85l299 -184q47 -29 88 -59.5t71 -68.5t47.5 -85t17.5 -111q0 -66 -18.5 -115t-48.5 -89t-67.5 -69.5t-76.5 -54.5q25 -25 44 -49t32.5 -53t21.5 -63.5t8 -79.5q0 -74 -30.5 -132.5t-81 -98.5t-118 -61.5t-141.5 -21.5q-145 0 -249.5 47.5t-169.5 106.5 v192q20 -27 60 -60.5t90 -63t107.5 -50t116.5 -20.5q39 0 80 5t76 22.5t57.5 48t22.5 80.5q0 31 -8 56t-26.5 49t-49.5 48.5t-74 52.5l-338 226q-59 39 -95 78.5t-54.5 76.5t-24.5 69.5t-6 55.5zM258 696q0 -41 11.5 -71.5t32 -55t46.5 -44.5l58 -40l331 -213 q51 35 96.5 84.5t45.5 122.5q0 68 -39 119t-109 96l-332 211q-59 -29 -100 -83t-41 -126z" />
<glyph unicode="&#xa8;" horiz-adv-x="700" d="M66 1307q0 47 31.5 79.5t72.5 32.5t71.5 -32.5t30.5 -79.5t-30.5 -80t-71.5 -33t-72.5 33t-31.5 80zM428 1307q0 47 30.5 79.5t71.5 32.5t73 -32.5t32 -79.5t-32 -80t-73 -33t-71.5 33t-30.5 80z" />
<glyph unicode="&#xa9;" horiz-adv-x="1810" d="M113 750q0 168 63.5 311t172 247.5t252.5 163t306 58.5q160 0 303.5 -58.5t252 -163t172 -247.5t63.5 -311q0 -170 -63.5 -314.5t-172 -249t-252 -164t-303.5 -59.5q-162 0 -306 59.5t-252.5 164t-172 249t-63.5 314.5zM270 750q0 -141 49.5 -261t135.5 -208 t201.5 -137.5t250.5 -49.5q133 0 249 49.5t201 137.5t134 207.5t49 261.5q0 139 -49 257.5t-134 205.5t-201 136.5t-249 49.5q-135 0 -250.5 -49.5t-201.5 -136.5t-135.5 -205.5t-49.5 -257.5zM483 737q0 90 26 176t76 154t124.5 109t173.5 41q127 0 213 -78v51 q18 8 32.5 10t24.5 2q12 0 26.5 -2t30.5 -10v-350q-20 -4 -33.5 -7.5t-27.5 -3.5q-12 0 -25.5 3.5t-33.5 7.5v67q0 80 -52.5 136.5t-156.5 56.5q-68 0 -116 -33t-79 -84t-45 -114.5t-14 -125.5q0 -92 23.5 -157.5t62.5 -107.5t89 -61.5t103 -19.5q55 0 100.5 16.5t82 41 t66.5 52.5t52 52v-162q-18 -18 -49 -38.5t-69.5 -39t-86 -31t-98.5 -12.5q-106 0 -185 37t-131 99.5t-78 146.5t-26 178z" />
<glyph unicode="&#xaa;" horiz-adv-x="778" d="M72 1042q0 88 56 148.5t181 71.5l195 16v12q0 63 -35 97t-119 34q-63 0 -117.5 -24.5t-103.5 -65.5v123q41 25 99.5 50.5t148.5 25.5q27 0 69.5 -6t82.5 -28.5t69 -67t29 -119.5v-351h75q8 -14 10.5 -25t2.5 -21.5t-2 -21.5t-11 -26h-194v72q-45 -49 -91 -69.5 t-124 -20.5q-92 0 -156.5 52t-64.5 144zM82 643v117h606v-117h-606zM197 1042q0 -41 31.5 -65.5t84.5 -24.5q31 0 65 9.5t61.5 27t46 43t18.5 58.5v88l-168 -15q-66 -6 -102.5 -34t-36.5 -87z" />
<glyph unicode="&#xab;" horiz-adv-x="1003" d="M53 518l301 461h181l-304 -461l304 -461h-181zM469 518l301 461h180l-303 -461l303 -461h-180z" />
<glyph unicode="&#xac;" d="M53 813v145h1004v-546h-146v401h-858z" />
<glyph unicode="&#xad;" horiz-adv-x="661" d="M88 549q0 45 12 86h461q12 -41 12 -86t-12 -84h-461q-12 39 -12 84z" />
<glyph unicode="&#xae;" horiz-adv-x="1810" d="M113 750q0 168 63.5 311t172 247.5t252.5 163t306 58.5q160 0 303.5 -58.5t252 -163t172 -247.5t63.5 -311q0 -170 -63.5 -314.5t-172 -249t-252 -164t-303.5 -59.5q-162 0 -306 59.5t-252.5 164t-172 249t-63.5 314.5zM270 750q0 -141 49.5 -261t135.5 -208 t201.5 -137.5t250.5 -49.5q133 0 249 49.5t201 137.5t134 207.5t49 261.5q0 139 -49 257.5t-134 205.5t-201 136.5t-249 49.5q-135 0 -250.5 -49.5t-201.5 -136.5t-135.5 -205.5t-49.5 -257.5zM520 354q0 12 2 24.5t10 29.5h86v686h-88q-6 18 -8 29.5t-2 23.5t2 23.5 t10 27.5h453q123 0 190.5 -72.5t67.5 -179.5q0 -35 -9 -71.5t-28.5 -71.5t-53.5 -62.5t-83 -42.5l158 -290h90q8 -31 8 -54q0 -20 -8 -51h-199l-188 383h-187v-278h109q8 -31 8 -54q0 -20 -8 -51h-320q-8 16 -10 28.5t-2 22.5zM743 797h203q76 0 119 34.5t43 114.5 q0 74 -42 107.5t-114 33.5h-209v-290z" />
<glyph unicode="&#xaf;" horiz-adv-x="700" d="M35 1235v133h629v-133h-629z" />
<glyph unicode="&#xb0;" horiz-adv-x="819" d="M111 1193.5q0 63.5 22.5 119t62.5 95.5t95 62.5t118.5 22.5t119 -22.5t95.5 -62.5t62.5 -95.5t22.5 -119t-22.5 -118.5t-62.5 -95t-95.5 -62.5t-119 -22.5t-118.5 22.5t-95 62.5t-62.5 95t-22.5 118.5zM242 1194q0 -74 48 -125t119.5 -51t120 51t48.5 125t-48.5 125 t-120 51t-119.5 -51t-48 -125z" />
<glyph unicode="&#xb1;" d="M53 731v146h430v409h146v-414h428v-141h-428v-409h-146v409h-430zM57 82v145h1000v-145h-1000z" />
<glyph unicode="&#xb2;" horiz-adv-x="733" d="M37 684q0 78 32.5 135.5t82 100.5t105.5 75l105 63q49 30 82 61.5t33 70.5q0 47 -33.5 72.5t-95.5 25.5q-76 0 -136 -33.5t-126 -93.5v139q37 29 106.5 64t174.5 35q51 0 99 -12.5t85 -38t59.5 -63.5t22.5 -89q0 -74 -50.5 -125t-118.5 -93l-139 -84q-71 -42 -112 -97 h295v106q23 6 38 8t27 2q14 0 28.5 -2t41.5 -10v-217h-606z" />
<glyph unicode="&#xb3;" horiz-adv-x="733" d="M63 737v129l64 -35q31 -16 62.5 -26t66.5 -16.5t80 -6.5q72 0 114 30t42 81q0 35 -16.5 55.5t-41 30.5t-55.5 13t-57 3h-64q-4 10 -6 26.5t-2 29.5q0 29 8 53h74q53 0 94 22.5t41 75.5q0 12 -5 26.5t-20.5 29t-41 23.5t-64.5 9q-78 0 -136.5 -32.5t-113.5 -75.5v127 q45 41 117.5 65.5t144.5 24.5q121 0 193.5 -54.5t72.5 -140.5q0 -55 -27.5 -89t-64.5 -56q53 -23 88 -60.5t35 -103.5q0 -43 -18.5 -84t-57.5 -71.5t-98 -50t-141 -19.5t-151 20t-116 47z" />
<glyph unicode="&#xb4;" horiz-adv-x="700" d="M150 1178l178 278h225l-258 -278h-145z" />
<glyph unicode="&#xb5;" horiz-adv-x="1202" d="M39 975q0 33 12 63h311v-688q0 -39 9.5 -80t32 -73.5t63.5 -53t104 -20.5q45 0 92.5 17.5t84 57.5t60 107.5t23.5 167.5v438h-137q-12 31 -12 64t12 63h314v-911h137q12 -31 12 -63.5t-12 -63.5h-285v154q-18 -29 -45 -61t-63.5 -59.5t-83.5 -46t-109 -18.5 q-70 0 -116 25.5t-81 66.5v-405h-176l2 1255h-137q-12 31 -12 64z" />
<glyph unicode="&#xb6;" horiz-adv-x="1390" d="M111 1104q0 203 129 296t344 93h518v-1862h-160v1735h-233v-1735h-160v1096q-98 0 -179 28.5t-138.5 80t-89 120t-31.5 148.5z" />
<glyph unicode="&#xb7;" horiz-adv-x="550" d="M150 686q0 57 35.5 97t89 40t89 -40t35.5 -97t-35.5 -97t-89 -40t-89 40t-35.5 97z" />
<glyph unicode="&#xb8;" horiz-adv-x="700" d="M139 -403l29 79q37 -16 65.5 -23t65.5 -7q14 0 33.5 3t36 11t29 24.5t12.5 45.5q0 47 -32 62t-63 15q-14 0 -34.5 -3t-42.5 -13l-33 39l127 170h104l-88 -121q20 6 47 6q49 0 81 -14t50.5 -36.5t26.5 -48.5t8 -50q0 -78 -61.5 -130t-171.5 -52q-55 0 -102.5 13.5 t-86.5 29.5z" />
<glyph unicode="&#xb9;" horiz-adv-x="733" d="M131 737q0 27 8 51h160v492h-160q-4 10 -6 25.5t-2 27.5q0 27 8 51h312v-596h147q8 -25 8 -51q0 -12 -2 -27.5t-6 -25.5h-459q-4 10 -6 25.5t-2 27.5z" />
<glyph unicode="&#xba;" horiz-adv-x="768" d="M72 1187.5q0 61.5 17.5 123t55 109.5t97 79t143.5 31t144.5 -31t98.5 -79t56 -109.5t18 -123t-18 -122.5t-56 -110.5t-98.5 -80t-144.5 -30.5t-143.5 30.5t-97 80t-55 110.5t-17.5 122.5zM82 643v119h606v-119h-606zM201 1188q0 -33 7 -73t27.5 -75.5t56.5 -59.5t93 -24 t94 24t57.5 59.5t27.5 75.5t7 73q0 31 -7 70.5t-27.5 75.5t-57.5 59.5t-94 23.5t-93 -23.5t-56.5 -59.5t-27.5 -75.5t-7 -70.5z" />
<glyph unicode="&#xbb;" horiz-adv-x="1003" d="M53 57l303 461l-303 461h180l302 -461l-302 -461h-180zM469 57l303 461l-303 461h180l301 -461l-301 -461h-180z" />
<glyph unicode="&#xbc;" horiz-adv-x="1873" d="M193 737q0 27 8 51h159v492h-159q-4 10 -6 25.5t-2 27.5q0 27 8 51h311v-596h147q8 -25 9 -51q0 -12 -2 -27.5t-7 -25.5h-458q-4 10 -6 25.5t-2 27.5zM469 -33l793 1432h153l-792 -1432h-154zM1022 145v109l385 440h129v-444h113q8 -25 8 -51q0 -12 -2 -27.5t-6 -26.5 h-113v-161h-145v161h-369zM1161 250h230v266z" />
<glyph unicode="&#xbd;" horiz-adv-x="1873" d="M152 737q0 27 8 51h159v492h-159q-4 10 -6 25.5t-2 27.5q0 27 8 51h311v-596h147q8 -25 9 -51q0 -12 -2 -27.5t-7 -25.5h-458q-4 10 -6 25.5t-2 27.5zM393 -33l793 1432h153l-792 -1432h-154zM1036 -16q0 78 33 135t82 100t105 76l106 62q49 30 82 62t33 70q0 47 -34 73 t-95 26q-76 0 -136.5 -34t-126.5 -93v139q37 29 107 63.5t174 34.5q51 0 99 -12t85 -37.5t59.5 -63.5t22.5 -89q0 -74 -50 -125.5t-119 -92.5l-139 -84q-71 -42 -112 -98h295v107q23 6 38.5 8t27.5 2q14 0 28.5 -2t40.5 -10v-217h-606z" />
<glyph unicode="&#xbe;" horiz-adv-x="1873" d="M156 737v129l63 -35q31 -16 62.5 -26t66.5 -16.5t80 -6.5q72 0 114 30t42 81q0 35 -16.5 55.5t-41 30.5t-55.5 13t-57 3h-64q-4 10 -6 26.5t-2 29.5q0 29 8 53h74q53 0 94 22.5t41 75.5q0 12 -5 26.5t-20.5 29t-41 23.5t-64.5 9q-78 0 -136.5 -32.5t-113.5 -75.5v127 q45 41 118 65.5t144 24.5q121 0 194 -54.5t73 -140.5q0 -55 -28 -89t-65 -56q53 -23 88 -60.5t35 -103.5q0 -43 -18.5 -84t-57 -71.5t-98 -50t-141.5 -19.5t-150.5 20t-115.5 47zM489 -33l793 1432h154l-793 -1432h-154zM1042 145v109l385 440h129v-444h113q8 -25 8 -51 q0 -12 -2 -27.5t-6 -26.5h-113v-161h-145v161h-369zM1182 250h229v266z" />
<glyph unicode="&#xbf;" horiz-adv-x="1103" d="M141 -29q0 117 55.5 207t147.5 170q59 51 95 89t55.5 72t25.5 71.5t6 91.5h166q0 -66 -7 -116t-26.5 -94t-56.5 -88t-94 -98q-33 -31 -65.5 -58.5t-58.5 -60t-41 -70.5t-15 -87q0 -92 64.5 -151.5t193.5 -59.5q57 0 115.5 16.5t110.5 41t96 56t75 62.5v-182 q-31 -23 -72 -49.5t-95 -49t-122.5 -37t-152.5 -14.5q-86 0 -159 26t-127 71t-84 106t-30 135zM483 929.5q0 57.5 36 97.5t89.5 40t89 -40t35.5 -97.5t-35.5 -97t-89 -39.5t-89.5 39.5t-36 97z" />
<glyph unicode="&#xc0;" horiz-adv-x="1499" d="M16 71.5q0 34.5 13 71.5h137l491 1368h203l473 -1368h137q12 -37 12.5 -71.5t-12.5 -71.5h-503q-14 35 -14.5 72t14.5 71h176l-113 330h-581l-115 -330h176q12 -37 12 -71.5t-12 -71.5h-481q-13 37 -13 71.5zM444 1890h226l178 -278h-146zM502 627h477l-236 694z" />
<glyph unicode="&#xc1;" horiz-adv-x="1499" d="M16 71.5q0 34.5 13 71.5h137l491 1368h203l473 -1368h137q12 -37 12.5 -71.5t-12.5 -71.5h-503q-14 35 -14.5 72t14.5 71h176l-113 330h-581l-115 -330h176q12 -37 12 -71.5t-12 -71.5h-481q-13 37 -13 71.5zM502 627h477l-236 694zM692 1612l178 278h226l-258 -278h-146 z" />
<glyph unicode="&#xc2;" horiz-adv-x="1499" d="M16 71.5q0 34.5 13 71.5h137l491 1368h203l473 -1368h137q12 -37 12.5 -71.5t-12.5 -71.5h-503q-14 35 -14.5 72t14.5 71h176l-113 330h-581l-115 -330h176q12 -37 12 -71.5t-12 -71.5h-481q-13 37 -13 71.5zM461 1612l196 278h185l196 -278h-157l-131 184l-132 -184 h-157zM502 627h477l-236 694z" />
<glyph unicode="&#xc3;" horiz-adv-x="1499" d="M16 71.5q0 34.5 13 71.5h137l491 1368h203l473 -1368h137q12 -37 12.5 -71.5t-12.5 -71.5h-503q-14 35 -14.5 72t14.5 71h176l-113 330h-581l-115 -330h176q12 -37 12 -71.5t-12 -71.5h-481q-13 37 -13 71.5zM399 1642q6 45 21.5 85t40 70t61.5 47.5t88 17.5 q61 0 100 -16l87 -34q47 -16 65.5 -21t38.5 -5q23 0 38 9t24.5 23.5t14.5 30t9 25.5h113q-6 -45 -21.5 -85t-40 -69.5t-61.5 -47t-88 -17.5q-41 0 -79 13t-91 34l-43 16q-16 6 -29.5 9.5t-25 4.5t-25.5 1q-23 0 -37 -10.5t-23.5 -25t-15.5 -29.5t-8 -26h-113zM502 627h477 l-236 694z" />
<glyph unicode="&#xc4;" horiz-adv-x="1499" d="M16 71.5q0 34.5 13 71.5h137l491 1368h203l473 -1368h137q12 -37 12.5 -71.5t-12.5 -71.5h-503q-14 35 -14.5 72t14.5 71h176l-113 330h-581l-115 -330h176q12 -37 12 -71.5t-12 -71.5h-481q-13 37 -13 71.5zM465 1741q0 47 31.5 79.5t72.5 32.5t72 -32.5t31 -79.5 t-31 -80t-72 -33t-72.5 33t-31.5 80zM502 627h477l-236 694zM827 1741q0 47 31 79.5t72 32.5t72.5 -32.5t31.5 -79.5t-31.5 -80t-72.5 -33t-72 33t-31 80z" />
<glyph unicode="&#xc5;" horiz-adv-x="1499" d="M16 71.5q0 34.5 13 71.5h137l473 1317q-41 29 -66.5 75t-25.5 101q0 43 16.5 82t46 69t68.5 46t82 16t82 -16t68.5 -46t46 -69t16.5 -82q0 -55 -25.5 -102t-68.5 -76l454 -1315h137q12 -37 12.5 -71.5t-12.5 -71.5h-503q-14 35 -14.5 72t14.5 71h176l-113 330h-581 l-115 -330h176q12 -37 12 -71.5t-12 -71.5h-481q-13 37 -13 71.5zM502 627h477l-236 694zM637 1636.5q0 -49.5 37 -86.5t86 -37t86 37t37 86.5t-37 86t-86 36.5t-86 -36.5t-37 -86z" />
<glyph unicode="&#xc6;" horiz-adv-x="2050" d="M0 71.5q0 34.5 12 71.5h138l577 1207h-154q-12 37 -12 71.5t12 71.5h1352v-434q-41 -12 -80 -12q-41 0 -80 12v274h-561v-485h561q12 -41 13 -80q0 -41 -13 -80h-561v-528h576v280q43 12 80 13q41 0 77 -13v-440h-1073q-12 37 -12 71.5t12 71.5h154v359h-524l-170 -359 h170q12 -37 12 -71.5t-12 -71.5h-482q-12 37 -12 71.5zM563 649h455v684h-131z" />
<glyph unicode="&#xc7;" horiz-adv-x="1464" d="M113 729q0 152 42 296t126 256t208.5 180.5t290.5 68.5q113 0 211.5 -39t175.5 -123v125q39 12 78 12q41 0 78 -12v-571q-43 -12 -84 -12.5t-84 12.5v98q0 74 -24.5 137.5t-71.5 110.5t-118 73.5t-163 26.5q-127 0 -215 -58.5t-143 -149.5t-80 -202.5t-25 -218.5 q0 -162 42 -276.5t112 -188t160 -108.5t188 -35t178 27.5t143.5 66.5t107.5 81t69 69v-219q-29 -27 -78 -60t-112.5 -62.5t-140.5 -49t-163 -21.5l-61 -84q20 6 47 6q49 0 81 -14t50 -36.5t26.5 -48.5t8.5 -50q0 -78 -61.5 -130t-172.5 -52q-55 0 -102 13t-86 30l29 79 q37 -16 65.5 -23t65.5 -7q14 0 33.5 3t36 11t28.5 24.5t12 45.5q0 47 -31.5 62t-62.5 15q-14 0 -34.5 -3t-43.5 -13l-33 39l103 139q-154 14 -267.5 80t-188.5 168t-112.5 233.5t-37.5 278.5z" />
<glyph unicode="&#xc8;" horiz-adv-x="1318" d="M61 71.5q0 34.5 13 71.5h153v1207h-153q-12 37 -12.5 71.5t12.5 71.5h1120v-434q-41 -12 -80 -12q-41 0 -80 12v274h-620v-485h620q12 -41 13 -80q0 -41 -13 -80h-620v-528h635v280q43 12 79 13q41 0 78 -13v-440h-1132q-13 37 -13 71.5zM436 1890h226l178 -278h-146z " />
<glyph unicode="&#xc9;" horiz-adv-x="1318" d="M61 71.5q0 34.5 13 71.5h153v1207h-153q-12 37 -12.5 71.5t12.5 71.5h1120v-434q-41 -12 -80 -12q-41 0 -80 12v274h-620v-485h620q12 -41 13 -80q0 -41 -13 -80h-620v-528h635v280q43 12 79 13q41 0 78 -13v-440h-1132q-13 37 -13 71.5zM627 1612l178 278h225l-258 -278 h-145z" />
<glyph unicode="&#xca;" horiz-adv-x="1318" d="M61 71.5q0 34.5 13 71.5h153v1207h-153q-12 37 -12.5 71.5t12.5 71.5h1120v-434q-41 -12 -80 -12q-41 0 -80 12v274h-620v-485h620q12 -41 13 -80q0 -41 -13 -80h-620v-528h635v280q43 12 79 13q41 0 78 -13v-440h-1132q-13 37 -13 71.5zM381 1612l197 278h184l196 -278 h-157l-131 184l-131 -184h-158z" />
<glyph unicode="&#xcb;" horiz-adv-x="1318" d="M61 71.5q0 34.5 13 71.5h153v1207h-153q-12 37 -12.5 71.5t12.5 71.5h1120v-434q-41 -12 -80 -12q-41 0 -80 12v274h-620v-485h620q12 -41 13 -80q0 -41 -13 -80h-620v-528h635v280q43 12 79 13q41 0 78 -13v-440h-1132q-13 37 -13 71.5zM395 1741q0 47 32 79.5t73 32.5 t71.5 -32.5t30.5 -79.5t-30.5 -80t-71.5 -33t-73 33t-32 80zM758 1741q0 47 30.5 79.5t71.5 32.5t73 -32.5t32 -79.5t-32 -80t-73 -33t-71.5 33t-30.5 80z" />
<glyph unicode="&#xcc;" horiz-adv-x="675" d="M35 1890h225l178 -278h-145zM78 71.5q0 34.5 12 71.5h154v1207h-154q-12 37 -12 71.5t12 71.5h496q12 -37 12 -72t-12 -71h-156v-1207h156q12 -37 12 -71.5t-12 -71.5h-496q-12 37 -12 71.5z" />
<glyph unicode="&#xcd;" horiz-adv-x="675" d="M78 71.5q0 34.5 12 71.5h154v1207h-154q-12 37 -12 71.5t12 71.5h496q12 -37 12 -72t-12 -71h-156v-1207h156q12 -37 12 -71.5t-12 -71.5h-496q-12 37 -12 71.5zM260 1612l178 278h226l-258 -278h-146z" />
<glyph unicode="&#xce;" horiz-adv-x="675" d="M51 1612l197 278h184l197 -278h-158l-131 184l-131 -184h-158zM78 71.5q0 34.5 12 71.5h154v1207h-154q-12 37 -12 71.5t12 71.5h496q12 -37 12 -72t-12 -71h-156v-1207h156q12 -37 12 -71.5t-12 -71.5h-496q-12 37 -12 71.5z" />
<glyph unicode="&#xcf;" horiz-adv-x="675" d="M55 1741q0 47 32 79.5t73 32.5t71.5 -32.5t30.5 -79.5t-30.5 -80t-71.5 -33t-73 33t-32 80zM78 71.5q0 34.5 12 71.5h154v1207h-154q-12 37 -12 71.5t12 71.5h496q12 -37 12 -72t-12 -71h-156v-1207h156q12 -37 12 -71.5t-12 -71.5h-496q-12 37 -12 71.5zM418 1741 q0 47 30.5 79.5t71.5 32.5t73 -32.5t32 -79.5t-32 -80t-73 -33t-71.5 33t-30.5 80z" />
<glyph unicode="&#xd0;" horiz-adv-x="1505" d="M61 71.5q0 34.5 13 71.5h153v553h-166v144h166v510h-153q-12 37 -12.5 71.5t12.5 71.5h692q150 0 266.5 -55.5t196.5 -153.5t122 -231t42 -287q0 -121 -29 -255t-98.5 -247.5t-186 -188.5t-293.5 -75h-712q-13 37 -13 71.5zM414 160h362q94 0 170 42t130 119.5t84 187 t30 245t-31 243t-89 182t-143 114.5t-194 40h-319v-493h329v-144h-329v-536z" />
<glyph unicode="&#xd1;" horiz-adv-x="1550" d="M61 71.5q0 34.5 13 71.5h153v1207h-153q-12 37 -12.5 71.5t12.5 71.5h379l602 -1042q10 -18 23 -45l29 -60l31 -67l29 -68q0 31 -1 71l-2 75t-2 64t-1 38v891h-166q-12 37 -12 71.5t12 71.5h494q12 -37 12 -72t-12 -71h-164v-1368h-195l-634 1101q-12 20 -28 51l-31 61 l-29 63l-27 59q2 -33 3 -75l2 -82q1 -40 2 -74t1 -48v-895h160q12 -37 12 -71.5t-12 -71.5h-475q-13 37 -13 71.5zM424 1642q6 45 21.5 85t40 70t61.5 47.5t88 17.5q61 0 99 -16l87 -34q47 -16 65.5 -21t39.5 -5q23 0 38 9t24 23.5t14.5 30t9.5 25.5h112q-6 -45 -21.5 -85 t-40 -69.5t-61 -47t-88.5 -17.5q-41 0 -78.5 13t-91.5 34l-43 16q-16 6 -29.5 9.5t-24.5 4.5t-25 1q-23 0 -37.5 -10.5t-23.5 -25t-15 -29.5t-8 -26h-113z" />
<glyph unicode="&#xd2;" horiz-adv-x="1615" d="M113 745q0 129 33.5 267.5t114.5 253t214 189.5t334 75q133 0 235.5 -35t180.5 -93.5t131 -136t86 -164.5t47 -178.5t14 -177.5q0 -84 -14 -175t-47 -178t-86 -164.5t-131 -136t-180.5 -93.5t-235.5 -35q-201 0 -334 75t-214 189.5t-114.5 252.5t-33.5 265zM315 745.5 q0 -143.5 37 -259t103.5 -197.5t156.5 -126t196.5 -44t197 44t156 126t102 197.5t36.5 259t-36.5 260t-102 198.5t-156 126t-197 44t-196.5 -44t-156.5 -126t-103.5 -198.5t-37 -260zM553 1890h225l178 -278h-145z" />
<glyph unicode="&#xd3;" horiz-adv-x="1615" d="M113 745q0 129 33.5 267.5t114.5 253t214 189.5t334 75q133 0 235.5 -35t180.5 -93.5t131 -136t86 -164.5t47 -178.5t14 -177.5q0 -84 -14 -175t-47 -178t-86 -164.5t-131 -136t-180.5 -93.5t-235.5 -35q-201 0 -334 75t-214 189.5t-114.5 252.5t-33.5 265zM315 745.5 q0 -143.5 37 -259t103.5 -197.5t156.5 -126t196.5 -44t197 44t156 126t102 197.5t36.5 259t-36.5 260t-102 198.5t-156 126t-197 44t-196.5 -44t-156.5 -126t-103.5 -198.5t-37 -260zM741 1612l179 278h225l-258 -278h-146z" />
<glyph unicode="&#xd4;" horiz-adv-x="1615" d="M113 745q0 129 33.5 267.5t114.5 253t214 189.5t334 75q133 0 235.5 -35t180.5 -93.5t131 -136t86 -164.5t47 -178.5t14 -177.5q0 -84 -14 -175t-47 -178t-86 -164.5t-131 -136t-180.5 -93.5t-235.5 -35q-201 0 -334 75t-214 189.5t-114.5 252.5t-33.5 265zM315 745.5 q0 -143.5 37 -259t103.5 -197.5t156.5 -126t196.5 -44t197 44t156 126t102 197.5t36.5 259t-36.5 260t-102 198.5t-156 126t-197 44t-196.5 -44t-156.5 -126t-103.5 -198.5t-37 -260zM518 1612l197 278h184l197 -278h-158l-131 184l-131 -184h-158z" />
<glyph unicode="&#xd5;" horiz-adv-x="1615" d="M113 745q0 129 33.5 267.5t114.5 253t214 189.5t334 75q133 0 235.5 -35t180.5 -93.5t131 -136t86 -164.5t47 -178.5t14 -177.5q0 -84 -14 -175t-47 -178t-86 -164.5t-131 -136t-180.5 -93.5t-235.5 -35q-201 0 -334 75t-214 189.5t-114.5 252.5t-33.5 265zM315 745.5 q0 -143.5 37 -259t103.5 -197.5t156.5 -126t196.5 -44t197 44t156 126t102 197.5t36.5 259t-36.5 260t-102 198.5t-156 126t-197 44t-196.5 -44t-156.5 -126t-103.5 -198.5t-37 -260zM457 1642q6 45 21.5 85t40 70t61 47.5t88.5 17.5q61 0 99 -16l87 -34q47 -16 65.5 -21 t38.5 -5q23 0 38.5 9t24.5 23.5t14 30t9 25.5h113q-6 -45 -21.5 -85t-40 -69.5t-61.5 -47t-88 -17.5q-41 0 -79 13t-91 34l-43 16q-16 6 -29.5 9.5t-24.5 4.5t-26 1q-23 0 -37 -10.5t-23 -25t-15.5 -29.5t-8.5 -26h-112z" />
<glyph unicode="&#xd6;" horiz-adv-x="1615" d="M113 745q0 129 33.5 267.5t114.5 253t214 189.5t334 75q133 0 235.5 -35t180.5 -93.5t131 -136t86 -164.5t47 -178.5t14 -177.5q0 -84 -14 -175t-47 -178t-86 -164.5t-131 -136t-180.5 -93.5t-235.5 -35q-201 0 -334 75t-214 189.5t-114.5 252.5t-33.5 265zM315 745.5 q0 -143.5 37 -259t103.5 -197.5t156.5 -126t196.5 -44t197 44t156 126t102 197.5t36.5 259t-36.5 260t-102 198.5t-156 126t-197 44t-196.5 -44t-156.5 -126t-103.5 -198.5t-37 -260zM522 1741q0 47 32 79.5t73 32.5t71.5 -32.5t30.5 -79.5t-30.5 -80t-71.5 -33t-73 33 t-32 80zM885 1741q0 47 30.5 79.5t71.5 32.5t73 -32.5t32 -79.5t-32 -80t-73 -33t-71.5 33t-30.5 80z" />
<glyph unicode="&#xd7;" d="M139 371l316 313l-316 313l103 105l315 -314l313 314l101 -98l-316 -314l316 -315l-105 -103l-313 314l-313 -314z" />
<glyph unicode="&#xd8;" horiz-adv-x="1615" d="M74 51l176 193q-74 113 -105.5 246t-31.5 255q0 129 33.5 267.5t114.5 253t214 189.5t334 75q156 0 270.5 -46t194.5 -124l168 180l106 -100l-180 -195q74 -113 104.5 -245t30.5 -255q0 -84 -14 -175t-47 -178t-86 -164.5t-131 -136t-180.5 -93.5t-235.5 -35 q-154 0 -267.5 45t-197.5 123l-164 -180zM315 745q0 -102 19.5 -191t54.5 -161l758 828q-63 74 -149.5 113.5t-188.5 39.5q-106 0 -196.5 -44t-157 -126t-103.5 -199t-37 -260zM473 268q66 -72 151 -110.5t185 -38.5q106 0 196.5 44t156 126t102 197.5t36.5 258.5 q0 197 -71 347z" />
<glyph unicode="&#xd9;" horiz-adv-x="1552" d="M49 1421q0 35 12 72h496q12 -37 12 -72t-12 -71h-156v-826q0 -117 33 -192.5t87 -120.5t121 -63.5t134.5 -18.5t135 18.5t121.5 63.5t88 121t34 192v826h-151q-12 37 -12.5 71.5t12.5 71.5h487q12 -37 12 -72t-12 -71h-158v-850q0 -109 -32.5 -206t-100 -171t-173 -117 t-251 -43t-252 43t-175 117t-101.5 171t-33 206v850h-154q-12 36 -12 71zM492 1890h225l178 -278h-145z" />
<glyph unicode="&#xda;" horiz-adv-x="1552" d="M49 1421q0 35 12 72h496q12 -37 12 -72t-12 -71h-156v-826q0 -117 33 -192.5t87 -120.5t121 -63.5t134.5 -18.5t135 18.5t121.5 63.5t88 121t34 192v826h-151q-12 37 -12.5 71.5t12.5 71.5h487q12 -37 12 -72t-12 -71h-158v-850q0 -109 -32.5 -206t-100 -171t-173 -117 t-251 -43t-252 43t-175 117t-101.5 171t-33 206v850h-154q-12 36 -12 71zM678 1612l178 278h225l-258 -278h-145z" />
<glyph unicode="&#xdb;" horiz-adv-x="1552" d="M49 1421q0 35 12 72h496q12 -37 12 -72t-12 -71h-156v-826q0 -117 33 -192.5t87 -120.5t121 -63.5t134.5 -18.5t135 18.5t121.5 63.5t88 121t34 192v826h-151q-12 37 -12.5 71.5t12.5 71.5h487q12 -37 12 -72t-12 -71h-158v-850q0 -109 -32.5 -206t-100 -171t-173 -117 t-251 -43t-252 43t-175 117t-101.5 171t-33 206v850h-154q-12 36 -12 71zM487 1612l197 278h184l197 -278h-158l-131 184l-131 -184h-158z" />
<glyph unicode="&#xdc;" horiz-adv-x="1552" d="M49 1421q0 35 12 72h496q12 -37 12 -72t-12 -71h-156v-826q0 -117 33 -192.5t87 -120.5t121 -63.5t134.5 -18.5t135 18.5t121.5 63.5t88 121t34 192v826h-151q-12 37 -12.5 71.5t12.5 71.5h487q12 -37 12 -72t-12 -71h-158v-850q0 -109 -32.5 -206t-100 -171t-173 -117 t-251 -43t-252 43t-175 117t-101.5 171t-33 206v850h-154q-12 36 -12 71zM492 1741q0 47 31.5 79.5t72.5 32.5t71.5 -32.5t30.5 -79.5t-30.5 -80t-71.5 -33t-72.5 33t-31.5 80zM854 1741q0 47 30.5 79.5t71.5 32.5t73 -32.5t32 -79.5t-32 -80t-73 -33t-71.5 33t-30.5 80z " />
<glyph unicode="&#xdd;" horiz-adv-x="1474" d="M16 1421q0 35 13 72h508q12 -37 12 -72t-12 -71h-187l391 -600l404 600h-189q-12 37 -12 71.5t12 71.5h490q12 -37 12 -72t-12 -71h-119l-506 -752v-455h164q12 -37 12 -71.5t-12 -71.5h-512q-12 37 -12 71.5t12 71.5h162v457l-488 750h-118q-13 36 -13 71zM700 1612 l179 278h225l-258 -278h-146z" />
<glyph unicode="&#xde;" horiz-adv-x="1304" d="M61 1421q0 35 13 72h512q12 -37 12 -72t-12 -71h-176v-170h407q102 0 181 -33t133.5 -90.5t82 -134t27.5 -162.5q0 -74 -22.5 -151t-72.5 -139t-131 -102t-198 -40h-407v-185h176q12 -37 12 -71.5t-12 -71.5h-512q-12 37 -12.5 71.5t12.5 71.5h153v1207h-153 q-13 36 -13 71zM410 483h342q135 0 213.5 64.5t78.5 210.5q0 137 -76.5 201.5t-207.5 64.5h-350v-541z" />
<glyph unicode="&#xdf;" horiz-adv-x="1259" d="M39 63.5q0 32.5 12 63.5h150v963q0 100 28.5 189t87 153.5t146.5 102.5t209 38q104 0 184 -31t135.5 -83t83 -121.5t27.5 -149.5q0 -74 -18.5 -130.5t-47 -97t-62.5 -66.5t-63 -40q57 -20 107.5 -55t85.5 -87.5t55.5 -123t20.5 -162.5q0 -113 -35 -199t-93.5 -143 t-134 -86t-157.5 -29q-76 0 -135.5 13.5t-116.5 31.5v168q57 -29 117.5 -42t117.5 -13q111 0 182.5 78t71.5 233q0 166 -93 250t-245 84h-84q-12 37 -12 67.5t12 67.5h56q86 0 142 21.5t90 58.5t48.5 88t14.5 113q0 49 -14.5 93t-47.5 78t-83 53.5t-119 19.5 q-88 0 -142.5 -33t-85.5 -89.5t-42 -131t-11 -156.5v-1022h-330q-12 31 -12 63.5z" />
<glyph unicode="&#xe0;" horiz-adv-x="1091" d="M70 281q0 68 19.5 127t62.5 105t112.5 74.5t169.5 39.5l301 28v35q0 55 -11 98t-39 73t-75 45.5t-121 15.5q-55 0 -104 -14.5t-91 -34t-76 -42t-54 -38.5v161q20 14 53 34t79 37t105.5 29.5t133.5 12.5q45 0 109.5 -9t123.5 -45t100 -105.5t41 -190.5v-590h131 q12 -31 12.5 -63.5t-12.5 -63.5h-297v139q-16 -29 -40.5 -58.5t-64.5 -54t-96.5 -40t-131.5 -15.5q-150 0 -245 81.5t-95 228.5zM244 279q0 -76 53 -121t145 -45q51 0 104.5 16t94.5 47t67.5 77t26.5 105v166l-258 -26q-113 -12 -173 -61t-60 -158zM260 1456h225l179 -278 h-146z" />
<glyph unicode="&#xe1;" horiz-adv-x="1091" d="M70 281q0 68 19.5 127t62.5 105t112.5 74.5t169.5 39.5l301 28v35q0 55 -11 98t-39 73t-75 45.5t-121 15.5q-55 0 -104 -14.5t-91 -34t-76 -42t-54 -38.5v161q20 14 53 34t79 37t105.5 29.5t133.5 12.5q45 0 109.5 -9t123.5 -45t100 -105.5t41 -190.5v-590h131 q12 -31 12.5 -63.5t-12.5 -63.5h-297v139q-16 -29 -40.5 -58.5t-64.5 -54t-96.5 -40t-131.5 -15.5q-150 0 -245 81.5t-95 228.5zM244 279q0 -76 53 -121t145 -45q51 0 104.5 16t94.5 47t67.5 77t26.5 105v166l-258 -26q-113 -12 -173 -61t-60 -158zM436 1178l178 278h226 l-258 -278h-146z" />
<glyph unicode="&#xe2;" horiz-adv-x="1091" d="M70 281q0 68 19.5 127t62.5 105t112.5 74.5t169.5 39.5l301 28v35q0 55 -11 98t-39 73t-75 45.5t-121 15.5q-55 0 -104 -14.5t-91 -34t-76 -42t-54 -38.5v161q20 14 53 34t79 37t105.5 29.5t133.5 12.5q45 0 109.5 -9t123.5 -45t100 -105.5t41 -190.5v-590h131 q12 -31 12.5 -63.5t-12.5 -63.5h-297v139q-16 -29 -40.5 -58.5t-64.5 -54t-96.5 -40t-131.5 -15.5q-150 0 -245 81.5t-95 228.5zM244 279q0 -76 53 -121t145 -45q51 0 104.5 16t94.5 47t67.5 77t26.5 105v166l-258 -26q-113 -12 -173 -61t-60 -158zM256 1178l197 278h184 l197 -278h-158l-131 184l-131 -184h-158z" />
<glyph unicode="&#xe3;" horiz-adv-x="1091" d="M70 281q0 68 19.5 127t62.5 105t112.5 74.5t169.5 39.5l301 28v35q0 55 -11 98t-39 73t-75 45.5t-121 15.5q-55 0 -104 -14.5t-91 -34t-76 -42t-54 -38.5v161q20 14 53 34t79 37t105.5 29.5t133.5 12.5q45 0 109.5 -9t123.5 -45t100 -105.5t41 -190.5v-590h131 q12 -31 12.5 -63.5t-12.5 -63.5h-297v139q-16 -29 -40.5 -58.5t-64.5 -54t-96.5 -40t-131.5 -15.5q-150 0 -245 81.5t-95 228.5zM174 1208q6 45 21.5 85t40 70t61.5 47t88 17q61 0 99 -15l87 -34q47 -16 65.5 -21t39.5 -5q23 0 38 9t24.5 23.5t14.5 30t9 25.5h112 q-6 -45 -21 -85t-40 -70t-61.5 -47t-87.5 -17q-41 0 -79 13t-91 34l-43 16q-16 6 -29.5 9t-25 4t-25.5 1q-23 0 -37.5 -10t-23.5 -24.5t-15 -29.5t-8 -26h-113zM244 279q0 -76 53 -121t145 -45q51 0 104.5 16t94.5 47t67.5 77t26.5 105v166l-258 -26q-113 -12 -173 -61 t-60 -158z" />
<glyph unicode="&#xe4;" horiz-adv-x="1091" d="M70 281q0 68 19.5 127t62.5 105t112.5 74.5t169.5 39.5l301 28v35q0 55 -11 98t-39 73t-75 45.5t-121 15.5q-55 0 -104 -14.5t-91 -34t-76 -42t-54 -38.5v161q20 14 53 34t79 37t105.5 29.5t133.5 12.5q45 0 109.5 -9t123.5 -45t100 -105.5t41 -190.5v-590h131 q12 -31 12.5 -63.5t-12.5 -63.5h-297v139q-16 -29 -40.5 -58.5t-64.5 -54t-96.5 -40t-131.5 -15.5q-150 0 -245 81.5t-95 228.5zM244 279q0 -76 53 -121t145 -45q51 0 104.5 16t94.5 47t67.5 77t26.5 105v166l-258 -26q-113 -12 -173 -61t-60 -158zM250 1307q0 47 31.5 79.5 t72.5 32.5t72 -32.5t31 -79.5t-31 -80t-72 -33t-72.5 33t-31.5 80zM612 1307q0 47 31 79.5t72 32.5t72.5 -32.5t31.5 -79.5t-31.5 -80t-72.5 -33t-72 33t-31 80z" />
<glyph unicode="&#xe5;" horiz-adv-x="1091" d="M70 281q0 68 19.5 127t62.5 105t112.5 74.5t169.5 39.5l301 28v35q0 55 -11 98t-39 73t-75 45.5t-121 15.5q-55 0 -104 -14.5t-91 -34t-76 -42t-54 -38.5v161q20 14 53 34t79 37t105.5 29.5t133.5 12.5q45 0 109.5 -9t123.5 -45t100 -105.5t41 -190.5v-590h131 q12 -31 12.5 -63.5t-12.5 -63.5h-297v139q-16 -29 -40.5 -58.5t-64.5 -54t-96.5 -40t-131.5 -15.5q-150 0 -245 81.5t-95 228.5zM244 279q0 -76 53 -121t145 -45q51 0 104.5 16t94.5 47t67.5 77t26.5 105v166l-258 -26q-113 -12 -173 -61t-60 -158zM332 1386.5 q0 43.5 16.5 82t46 68.5t68.5 46t82 16t82 -16t68.5 -46t46 -68.5t16.5 -82t-16.5 -82t-46 -68.5t-68.5 -46t-82 -16t-82 16t-68.5 46t-46 68.5t-16.5 82zM422 1386.5q0 -49.5 37 -86t86 -36.5t86 36.5t37 86t-37 86t-86 36.5t-86 -36.5t-37 -86z" />
<glyph unicode="&#xe6;" horiz-adv-x="1681" d="M70 270q0 68 22.5 129.5t68.5 107.5t118.5 74.5t175.5 32.5l280 11v65q0 55 -11 98t-39 73t-75 45.5t-121 15.5q-55 0 -104 -14.5t-91 -34t-76 -42t-54 -38.5v161q20 14 53 34t79 37t105.5 29.5t133.5 12.5q33 0 74.5 -5t86.5 -22.5t86 -48t72 -80.5q53 70 133 113 t187 43q125 0 207.5 -47t134 -125t73 -178.5t21.5 -204.5v-14h-701q2 -76 24.5 -143.5t63.5 -119t101.5 -81t140.5 -29.5q113 0 187.5 35t134.5 73v-172q-53 -31 -140.5 -60.5t-179.5 -29.5q-158 0 -253 59.5t-159 149.5q-18 -33 -51 -69.5t-82 -67.5t-115.5 -51.5 t-154.5 -20.5q-164 0 -260 76t-96 223zM244 287q0 -90 60.5 -132t152.5 -42q55 0 105 16t89 47t61.5 77t22.5 105v140l-223 -9q-152 -6 -210 -58t-58 -144zM909 625h518q0 41 -11 92t-39.5 97t-79 78t-128.5 32q-72 0 -122 -34t-80.5 -82t-44 -99t-13.5 -84z" />
<glyph unicode="&#xe7;" horiz-adv-x="1017" d="M80 494q0 117 27.5 219t85 179t144.5 122t204 45q92 0 159.5 -37t96.5 -88v98q33 12 63 12q35 0 66 -12v-422q-37 -12 -72 -12t-72 12v56q0 117 -61.5 183t-169.5 66q-88 0 -144.5 -37.5t-89 -97t-45 -132.5t-12.5 -144q0 -94 24.5 -165t67.5 -118t102.5 -70.5 t127.5 -23.5q63 0 118.5 17.5t98.5 41t73.5 47l47.5 37.5v-180l-53.5 -35.5t-72.5 -37t-93.5 -31t-114.5 -15.5l-68 -92q20 6 47 6q49 0 81 -14t50.5 -36.5t26.5 -48.5t8 -50q0 -78 -61.5 -130t-171.5 -52q-55 0 -102.5 13t-86.5 30l29 79q37 -16 65.5 -23t65.5 -7 q14 0 33.5 3t36 11t29 24.5t12.5 45.5q0 47 -32 62t-63 15q-14 0 -34.5 -3t-42.5 -13l-33 39l108 147q-98 12 -174 58.5t-126 115t-76.5 157t-26.5 186.5z" />
<glyph unicode="&#xe8;" horiz-adv-x="1036" d="M80 520.5q0 106.5 26.5 205.5t81 175t139.5 121t201 45q125 0 208 -47t134.5 -125t73 -178.5t21.5 -204.5v-43h-701q2 -66 24.5 -127t63.5 -109.5t101.5 -78t140.5 -29.5q113 0 187.5 35t133.5 73v-172q-53 -31 -140 -60.5t-179 -29.5q-137 0 -235.5 46t-161 123 t-91 175.5t-28.5 205zM264 596h518q0 51 -11 108.5t-40 106.5t-79 81t-128 32q-72 0 -122 -35t-80.5 -85t-44 -106.5t-13.5 -101.5zM274 1456h226l178 -278h-146z" />
<glyph unicode="&#xe9;" horiz-adv-x="1036" d="M80 520.5q0 106.5 26.5 205.5t81 175t139.5 121t201 45q125 0 208 -47t134.5 -125t73 -178.5t21.5 -204.5v-43h-701q2 -66 24.5 -127t63.5 -109.5t101.5 -78t140.5 -29.5q113 0 187.5 35t133.5 73v-172q-53 -31 -140 -60.5t-179 -29.5q-137 0 -235.5 46t-161 123 t-91 175.5t-28.5 205zM264 596h518q0 51 -11 108.5t-40 106.5t-79 81t-128 32q-72 0 -122 -35t-80.5 -85t-44 -106.5t-13.5 -101.5zM440 1178l178 278h226l-258 -278h-146z" />
<glyph unicode="&#xea;" horiz-adv-x="1036" d="M80 520.5q0 106.5 26.5 205.5t81 175t139.5 121t201 45q125 0 208 -47t134.5 -125t73 -178.5t21.5 -204.5v-43h-701q2 -66 24.5 -127t63.5 -109.5t101.5 -78t140.5 -29.5q113 0 187.5 35t133.5 73v-172q-53 -31 -140 -60.5t-179 -29.5q-137 0 -235.5 46t-161 123 t-91 175.5t-28.5 205zM264 596h518q0 51 -11 108.5t-40 106.5t-79 81t-128 32q-72 0 -122 -35t-80.5 -85t-44 -106.5t-13.5 -101.5zM264 1178l197 278h184l197 -278h-158l-131 184l-131 -184h-158z" />
<glyph unicode="&#xeb;" horiz-adv-x="1036" d="M80 520.5q0 106.5 26.5 205.5t81 175t139.5 121t201 45q125 0 208 -47t134.5 -125t73 -178.5t21.5 -204.5v-43h-701q2 -66 24.5 -127t63.5 -109.5t101.5 -78t140.5 -29.5q113 0 187.5 35t133.5 73v-172q-53 -31 -140 -60.5t-179 -29.5q-137 0 -235.5 46t-161 123 t-91 175.5t-28.5 205zM264 596h518q0 51 -11 108.5t-40 106.5t-79 81t-128 32q-72 0 -122 -35t-80.5 -85t-44 -106.5t-13.5 -101.5zM272 1307q0 47 32 79.5t73 32.5t71.5 -32.5t30.5 -79.5t-30.5 -80t-71.5 -33t-73 33t-32 80zM635 1307q0 47 30.5 79.5t71.5 32.5t73 -32.5 t32 -79.5t-32 -80t-73 -33t-71.5 33t-30.5 80z" />
<glyph unicode="&#xec;" horiz-adv-x="598" d="M-35 1456h225l179 -278h-146zM66 63.5q0 32.5 12 63.5h139v784h-139q-12 31 -12 64t12 63h313v-911h139q12 -31 12.5 -63.5t-12.5 -63.5h-452q-12 31 -12 63.5z" />
<glyph unicode="&#xed;" horiz-adv-x="598" d="M66 63.5q0 32.5 12 63.5h139v784h-139q-12 31 -12 64t12 63h313v-911h139q12 -31 12.5 -63.5t-12.5 -63.5h-452q-12 31 -12 63.5zM180 1178l178 278h226l-258 -278h-146z" />
<glyph unicode="&#xee;" horiz-adv-x="598" d="M-39 1178l197 278h184l197 -278h-158l-131 184l-131 -184h-158zM66 63.5q0 32.5 12 63.5h139v784h-139q-12 31 -12 64t12 63h313v-911h139q12 -31 12.5 -63.5t-12.5 -63.5h-452q-12 31 -12 63.5z" />
<glyph unicode="&#xef;" horiz-adv-x="598" d="M-31 1307q0 47 32 79.5t73 32.5t71.5 -32.5t30.5 -79.5t-30.5 -80t-71.5 -33t-73 33t-32 80zM66 63.5q0 32.5 12 63.5h139v784h-139q-12 31 -12 64t12 63h313v-911h139q12 -31 12.5 -63.5t-12.5 -63.5h-452q-12 31 -12 63.5zM332 1307q0 47 30.5 79.5t71.5 32.5t73 -32.5 t32 -79.5t-32 -80t-73 -33t-71.5 33t-30.5 80z" />
<glyph unicode="&#xf0;" horiz-adv-x="1124" d="M80 506q0 100 28.5 196.5t85 171t142.5 119.5t203 45q41 0 82 -10t77.5 -27.5t66.5 -40t46 -49.5q-35 106 -100.5 200.5t-151.5 170.5l-199 -164l-67 78l182 152q-49 35 -102.5 62.5t-108.5 49.5l55 113q152 -59 267 -133l159 133l68 -78l-141 -117q104 -84 176 -179 t116 -196.5t62 -205t18 -201.5q0 -129 -28.5 -242.5t-88 -198.5t-150.5 -134.5t-216 -49.5t-215 50.5t-149.5 128t-88 172t-28.5 184.5zM260 506q0 -41 12.5 -106.5t45 -128t91 -107.5t152.5 -45t152.5 45t92.5 107.5t46 128t12 106.5q0 51 -12 118.5t-46 126t-92.5 99.5 t-152.5 41t-152.5 -41t-91 -99.5t-45 -126t-12.5 -118.5z" />
<glyph unicode="&#xf1;" horiz-adv-x="1208" d="M49 63.5q0 32.5 12 63.5h140v784h-140q-12 31 -12 64t12 63h287v-153q14 27 41 59.5t67 59t95 45t127 18.5q164 0 252 -93t88 -276v-571h139q12 -31 12 -63.5t-12 -63.5h-434q-12 31 -12 63.5t12 63.5h121v512q0 63 -8.5 115.5t-32 87.5t-64.5 54t-104 19q-47 0 -93 -17 t-83 -57t-60.5 -107.5t-23.5 -168.5v-438h121q12 -31 12 -63.5t-12 -63.5h-435q-12 31 -12 63.5zM274 1208q6 45 21.5 85t40 70t61.5 47t88 17q61 0 100 -15l87 -34q47 -16 65.5 -21t38.5 -5q23 0 38 9t24.5 23.5t14.5 30t9 25.5h113q-6 -45 -21.5 -85t-40 -70t-61.5 -47 t-88 -17q-41 0 -79 13t-91 34l-43 16q-16 6 -29.5 9t-25 4t-25.5 1q-23 0 -37 -10t-23.5 -24.5t-15.5 -29.5t-8 -26h-113z" />
<glyph unicode="&#xf2;" horiz-adv-x="1124" d="M80 520.5q0 100.5 28.5 198.5t88 175t149.5 125t215 48t216 -48t150.5 -125t88 -175t28.5 -198.5t-28.5 -199t-88 -176t-150.5 -126t-216 -48.5t-215 48.5t-149.5 126t-88 176t-28.5 199zM260 520q0 -53 12.5 -121.5t45 -131t91 -105.5t152.5 -43t152.5 43t92.5 105.5 t46 131t12 121.5q0 51 -12 121t-46 131.5t-92.5 104.5t-152.5 43t-152.5 -43t-91 -104.5t-45 -131.5t-12.5 -121zM297 1456h225l178 -278h-145z" />
<glyph unicode="&#xf3;" horiz-adv-x="1124" d="M80 520.5q0 100.5 28.5 198.5t88 175t149.5 125t215 48t216 -48t150.5 -125t88 -175t28.5 -198.5t-28.5 -199t-88 -176t-150.5 -126t-216 -48.5t-215 48.5t-149.5 126t-88 176t-28.5 199zM260 520q0 -53 12.5 -121.5t45 -131t91 -105.5t152.5 -43t152.5 43t92.5 105.5 t46 131t12 121.5q0 51 -12 121t-46 131.5t-92.5 104.5t-152.5 43t-152.5 -43t-91 -104.5t-45 -131.5t-12.5 -121zM483 1178l179 278h225l-258 -278h-146z" />
<glyph unicode="&#xf4;" horiz-adv-x="1124" d="M80 520.5q0 100.5 28.5 198.5t88 175t149.5 125t215 48t216 -48t150.5 -125t88 -175t28.5 -198.5t-28.5 -199t-88 -176t-150.5 -126t-216 -48.5t-215 48.5t-149.5 126t-88 176t-28.5 199zM260 520q0 -53 12.5 -121.5t45 -131t91 -105.5t152.5 -43t152.5 43t92.5 105.5 t46 131t12 121.5q0 51 -12 121t-46 131.5t-92.5 104.5t-152.5 43t-152.5 -43t-91 -104.5t-45 -131.5t-12.5 -121zM272 1178l197 278h184l197 -278h-158l-131 184l-131 -184h-158z" />
<glyph unicode="&#xf5;" horiz-adv-x="1124" d="M80 520.5q0 100.5 28.5 198.5t88 175t149.5 125t215 48t216 -48t150.5 -125t88 -175t28.5 -198.5t-28.5 -199t-88 -176t-150.5 -126t-216 -48.5t-215 48.5t-149.5 126t-88 176t-28.5 199zM211 1208q6 45 21.5 85t40 70t61.5 47t88 17q61 0 99 -15l87 -34q47 -16 65.5 -21 t39.5 -5q23 0 38 9t24 23.5t14.5 30t9.5 25.5h112q-6 -45 -21.5 -85t-40 -70t-61 -47t-88.5 -17q-41 0 -78.5 13t-91.5 34l-43 16q-16 6 -29.5 9t-24.5 4t-25 1q-23 0 -37.5 -10t-23.5 -24.5t-15 -29.5t-8 -26h-113zM260 520q0 -53 12.5 -121.5t45 -131t91 -105.5t152.5 -43 t152.5 43t92.5 105.5t46 131t12 121.5q0 51 -12 121t-46 131.5t-92.5 104.5t-152.5 43t-152.5 -43t-91 -104.5t-45 -131.5t-12.5 -121z" />
<glyph unicode="&#xf6;" horiz-adv-x="1124" d="M80 520.5q0 100.5 28.5 198.5t88 175t149.5 125t215 48t216 -48t150.5 -125t88 -175t28.5 -198.5t-28.5 -199t-88 -176t-150.5 -126t-216 -48.5t-215 48.5t-149.5 126t-88 176t-28.5 199zM260 520q0 -53 12.5 -121.5t45 -131t91 -105.5t152.5 -43t152.5 43t92.5 105.5 t46 131t12 121.5q0 51 -12 121t-46 131.5t-92.5 104.5t-152.5 43t-152.5 -43t-91 -104.5t-45 -131.5t-12.5 -121zM276 1307q0 47 32 79.5t73 32.5t71.5 -32.5t30.5 -79.5t-30.5 -80t-71.5 -33t-73 33t-32 80zM639 1307q0 47 30.5 79.5t71.5 32.5t73 -32.5t32 -79.5t-32 -80 t-73 -33t-71.5 33t-30.5 80z" />
<glyph unicode="&#xf7;" d="M53 612v146h1004v-146h-1004zM418 270q0 59 42 99.5t97 40.5q57 0 98 -41t41 -99q0 -53 -41 -96t-98 -43q-55 0 -97 41t-42 98zM418 1104q0 59 42 99t97 40q57 0 98 -41t41 -98q0 -53 -41 -96t-98 -43q-55 0 -97 41t-42 98z" />
<glyph unicode="&#xf8;" horiz-adv-x="1124" d="M53 20l127 146q-51 76 -75.5 168t-24.5 186q0 100 28.5 198.5t88 175.5t149.5 125t215 48q96 0 171 -28.5t132 -77.5l119 135l88 -78l-127 -148q51 -76 75.5 -166t24.5 -184q0 -100 -28.5 -198.5t-88 -176t-150.5 -126t-216 -48.5q-94 0 -169 29t-134 78l-117 -135z M260 520q0 -45 8 -102.5t31 -114.5l461 535q-35 37 -83 59.5t-116 22.5q-94 0 -152.5 -43t-91 -104.5t-45 -131.5t-12.5 -121zM365 201q35 -37 83 -59.5t113 -22.5q94 0 152.5 43t92.5 105.5t46 131t12 121.5q0 45 -8 101.5t-31 111.5z" />
<glyph unicode="&#xf9;" horiz-adv-x="1196" d="M39 975q0 33 12 63h311v-639q0 -66 9.5 -117t32 -85.5t63.5 -54t104 -19.5q45 0 92.5 17.5t84 57.5t60 107.5t23.5 167.5v438h-137q-12 31 -12 64t12 63h314v-911h137q12 -31 12 -63.5t-12 -63.5h-285v154q-18 -29 -45 -61t-66.5 -59.5t-93 -46t-125.5 -18.5 q-166 0 -254 93.5t-88 277.5v571h-137q-12 31 -12 64zM283 1456h225l178 -278h-145z" />
<glyph unicode="&#xfa;" horiz-adv-x="1196" d="M39 975q0 33 12 63h311v-639q0 -66 9.5 -117t32 -85.5t63.5 -54t104 -19.5q45 0 92.5 17.5t84 57.5t60 107.5t23.5 167.5v438h-137q-12 31 -12 64t12 63h314v-911h137q12 -31 12 -63.5t-12 -63.5h-285v154q-18 -29 -45 -61t-66.5 -59.5t-93 -46t-125.5 -18.5 q-166 0 -254 93.5t-88 277.5v571h-137q-12 31 -12 64zM504 1178l178 278h225l-258 -278h-145z" />
<glyph unicode="&#xfb;" horiz-adv-x="1196" d="M39 975q0 33 12 63h311v-639q0 -66 9.5 -117t32 -85.5t63.5 -54t104 -19.5q45 0 92.5 17.5t84 57.5t60 107.5t23.5 167.5v438h-137q-12 31 -12 64t12 63h314v-911h137q12 -31 12 -63.5t-12 -63.5h-285v154q-18 -29 -45 -61t-66.5 -59.5t-93 -46t-125.5 -18.5 q-166 0 -254 93.5t-88 277.5v571h-137q-12 31 -12 64zM281 1178l196 278h185l196 -278h-158l-131 184l-131 -184h-157z" />
<glyph unicode="&#xfc;" horiz-adv-x="1196" d="M39 975q0 33 12 63h311v-639q0 -66 9.5 -117t32 -85.5t63.5 -54t104 -19.5q45 0 92.5 17.5t84 57.5t60 107.5t23.5 167.5v438h-137q-12 31 -12 64t12 63h314v-911h137q12 -31 12 -63.5t-12 -63.5h-285v154q-18 -29 -45 -61t-66.5 -59.5t-93 -46t-125.5 -18.5 q-166 0 -254 93.5t-88 277.5v571h-137q-12 31 -12 64zM289 1307q0 47 31.5 79.5t72.5 32.5t72 -32.5t31 -79.5t-31 -80t-72 -33t-72.5 33t-31.5 80zM651 1307q0 47 31 79.5t72 32.5t72.5 -32.5t31.5 -79.5t-31.5 -80t-72.5 -33t-72 33t-31 80z" />
<glyph unicode="&#xfd;" horiz-adv-x="1099" d="M10 975q0 33 13 63h417q12 -31 12.5 -63.5t-12.5 -63.5h-131l201 -594l11 -34l15 -49l14 -49q7 -24 9 -38q2 14 8 38t14.5 49.5l16.5 48l12 34.5l199 594h-127q-12 31 -12 64t12 63h395q12 -31 12.5 -63.5t-12.5 -63.5h-106l-359 -1001q-29 -82 -64.5 -136.5t-77.5 -86 t-93 -44t-110.5 -12.5t-97.5 9.5t-73 21.5v137q35 -12 78 -20t78 -8t65.5 6t56 27.5t48 62.5t43.5 108l-336 936h-106q-13 31 -13 64zM471 1178l178 278h225l-258 -278h-145z" />
<glyph unicode="&#xfe;" horiz-adv-x="1153" d="M10 -280.5q0 32.5 13 63.5h139v1642h-139q-12 31 -12.5 64t12.5 63h313v-653q14 23 38.5 51.5t61.5 55t87 44t118 17.5q102 0 183 -40t136.5 -109.5t84 -164t28.5 -202.5q0 -94 -20.5 -196.5t-71.5 -188.5t-138 -141.5t-218 -55.5q-41 0 -85 12.5t-84 34t-72 53t-48 72.5 v-358h149q12 -31 12.5 -63.5t-12.5 -63.5h-462q-13 31 -13 63.5zM328 510q0 -119 29.5 -195.5t72.5 -120.5t92 -61.5t90 -17.5q70 0 122 30.5t88 86t53.5 129t17.5 159.5q0 49 -9.5 118t-39 131t-86 105.5t-150.5 43.5q-92 0 -148.5 -43.5t-85 -106.5t-37.5 -133t-9 -125z " />
<glyph unicode="&#xff;" horiz-adv-x="1099" d="M10 975q0 33 13 63h417q12 -31 12.5 -63.5t-12.5 -63.5h-131l201 -594l11 -34l15 -49l14 -49q7 -24 9 -38q2 14 8 38t14.5 49.5l16.5 48l12 34.5l199 594h-127q-12 31 -12 64t12 63h395q12 -31 12.5 -63.5t-12.5 -63.5h-106l-359 -1001q-29 -82 -64.5 -136.5t-77.5 -86 t-93 -44t-110.5 -12.5t-97.5 9.5t-73 21.5v137q35 -12 78 -20t78 -8t65.5 6t56 27.5t48 62.5t43.5 108l-336 936h-106q-13 31 -13 64zM264 1307q0 47 32 79.5t73 32.5t71.5 -32.5t30.5 -79.5t-30.5 -80t-71.5 -33t-73 33t-32 80zM627 1307q0 47 30.5 79.5t71.5 32.5 t73 -32.5t32 -79.5t-32 -80t-73 -33t-71.5 33t-30.5 80z" />
<glyph unicode="&#x152;" horiz-adv-x="2174" d="M113 745q0 137 37.5 274.5t120.5 245t216.5 175t323.5 67.5q61 0 111.5 -2t98.5 -5t99 -5t117 -2h813v-434q-41 -12 -80 -12q-41 0 -80 12v274h-620v-485h620q12 -41 13 -80q0 -41 -13 -80h-620v-528h635v280q43 12 80 13q41 0 77 -13v-440h-854q-84 0 -139 -2t-101 -5 t-95.5 -5t-122.5 -2q-166 0 -286 65.5t-199 172t-115.5 242.5t-36.5 279zM315 745q0 -150 36 -262t99.5 -189t146.5 -116t179 -39q70 0 144.5 2t164.5 19v1175q-33 6 -62.5 9.5t-60 4.5t-65.5 2t-78 1q-117 0 -211 -41t-158.5 -119t-99.5 -191t-35 -256z" />
<glyph unicode="&#x153;" horiz-adv-x="1810" d="M80 520.5q0 100.5 28.5 198.5t88 175t149.5 125t215 48q133 0 227.5 -58.5t153.5 -156.5q55 100 143.5 157.5t217.5 57.5q125 0 207.5 -47t134 -125t73 -178.5t21.5 -204.5v-43h-701q2 -66 24.5 -127t63.5 -109.5t101.5 -78t140.5 -29.5q113 0 187.5 35t134.5 73v-172 q-53 -31 -140.5 -60.5t-179.5 -29.5q-154 0 -257 60.5t-165 165.5q-59 -104 -154.5 -165t-232.5 -61q-125 0 -215 48.5t-149.5 126t-88 176t-28.5 199zM260 520q0 -53 12.5 -121.5t45 -131t91 -105.5t152.5 -43t152.5 43t92.5 105.5t46 131t12 121.5q0 51 -12 121t-46 131.5 t-92.5 104.5t-152.5 43t-152.5 -43t-91 -104.5t-45 -131.5t-12.5 -121zM1038 596h518q0 51 -11 108.5t-39.5 106.5t-79 81t-128.5 32q-72 0 -122 -35t-80.5 -85t-44 -106.5t-13.5 -101.5z" />
<glyph unicode="&#x178;" horiz-adv-x="1474" d="M16 1421q0 35 13 72h508q12 -37 12 -72t-12 -71h-187l391 -600l404 600h-189q-12 37 -12 71.5t12 71.5h490q12 -37 12 -72t-12 -71h-119l-506 -752v-455h164q12 -37 12 -71.5t-12 -71.5h-512q-12 37 -12 71.5t12 71.5h162v457l-488 750h-118q-13 36 -13 71zM453 1741 q0 47 31.5 79.5t72.5 32.5t71.5 -32.5t30.5 -79.5t-30.5 -80t-71.5 -33t-72.5 33t-31.5 80zM815 1741q0 47 31 79.5t71.5 32.5t72.5 -32.5t32 -79.5t-32 -80t-72.5 -33t-71.5 33t-31 80z" />
<glyph unicode="&#x2c6;" horiz-adv-x="700" d="M61 1178l197 278h184l197 -278h-158l-131 184l-131 -184h-158z" />
<glyph unicode="&#x2dc;" horiz-adv-x="700" d="M0 1208q6 45 21.5 85t40 70t61.5 47t88 17q61 0 99 -15l87 -34q47 -16 65.5 -21t39.5 -5q23 0 38 9t24 23.5t14.5 30t9.5 25.5h112q-6 -45 -21 -85t-40 -70t-61.5 -47t-88.5 -17q-41 0 -78.5 13t-91.5 34l-43 16q-16 6 -29.5 9t-24.5 4t-25 1q-23 0 -37.5 -10 t-23.5 -24.5t-15 -29.5t-8 -26h-113z" />
<glyph unicode="&#x2013;" horiz-adv-x="1024" d="M0 492v149h1024v-149h-1024z" />
<glyph unicode="&#x2014;" horiz-adv-x="2048" d="M0 492v149h2048v-149h-2048z" />
<glyph unicode="&#x2018;" horiz-adv-x="550" d="M133 1149q0 117 35 189.5t80 114.5t88 58.5t59 18.5v-103q-78 -35 -108.5 -93t-30.5 -132q16 4 33 4q68 0 95.5 -41t27.5 -90q0 -53 -32 -95t-95 -42q-37 0 -66 17.5t-47 46t-28.5 66.5t-10.5 81z" />
<glyph unicode="&#x2019;" horiz-adv-x="550" d="M139 1393q0 53 32 95t95 42q37 0 65.5 -17.5t47 -46t29 -66.5t10.5 -81q0 -117 -35 -189.5t-80 -114.5t-88 -58.5t-59 -18.5v102q78 35 108.5 93.5t30.5 132.5q-16 -4 -33 -4q-68 0 -95.5 41t-27.5 90z" />
<glyph unicode="&#x201a;" horiz-adv-x="550" d="M139 109q0 53 32 95t95 42q37 0 65.5 -17.5t47 -46t29 -66.5t10.5 -81q0 -117 -35 -189.5t-80 -114.5t-88 -58.5t-59 -18.5v102q78 35 108.5 93.5t30.5 132.5q-16 -4 -33 -5q-68 0 -95.5 41.5t-27.5 90.5z" />
<glyph unicode="&#x201c;" horiz-adv-x="950" d="M133 1149q0 117 35 189.5t80 114.5t88 58.5t59 18.5v-103q-78 -35 -108.5 -93t-30.5 -132q16 4 33 4q68 0 95.5 -41t27.5 -90q0 -53 -32 -95t-95 -42q-37 0 -66 17.5t-47 46t-28.5 66.5t-10.5 81zM532 1149q0 117 35 189.5t80 114.5t88 58.5t60 18.5v-103 q-78 -35 -109 -93t-31 -132q16 4 33 4q68 0 95.5 -41t27.5 -90q0 -53 -31.5 -95t-95.5 -42q-37 0 -65.5 17.5t-47 46t-29 66.5t-10.5 81z" />
<glyph unicode="&#x201d;" horiz-adv-x="950" d="M139 1393q0 53 32 95t95 42q37 0 65.5 -17.5t47 -46t29 -66.5t10.5 -81q0 -117 -35 -189.5t-80 -114.5t-88 -58.5t-59 -18.5v102q78 35 108.5 93.5t30.5 132.5q-16 -4 -33 -4q-68 0 -95.5 41t-27.5 90zM539 1393q0 53 31.5 95t95.5 42q37 0 65.5 -17.5t47 -46t28.5 -66.5 t10 -81q0 -117 -34.5 -189.5t-80 -114.5t-88.5 -58.5t-59 -18.5v102q78 35 108.5 93.5t30.5 132.5q-16 -4 -32 -4q-68 0 -95.5 41t-27.5 90z" />
<glyph unicode="&#x201e;" horiz-adv-x="950" d="M139 109q0 53 32 95t95 42q37 0 65.5 -17.5t47 -46t29 -66.5t10.5 -81q0 -117 -35 -189.5t-80 -114.5t-88 -58.5t-59 -18.5v102q78 35 108.5 93.5t30.5 132.5q-16 -4 -33 -5q-68 0 -95.5 41.5t-27.5 90.5zM539 109q0 53 31.5 95t95.5 42q37 0 65.5 -17.5t47 -46 t28.5 -66.5t10 -81q0 -117 -34.5 -189.5t-80 -114.5t-88.5 -58.5t-59 -18.5v102q78 35 108.5 93.5t30.5 132.5q-16 -4 -32 -5q-68 0 -95.5 41.5t-27.5 90.5z" />
<glyph unicode="&#x2022;" horiz-adv-x="866" d="M111 735.5q0 67.5 24.5 126t68.5 102.5t102.5 69.5t126 25.5t125.5 -25.5t102.5 -69.5t70 -102.5t25.5 -126t-25.5 -126t-70 -101.5t-102.5 -68.5t-125.5 -25.5t-126 24.5t-101.5 68.5t-68.5 102.5t-25.5 126z" />
<glyph unicode="&#x2026;" horiz-adv-x="2048" d="M217 108.5q0 57.5 36 97.5t89 40t89 -40t36 -97.5t-36 -97.5t-89 -40t-89 40t-36 97.5zM899 108.5q0 57.5 36 97.5t89 40t89 -40t36 -97.5t-36 -97.5t-89 -40t-89 40t-36 97.5zM1581 108.5q0 57.5 36 97.5t89 40t89 -40t36 -97.5t-36 -97.5t-89 -40t-89 40t-36 97.5z" />
<glyph unicode="&#x2039;" horiz-adv-x="587" d="M53 518l301 461h181l-304 -461l304 -461h-181z" />
<glyph unicode="&#x203a;" horiz-adv-x="587" d="M53 57l303 461l-303 461h180l302 -461l-302 -461h-180z" />
<glyph unicode="&#x20ac;" d="M0 754l25 102h108q18 125 62.5 225.5t110 171t149.5 108.5t184 38q111 0 186.5 -31t114.5 -96v94q31 12 64 12q35 0 65 -12v-408q-16 -8 -34.5 -10t-37 -2t-35.5 4l-36 8v58q0 109 -76 171t-195 62q-129 0 -216 -96t-120 -297h508l-24 -102h-494q-2 -16 -2 -34v-38 q0 -25 1 -49.5t3 -46.5h451l-25 -103h-407q33 -176 133 -268t225 -92q98 0 197.5 30.5t177.5 108.5v-180q-78 -66 -177.5 -90.5t-201.5 -24.5t-194.5 35t-165 101.5t-122.5 161.5t-69 218h-133l25 103h96q-2 18 -2 37v39v45q0 23 4 47h-123z" />
<glyph unicode="&#x2122;" horiz-adv-x="2060" d="M117 1219v274h725v-274q-35 -8 -56 -9q-25 0 -57 9v170h-186v-633h88q8 -33 8 -54q0 -23 -8 -49h-303q-8 27 -9 49q0 20 9 54h88v633h-187v-170q-33 -8 -55 -8t-57 8zM918 702q0 12 2 23.5t10 30.5h80v635h-80q-8 16 -10 27.5t-2 23.5q0 10 2 22.5t10 28.5h270l211 -682 l213 682h272q8 -31 9 -51q0 -23 -11 -51h-82v-635h84q8 -33 9 -54q0 -10 -2 -21t-9 -28h-282q-6 16 -8 27.5t-2 21.5q0 20 8 54h82v651l-230 -733h-119l-227 733v-651h84q6 -18 8 -29.5t2 -24.5q0 -10 -2 -21t-8 -28h-270q-8 16 -10 27.5t-2 21.5z" />
<glyph unicode="&#xe000;" horiz-adv-x="1040" d="M0 1040h1040v-1040h-1040v1040z" />
<glyph unicode="&#xfb01;" horiz-adv-x="1239" d="M49 975q0 33 12 63h162v133q0 115 40 193t103.5 124t141.5 65.5t154 19.5q94 0 168.5 -17.5t121.5 -37.5v-146q-39 16 -113.5 37t-174.5 21q-55 0 -103.5 -11.5t-84.5 -40t-57.5 -79t-21.5 -128.5v-133h635v-911h139q12 -31 12.5 -63.5t-12.5 -63.5h-452q-12 31 -12 63.5 t12 63.5h139v784h-461v-784h140q12 -31 12 -63.5t-12 -63.5h-463q-12 31 -12.5 63.5t12.5 63.5h149v784h-162q-12 31 -12 64z" />
<glyph unicode="&#xfb02;" horiz-adv-x="1234" d="M49 975q0 33 12 63h162v136q0 180 103.5 289.5t302.5 109.5q90 0 157.5 -17.5t116.5 -41t80 -49t49 -44.5v-1294h139q12 -31 12.5 -63.5t-12.5 -63.5h-452q-12 31 -12 63.5t12 63.5h139v1231q-33 25 -85 48.5t-144 23.5q-127 0 -179.5 -72t-52.5 -197v-123h226 q12 -31 12 -63.5t-12 -63.5h-226v-784h140q12 -31 12 -63.5t-12 -63.5h-463q-12 31 -12.5 63.5t12.5 63.5h149v784h-162q-12 31 -12 64z" />
<glyph unicode="&#xfb03;" horiz-adv-x="1873" d="M49 975q0 33 12 63h162v148q0 84 26.5 155.5t78 123t127 80t174.5 28.5q121 0 210 -27.5t152 -64.5q66 51 146 71.5t159 20.5q94 0 169 -17.5t122 -37.5v-146q-39 16 -113.5 37t-175.5 21q-55 0 -103 -11.5t-84 -40t-57.5 -79t-21.5 -128.5v-133h635v-911h139 q12 -31 12.5 -63.5t-12.5 -63.5h-452q-12 31 -12.5 63.5t12.5 63.5h139v784h-461v-784h139q12 -31 12.5 -63.5t-12.5 -63.5h-473q-12 31 -12 63.5t12 63.5h160v784h-461v-784h140q12 -31 12 -63.5t-12 -63.5h-463q-12 31 -12.5 63.5t12.5 63.5h149v784h-162q-12 31 -12 64z M397 1038h461v133q0 55 11.5 104.5t29.5 88.5q-33 16 -98.5 41t-171.5 25q-127 0 -179.5 -70t-52.5 -189v-133z" />
<glyph unicode="&#xfb04;" horiz-adv-x="1869" d="M49 975q0 33 12 63h162v148q0 84 26.5 155.5t78 123t127 80t174.5 28.5q117 0 205 -26.5t151 -61.5q51 41 120 64.5t159 23.5t158.5 -17.5t118.5 -40t81 -47.5l45 -36v-1305h139q12 -31 12.5 -63.5t-12.5 -63.5h-452q-12 31 -12.5 63.5t12.5 63.5h139v1237 q-33 25 -85 45.5t-144 20.5q-127 0 -179.5 -72t-52.5 -197v-123h225q12 -31 12.5 -63.5t-12.5 -63.5h-225v-784h139q12 -31 12.5 -63.5t-12.5 -63.5h-473q-12 31 -12 63.5t12 63.5h160v784h-461v-784h140q12 -31 12 -63.5t-12 -63.5h-463q-12 31 -12.5 63.5t12.5 63.5h149 v784h-162q-12 31 -12 64zM397 1038h461v136q0 109 37 192q-33 16 -97.5 40t-168.5 24q-127 0 -179.5 -70t-52.5 -189v-133z" />
</font>
</defs>
</svg>
